<svg width="125" height="125" viewBox="0 0 125 125" fill="none" xmlns="http://www.w3.org/2000/svg">
<path d="M2.11203 121.003C0.350916 117.85 0.711359 115.022 1.6019 111.591C7.8701 91.7345 18.3393 75.9414 36.926 65.7877C41.6046 63.4594 46.5782 62.0078 51.6473 60.7836C54.5247 60.0542 56.5746 59.4778 58.6778 57.3273C60.2061 53.9057 61.2752 50.3791 62.3515 46.798C67.8302 29.7731 79.0616 16.1771 94.9391 7.72483C99.292 5.69415 103.761 4.03875 108.313 2.51544C109.085 2.24552 109.856 1.9756 110.65 1.6975C114.863 0.411541 116.485 0.163248 120.721 1.85252C123.428 3.92965 123.428 3.92965 124.577 6.75808C124.914 10.3581 124.684 12.422 122.428 15.2986C119.365 17.7943 116.263 18.8558 112.556 20.0163C98.3918 24.8612 88.2201 32.3351 81.3549 45.9141C80.5221 47.7077 79.697 49.5049 78.8801 51.3058C77.9439 53.1947 77.0028 55.0812 76.0516 56.9627C77.109 57.134 78.1663 57.3054 79.2557 57.4819C80.6626 57.7209 82.0695 57.9603 83.4763 58.2001C84.1708 58.3113 84.8654 58.4225 85.581 58.5371C93.7222 59.9482 99.1003 63.3215 104.336 69.6906C108.159 75.5913 109.093 81.837 108.355 88.7576C106.627 96.1115 100.902 101.242 95.1435 105.753C88.6566 109.19 82.3221 108.986 75.3445 107.167C69.4001 105.069 64.5237 100.691 61.4565 95.1851C58.9084 89.0604 57.9219 82.5861 56.9598 76.0545C55.7265 76.678 55.7265 76.678 54.4683 77.3141C52.5348 78.2724 50.5889 79.2069 48.6236 80.0983C34.6331 86.5949 25.586 96.3386 20.2841 110.758C19.614 112.89 18.9819 115.035 18.4059 117.194C17.1752 120.378 15.7334 121.97 13.1191 124.138C7.88774 125.782 5.75472 124.631 2.11203 121.003ZM84.2276 91.9202C88.3201 90.5945 89.5141 88.9515 91.608 85.2469C92.1538 82.5181 91.7356 81.3142 90.6799 78.7504C87.9381 75.881 84.8215 75.1538 81.0014 74.6403C77.4803 74.7801 77.4803 74.7801 74.6374 75.3474C74.7372 76.8355 74.8411 78.3234 74.9468 79.811C75.0042 80.6396 75.0616 81.4682 75.1208 82.3218C75.4509 85.5941 76.0569 86.6678 78.173 89.3128C80.816 91.8935 80.816 91.8935 84.2276 91.9202Z" fill="#FFC448"/>
</svg>
