<?xml version="1.0" encoding="UTF-8"?>
<svg xmlns="http://www.w3.org/2000/svg" xmlns:xlink="http://www.w3.org/1999/xlink" width="26px" height="26px" viewBox="0 0 26 26" version="1.1">
<g id="surface1">
<path style=" stroke:none;fill-rule:nonzero;fill:rgb(0%,0%,0%);fill-opacity:1;" d="M 11.890625 3.433594 C 12.277344 3.761719 12.609375 4.101562 12.882812 4.53125 C 12.902344 4.558594 12.925781 4.589844 12.949219 4.621094 C 12.984375 4.621094 13.015625 4.621094 13.050781 4.621094 C 13.109375 4.542969 13.167969 4.460938 13.222656 4.378906 C 14.035156 3.242188 15.207031 2.613281 16.574219 2.375 C 17.347656 2.277344 18.128906 2.304688 18.898438 2.417969 C 18.945312 2.425781 18.992188 2.433594 19.042969 2.441406 C 20.042969 2.605469 21.015625 2.929688 21.976562 3.25 C 22.1875 3.320312 22.398438 3.390625 22.609375 3.460938 C 22.660156 3.476562 22.710938 3.492188 22.765625 3.511719 C 23.734375 3.84375 23.734375 3.84375 24.734375 4.078125 C 24.777344 4.085938 24.816406 4.09375 24.863281 4.101562 C 25.117188 4.148438 25.367188 4.175781 25.628906 4.183594 C 25.761719 4.21875 25.847656 4.269531 25.945312 4.371094 C 26.074219 4.601562 26.035156 4.898438 26.03125 5.152344 C 26.03125 5.222656 26.03125 5.296875 26.035156 5.367188 C 26.035156 5.5625 26.035156 5.757812 26.03125 5.953125 C 26.03125 6.164062 26.035156 6.375 26.035156 6.585938 C 26.035156 7 26.035156 7.414062 26.035156 7.828125 C 26.035156 8.164062 26.035156 8.5 26.035156 8.835938 C 26.035156 8.910156 26.035156 8.910156 26.035156 8.980469 C 26.035156 9.078125 26.035156 9.175781 26.035156 9.273438 C 26.035156 10.183594 26.035156 11.09375 26.03125 12.007812 C 26.03125 12.789062 26.03125 13.570312 26.03125 14.351562 C 26.035156 15.261719 26.035156 16.167969 26.035156 17.074219 C 26.035156 17.171875 26.035156 17.269531 26.035156 17.367188 C 26.035156 17.4375 26.035156 17.4375 26.035156 17.511719 C 26.035156 17.847656 26.035156 18.183594 26.035156 18.519531 C 26.035156 18.925781 26.035156 19.335938 26.035156 19.746094 C 26.03125 19.953125 26.03125 20.164062 26.035156 20.371094 C 26.035156 20.5625 26.035156 20.753906 26.03125 20.945312 C 26.03125 21.046875 26.03125 21.148438 26.035156 21.25 C 26.027344 21.746094 26.027344 21.746094 25.878906 21.902344 C 25.429688 22.195312 24.652344 21.917969 24.167969 21.816406 C 23.597656 21.6875 23.050781 21.5 22.5 21.3125 C 22.277344 21.238281 22.058594 21.164062 21.835938 21.089844 C 21.785156 21.074219 21.730469 21.054688 21.671875 21.035156 C 20.425781 20.609375 20.425781 20.609375 19.140625 20.316406 C 19.089844 20.304688 19.035156 20.296875 18.980469 20.285156 C 17.558594 20.027344 16.105469 20.078125 14.878906 20.921875 C 14.742188 21.035156 14.613281 21.148438 14.484375 21.273438 C 14.125 21.609375 14.125 21.609375 13.910156 21.609375 C 13.710938 21.582031 13.710938 21.582031 13.585938 21.503906 C 13.480469 21.335938 13.457031 21.222656 13.457031 21.023438 C 13.769531 20.339844 14.679688 19.882812 15.335938 19.601562 C 16.058594 19.332031 16.746094 19.226562 17.515625 19.230469 C 17.554688 19.230469 17.589844 19.230469 17.628906 19.230469 C 19.109375 19.238281 20.480469 19.640625 21.878906 20.109375 C 21.984375 20.144531 22.089844 20.179688 22.195312 20.214844 C 22.246094 20.230469 22.300781 20.25 22.355469 20.265625 C 22.40625 20.285156 22.457031 20.300781 22.511719 20.320312 C 22.558594 20.335938 22.609375 20.351562 22.664062 20.371094 C 23.621094 20.699219 23.621094 20.699219 24.605469 20.9375 C 25.027344 21.019531 25.027344 21.019531 25.136719 21.074219 C 25.136719 15.796875 25.136719 10.515625 25.136719 5.078125 C 24.886719 5.042969 24.632812 5.011719 24.375 4.976562 C 24.195312 4.9375 24.023438 4.894531 23.84375 4.84375 C 23.792969 4.828125 23.742188 4.816406 23.691406 4.800781 C 23.085938 4.625 22.488281 4.417969 21.894531 4.214844 C 18.703125 3.136719 18.703125 3.136719 15.460938 3.6875 C 15.097656 3.875 14.777344 4.097656 14.472656 4.367188 C 14.425781 4.40625 14.425781 4.40625 14.378906 4.445312 C 13.949219 4.835938 13.660156 5.398438 13.425781 5.917969 C 13.347656 6.054688 13.285156 6.117188 13.152344 6.195312 C 12.96875 6.222656 12.882812 6.214844 12.722656 6.117188 C 12.5625 5.960938 12.484375 5.804688 12.394531 5.601562 C 12.359375 5.527344 12.324219 5.453125 12.285156 5.382812 C 12.261719 5.328125 12.261719 5.328125 12.234375 5.273438 C 11.773438 4.347656 10.902344 3.792969 9.953125 3.453125 C 8.015625 2.867188 5.976562 3.601562 4.140625 4.203125 C 3.984375 4.253906 3.832031 4.304688 3.675781 4.355469 C 3.472656 4.421875 3.269531 4.492188 3.066406 4.558594 C 2.335938 4.800781 1.632812 5 0.863281 5.078125 C 0.863281 10.355469 0.863281 15.636719 0.863281 21.074219 C 1.445312 20.941406 1.445312 20.941406 2.023438 20.785156 C 2.066406 20.773438 2.113281 20.757812 2.160156 20.746094 C 2.65625 20.601562 3.144531 20.433594 3.636719 20.265625 C 8.105469 18.746094 8.105469 18.746094 10.207031 19.449219 C 10.242188 19.460938 10.277344 19.472656 10.316406 19.484375 C 11.078125 19.734375 12.0625 20.214844 12.503906 20.921875 C 12.566406 21.085938 12.535156 21.210938 12.492188 21.378906 C 12.378906 21.554688 12.308594 21.578125 12.105469 21.625 C 11.785156 21.609375 11.589844 21.335938 11.375 21.125 C 10.421875 20.277344 9.148438 20.101562 7.921875 20.160156 C 7.019531 20.234375 6.132812 20.449219 5.273438 20.726562 C 5.226562 20.742188 5.179688 20.757812 5.128906 20.773438 C 4.773438 20.886719 4.417969 21.007812 4.0625 21.125 C 3.90625 21.175781 3.75 21.230469 3.59375 21.28125 C 3.488281 21.316406 3.386719 21.351562 3.28125 21.386719 C 0.953125 22.179688 0.953125 22.179688 0.253906 21.988281 C 0.125 21.90625 0.0742188 21.863281 0 21.734375 C -0.0390625 21.507812 -0.0351562 21.28125 -0.03125 21.050781 C -0.03125 20.980469 -0.03125 20.90625 -0.0351562 20.835938 C -0.0351562 20.640625 -0.0351562 20.445312 -0.03125 20.25 C -0.03125 20.039062 -0.0351562 19.828125 -0.0351562 19.617188 C -0.0351562 19.203125 -0.0351562 18.789062 -0.0351562 18.375 C -0.0351562 18.039062 -0.0351562 17.703125 -0.0351562 17.367188 C -0.0351562 17.316406 -0.0351562 17.269531 -0.0351562 17.222656 C -0.0351562 17.125 -0.0351562 17.027344 -0.0351562 16.929688 C -0.0351562 16.019531 -0.0351562 15.109375 -0.03125 14.195312 C -0.03125 13.414062 -0.03125 12.632812 -0.03125 11.851562 C -0.0351562 10.941406 -0.0351562 10.035156 -0.0351562 9.128906 C -0.0351562 9.03125 -0.0351562 8.933594 -0.0351562 8.835938 C -0.0351562 8.789062 -0.0351562 8.742188 -0.0351562 8.691406 C -0.0351562 8.355469 -0.0351562 8.019531 -0.0351562 7.683594 C -0.0351562 7.277344 -0.0351562 6.867188 -0.0351562 6.457031 C -0.03125 6.25 -0.03125 6.039062 -0.0351562 5.832031 C -0.0351562 5.640625 -0.0351562 5.449219 -0.03125 5.257812 C -0.03125 5.15625 -0.03125 5.054688 -0.0351562 4.953125 C -0.0273438 4.457031 -0.0273438 4.457031 0.121094 4.300781 C 0.253906 4.214844 0.332031 4.179688 0.488281 4.164062 C 0.558594 4.160156 0.558594 4.160156 0.625 4.152344 C 0.671875 4.148438 0.71875 4.144531 0.769531 4.140625 C 1.808594 4.042969 2.792969 3.664062 3.777344 3.328125 C 4.382812 3.121094 4.988281 2.921875 5.605469 2.746094 C 5.65625 2.734375 5.707031 2.71875 5.757812 2.703125 C 7.804688 2.140625 10.144531 2.050781 11.890625 3.433594 Z M 11.890625 3.433594 "/>
<path style=" stroke:none;fill-rule:nonzero;fill:rgb(0%,0%,0%);fill-opacity:1;" d="M 10.054688 21.074219 C 10.089844 21.085938 10.125 21.09375 10.160156 21.105469 C 10.839844 21.304688 11.457031 21.59375 11.941406 22.117188 C 12.34375 22.46875 12.871094 22.421875 13.378906 22.394531 C 13.753906 22.351562 13.929688 22.253906 14.1875 21.976562 C 14.640625 21.496094 15.324219 21.253906 15.945312 21.074219 C 16.003906 21.058594 16.0625 21.039062 16.125 21.023438 C 18.035156 20.566406 20.066406 21.179688 21.863281 21.78125 C 22.074219 21.851562 22.28125 21.921875 22.488281 21.988281 C 22.539062 22.007812 22.589844 22.023438 22.644531 22.039062 C 23.007812 22.160156 23.375 22.277344 23.742188 22.390625 C 23.792969 22.402344 23.839844 22.417969 23.886719 22.433594 C 24.320312 22.5625 24.75 22.675781 25.199219 22.722656 C 25.257812 22.730469 25.257812 22.730469 25.3125 22.734375 C 25.417969 22.746094 25.519531 22.753906 25.625 22.765625 C 25.816406 22.804688 25.886719 22.84375 26 23.003906 C 26.035156 23.246094 26.035156 23.351562 25.914062 23.5625 C 25.355469 23.898438 24.402344 23.554688 23.816406 23.410156 C 23.410156 23.296875 23.007812 23.160156 22.609375 23.023438 C 22.304688 22.917969 21.996094 22.820312 21.691406 22.71875 C 21.632812 22.695312 21.574219 22.675781 21.511719 22.65625 C 19.644531 22.035156 17.421875 21.34375 15.519531 22.226562 C 15.476562 22.246094 15.429688 22.269531 15.386719 22.292969 C 15.34375 22.316406 15.300781 22.335938 15.253906 22.359375 C 14.964844 22.523438 14.730469 22.71875 14.488281 22.945312 C 14.449219 22.980469 14.410156 23.019531 14.371094 23.054688 C 14.335938 23.089844 14.304688 23.125 14.269531 23.160156 C 14.054688 23.296875 13.871094 23.292969 13.621094 23.292969 C 13.574219 23.292969 13.527344 23.296875 13.476562 23.296875 C 13.375 23.296875 13.273438 23.296875 13.171875 23.296875 C 13.015625 23.300781 12.863281 23.304688 12.710938 23.308594 C 11.882812 23.320312 11.882812 23.320312 11.570312 23.035156 C 11.503906 22.960938 11.4375 22.882812 11.375 22.800781 C 10.445312 21.96875 9.175781 21.777344 7.972656 21.835938 C 7.402344 21.878906 6.84375 21.980469 6.289062 22.121094 C 6.234375 22.132812 6.183594 22.148438 6.128906 22.160156 C 5.539062 22.3125 4.964844 22.503906 4.390625 22.695312 C 3.769531 22.902344 3.148438 23.109375 2.523438 23.300781 C 2.476562 23.316406 2.429688 23.328125 2.382812 23.34375 C 0.933594 23.785156 0.933594 23.785156 0.253906 23.664062 C 0.0859375 23.5625 0.0859375 23.5625 0 23.410156 C -0.03125 23.257812 -0.0234375 23.167969 0 23.003906 C 0.0820312 22.878906 0.152344 22.8125 0.300781 22.777344 C 0.378906 22.765625 0.457031 22.753906 0.535156 22.746094 C 0.96875 22.699219 1.390625 22.628906 1.808594 22.519531 C 1.859375 22.503906 1.910156 22.492188 1.960938 22.476562 C 2.5 22.332031 3.027344 22.152344 3.558594 21.972656 C 7.96875 20.460938 7.96875 20.460938 10.054688 21.074219 Z M 10.054688 21.074219 "/>
<path style=" stroke:none;fill-rule:nonzero;fill:rgb(0%,0%,0%);fill-opacity:1;" d="M 13.203125 6.957031 C 13.355469 7.070312 13.398438 7.132812 13.457031 7.3125 C 13.460938 7.382812 13.464844 7.457031 13.464844 7.527344 C 13.464844 7.574219 13.464844 7.617188 13.464844 7.664062 C 13.464844 7.710938 13.464844 7.761719 13.464844 7.8125 C 13.464844 7.863281 13.464844 7.914062 13.464844 7.96875 C 13.464844 8.140625 13.464844 8.316406 13.464844 8.492188 C 13.464844 8.617188 13.464844 8.742188 13.464844 8.863281 C 13.464844 9.203125 13.46875 9.542969 13.46875 9.882812 C 13.46875 10.09375 13.46875 10.308594 13.46875 10.519531 C 13.46875 11.105469 13.46875 11.691406 13.46875 12.277344 C 13.46875 12.316406 13.46875 12.351562 13.46875 12.390625 C 13.46875 12.429688 13.46875 12.464844 13.46875 12.503906 C 13.46875 12.582031 13.46875 12.65625 13.46875 12.734375 C 13.46875 12.773438 13.46875 12.808594 13.46875 12.847656 C 13.46875 13.460938 13.46875 14.074219 13.472656 14.6875 C 13.472656 15.316406 13.472656 15.945312 13.472656 16.574219 C 13.472656 16.929688 13.472656 17.28125 13.476562 17.632812 C 13.476562 17.964844 13.476562 18.300781 13.476562 18.632812 C 13.476562 18.753906 13.476562 18.875 13.476562 18.996094 C 13.476562 19.164062 13.476562 19.328125 13.476562 19.496094 C 13.476562 19.542969 13.476562 19.59375 13.476562 19.644531 C 13.476562 19.890625 13.46875 20.0625 13.304688 20.261719 C 13.167969 20.371094 13.097656 20.363281 12.921875 20.355469 C 12.691406 20.300781 12.691406 20.300781 12.59375 20.160156 C 12.546875 20.019531 12.535156 19.9375 12.535156 19.792969 C 12.535156 19.746094 12.535156 19.703125 12.535156 19.65625 C 12.535156 19.582031 12.535156 19.582031 12.535156 19.507812 C 12.535156 19.457031 12.535156 19.40625 12.535156 19.351562 C 12.535156 19.179688 12.535156 19.003906 12.535156 18.828125 C 12.535156 18.703125 12.535156 18.578125 12.535156 18.457031 C 12.535156 18.152344 12.535156 17.847656 12.535156 17.542969 C 12.535156 17.296875 12.535156 17.046875 12.535156 16.800781 C 12.535156 16.101562 12.535156 15.402344 12.535156 14.699219 C 12.535156 14.664062 12.535156 14.625 12.535156 14.585938 C 12.535156 14.546875 12.535156 14.511719 12.535156 14.472656 C 12.535156 13.859375 12.53125 13.246094 12.53125 12.632812 C 12.53125 12.003906 12.53125 11.375 12.53125 10.746094 C 12.53125 10.390625 12.53125 10.039062 12.53125 9.6875 C 12.53125 9.355469 12.53125 9.019531 12.53125 8.6875 C 12.53125 8.566406 12.53125 8.445312 12.53125 8.324219 C 12.53125 8.15625 12.53125 7.992188 12.53125 7.824219 C 12.53125 7.777344 12.53125 7.726562 12.53125 7.675781 C 12.53125 7.25 12.53125 7.25 12.644531 7.058594 C 12.832031 6.933594 12.988281 6.921875 13.203125 6.957031 Z M 13.203125 6.957031 "/>
</g>
</svg>
