<?xml version="1.0" encoding="UTF-8"?>
<svg version="1.1" xmlns="http://www.w3.org/2000/svg" width="512" height="512">
<path d="M0 0 C2.59715889 2.30679806 5.13363003 4.66681488 7.65917969 7.05224609 C9.91604359 9.17754394 12.21814497 11.20042995 14.58496094 13.20068359 C18.5536926 16.65600644 21.90315533 20.48106377 25.27246094 24.51318359 C26.43261719 25.85896484 26.43261719 25.85896484 27.61621094 27.23193359 C68.5039562 75.18669656 84.90852571 136.37095902 79.97509766 198.63085938 C75.37446328 245.53503889 54.05580615 291.67890048 21.73339844 325.89990234 C19.60810059 328.15676624 17.58521458 330.45886763 15.58496094 332.82568359 C12.12963809 336.79441526 8.30458076 340.14387798 4.27246094 343.51318359 C3.37527344 344.28662109 2.47808594 345.06005859 1.55371094 345.85693359 C-46.40105203 386.74467886 -107.58531449 403.14924837 -169.84521484 398.21582031 C-216.74939436 393.61518594 -262.89325595 372.29652881 -297.11425781 339.97412109 C-299.37112171 337.84882325 -301.6732231 335.82593724 -304.04003906 333.82568359 C-308.00877073 330.37036075 -311.35823345 326.54530342 -314.72753906 322.51318359 C-315.50097656 321.61599609 -316.27441406 320.71880859 -317.07128906 319.79443359 C-357.95903433 271.83967063 -374.36360384 210.65540817 -369.43017578 148.39550781 C-364.82954141 101.4913283 -343.51088428 55.34746671 -311.18847656 21.12646484 C-309.06317872 18.86960094 -307.04029271 16.56749956 -305.04003906 14.20068359 C-301.58471622 10.23195193 -297.75965889 6.8824892 -293.72753906 3.51318359 C-292.38175781 2.35302734 -292.38175781 2.35302734 -291.00878906 1.16943359 C-221.28774593 -58.2769295 -118.41561899 -69.15209027 0 0 Z M-269.72753906 96.51318359 C-269.82643689 98.49782552 -269.85386171 100.48604013 -269.85452271 102.47314453 C-269.85734253 103.76885376 -269.86016235 105.06456299 -269.86306763 106.39953613 C-269.86112303 107.84887709 -269.85907484 109.29821791 -269.85693359 110.74755859 C-269.85828757 112.26330609 -269.86006749 113.77905326 -269.86224365 115.2947998 C-269.86681838 119.42278341 -269.86502827 123.55074213 -269.86186457 127.6787262 C-269.85934117 131.98910593 -269.86167845 136.29948347 -269.86325073 140.60986328 C-269.86507249 147.84977605 -269.86266597 155.08967862 -269.85791016 162.32958984 C-269.85246752 170.71212454 -269.85423018 179.09463493 -269.85973656 187.47716904 C-269.86426753 194.6610116 -269.86491832 201.84484681 -269.86229789 209.02869034 C-269.86073503 213.32507984 -269.86054161 217.6214579 -269.86383438 221.91784668 C-269.86671285 225.95609176 -269.86473785 229.99430534 -269.85894012 234.032547 C-269.8576124 235.51890511 -269.85800686 237.00526584 -269.86020279 238.49162292 C-269.86291376 240.51215524 -269.85891994 242.53269331 -269.85452271 244.55322266 C-269.85414568 245.686651 -269.85376865 246.82007935 -269.8533802 247.987854 C-270.01379044 250.45061152 -270.01379044 250.45061152 -268.72753906 251.51318359 C-266.11314522 251.61897529 -263.5250363 251.65996334 -260.90991211 251.65844727 C-260.09023453 251.66180588 -259.27055695 251.66516449 -258.42604065 251.66862488 C-255.69709786 251.67817521 -252.96821631 251.68008089 -250.23925781 251.68115234 C-248.34129308 251.68436523 -246.44332859 251.68772933 -244.54536438 251.6912384 C-240.55294217 251.69724203 -236.56054164 251.69907735 -232.56811523 251.69848633 C-227.47879397 251.69838535 -222.38961425 251.71196515 -217.30032635 251.72925854 C-213.37180459 251.74044706 -209.4433161 251.74240334 -205.51478004 251.7418766 C-203.64070974 251.7430492 -201.76663837 251.74743009 -199.89258385 251.75520897 C-181.77342418 251.82329663 -165.8071294 251.10845073 -152.07128906 237.92333984 C-142.58674523 227.64035227 -140.11341449 215.43654554 -140.41503906 201.90771484 C-140.9123301 192.13801798 -145.70965903 184.07322785 -152.86816406 177.56787109 C-156.3158719 174.76514262 -159.58428102 172.40517292 -163.72753906 170.76318359 C-164.71753906 170.35068359 -165.70753906 169.93818359 -166.72753906 169.51318359 C-167.05753906 168.52318359 -167.38753906 167.53318359 -167.72753906 166.51318359 C-167.00566406 166.26568359 -166.28378906 166.01818359 -165.54003906 165.76318359 C-157.74685669 162.29954698 -153.3201711 155.35413647 -149.91503906 147.76318359 C-146.4417028 138.25721068 -146.87818882 128.85330513 -150.72753906 119.51318359 C-155.45416785 109.6918085 -162.40773397 102.33957119 -172.72753906 98.51318359 C-183.85982988 95.28463987 -194.51133161 95.09945257 -205.99707031 95.18505859 C-207.81312401 95.18812361 -209.62918007 95.18999408 -211.44523621 95.19073486 C-215.21789798 95.19529974 -218.99034173 95.20958976 -222.76293945 95.23193359 C-227.60744417 95.2604784 -232.45178009 95.27117562 -237.29636097 95.27561569 C-241.03055005 95.27975783 -244.76470489 95.28956085 -248.49887657 95.30149078 C-250.28713394 95.30719562 -252.07539458 95.31195362 -253.863657 95.31575775 C-256.34544404 95.32259091 -258.82709416 95.33620203 -261.30883789 95.35205078 C-262.42059387 95.35372757 -262.42059387 95.35372757 -263.55480957 95.35543823 C-266.92759332 95.08764739 -266.92759332 95.08764739 -269.72753906 96.51318359 Z M-104.72753906 100.51318359 C-106.80887373 103.6351856 -107.00132126 104.44585348 -106.97753906 108.01318359 C-106.98269531 108.78662109 -106.98785156 109.56005859 -106.99316406 110.35693359 C-106.85491968 112.80832203 -106.85491968 112.80832203 -104.72753906 115.51318359 C-101.73386889 116.51107365 -99.71365898 116.6511686 -96.58520508 116.67431641 C-95.53724258 116.68392395 -94.48928009 116.69353149 -93.40956116 116.70343018 C-92.27828293 116.70768005 -91.1470047 116.71192993 -89.98144531 116.71630859 C-88.81878647 116.72200867 -87.65612762 116.72770874 -86.45823669 116.73358154 C-83.99780183 116.7430321 -81.5373543 116.74956574 -79.0769043 116.75341797 C-75.3085331 116.7631359 -71.54070438 116.7941646 -67.77246094 116.82568359 C-65.38379231 116.83221239 -62.99511977 116.83746335 -60.60644531 116.84130859 C-59.47719131 116.8536554 -58.34793732 116.8660022 -57.1844635 116.87872314 C-56.13334885 116.87572205 -55.08223419 116.87272095 -53.99926758 116.86962891 C-52.61385521 116.87509735 -52.61385521 116.87509735 -51.20045471 116.88067627 C-48.24573411 116.44158399 -46.87167848 115.56500528 -44.72753906 113.51318359 C-44.17000913 111.11147075 -44.17000913 111.11147075 -44.35253906 108.51318359 C-44.36542969 107.64693359 -44.37832031 106.78068359 -44.39160156 105.88818359 C-44.58994615 103.25081279 -44.58994615 103.25081279 -46.72753906 100.51318359 C-49.25559751 100.05338073 -49.25559751 100.05338073 -52.24707031 100.125 C-53.40166748 100.11554352 -54.55626465 100.10608704 -55.74584961 100.09634399 C-56.99793213 100.10241669 -58.25001465 100.10848938 -59.54003906 100.11474609 C-60.81983643 100.11187592 -62.09963379 100.10900574 -63.41821289 100.10604858 C-66.12852826 100.10162277 -68.83854719 100.10806405 -71.54882812 100.12207031 C-75.0261647 100.13916296 -78.50280672 100.12932307 -81.9801178 100.11135292 C-85.29181421 100.09791709 -88.60332289 100.10731897 -91.91503906 100.11474609 C-93.79316284 100.10563705 -93.79316284 100.10563705 -95.70922852 100.09634399 C-97.44112427 100.11052872 -97.44112427 100.11052872 -99.20800781 100.125 C-100.22789795 100.12738678 -101.24778809 100.12977356 -102.29858398 100.13223267 C-103.50091675 100.32080338 -103.50091675 100.32080338 -104.72753906 100.51318359 Z M-117.72753906 149.51318359 C-130.21397303 165.65943442 -132.95207328 186.0555809 -130.42285156 205.90429688 C-127.8796709 220.56326805 -121.03508058 233.53252745 -109.00878906 242.55224609 C-93.38405794 252.42270796 -74.48407952 253.94320414 -56.60253906 250.38818359 C-42.44253265 246.4233818 -32.46490013 237.60541715 -24.78613281 225.22802734 C-23.29391566 221.40112357 -23.02951833 217.58741026 -22.72753906 213.51318359 C-26.90818379 213.31474131 -31.08630905 213.16996864 -35.27026367 213.07373047 C-36.69164787 213.03360488 -38.11270392 212.97908447 -39.53295898 212.90966797 C-47.64969946 212.16504871 -47.64969946 212.16504871 -54.69482422 215.24389648 C-56.03902662 217.33602106 -56.03902662 217.33602106 -56.87915039 219.54272461 C-58.26939534 222.77169352 -60.70622727 223.9395837 -63.72753906 225.51318359 C-71.48249089 228.09816754 -80.45413647 226.97537907 -87.72753906 223.51318359 C-93.71107188 219.561794 -96.72592208 214.80783749 -98.3359375 207.90454102 C-98.50125977 207.02644775 -98.66658203 206.14835449 -98.83691406 205.24365234 C-99.00674805 204.35444092 -99.17658203 203.46522949 -99.3515625 202.54907227 C-99.5376709 201.54130737 -99.5376709 201.54130737 -99.72753906 200.51318359 C-98.75256973 200.51540421 -97.7776004 200.51762482 -96.77308655 200.51991272 C-87.60524188 200.54014456 -78.43740172 200.55515594 -69.26953983 200.56499577 C-64.55574173 200.57022449 -59.84196159 200.57732193 -55.12817383 200.58862305 C-50.58298503 200.59945232 -46.03781354 200.60546051 -41.49261284 200.60806084 C-39.75458948 200.60991501 -38.01656712 200.61353549 -36.2785511 200.61891365 C-33.85275312 200.62612463 -31.4270276 200.62717451 -29.0012207 200.62670898 C-27.91257721 200.6321019 -27.91257721 200.6321019 -26.80194092 200.63760376 C-23.48154019 200.92136959 -23.48154019 200.92136959 -20.72753906 199.51318359 C-19.04480436 182.52104459 -20.71565459 165.16201358 -31.72753906 151.51318359 C-41.29174757 140.30053641 -53.09317058 133.50317594 -67.72753906 131.51318359 C-87.49178496 130.47923914 -103.81974113 134.44244692 -117.72753906 149.51318359 Z " fill="#000000" transform="translate(400.7275390625,82.48681640625)"/>
<path d="M0 0 C6.579375 -0.04125 13.15875 -0.0825 19.9375 -0.125 C21.99605225 -0.14320801 24.05460449 -0.16141602 26.17553711 -0.18017578 C27.83447002 -0.18602517 29.49340583 -0.19111966 31.15234375 -0.1953125 C31.99156372 -0.20554443 32.83078369 -0.21577637 33.69543457 -0.22631836 C43.57282055 -0.22919011 50.54596962 1.45497469 58.25 7.875 C62.42810488 12.94841306 62.44581261 18.70023472 62.3046875 25.02734375 C61.85880434 29.37756282 60.82023078 32.62509779 58 36 C46.54449847 45.21971954 31.1764722 43.13343633 17.3125 43.0625 C11.599375 43.041875 5.88625 43.02125 0 43 C0 28.81 0 14.62 0 0 Z " fill="#000000" transform="translate(167,266)"/>
<path d="M0 0 C5.40793162 -0.04609033 10.8151725 -0.08586199 16.22314453 -0.10986328 C18.06008218 -0.11987648 19.89700407 -0.13349102 21.73388672 -0.15087891 C24.38513089 -0.17533422 27.036163 -0.18653013 29.6875 -0.1953125 C30.49928711 -0.20563507 31.31107422 -0.21595764 32.14746094 -0.22659302 C39.92851639 -0.22809957 46.83710787 0.84036938 53 6 C57.21250934 11.47626215 56.75554892 18.40993438 56 25 C53.49722942 30.28362678 49.82652868 33.79185658 44.43310547 36.09716797 C40.02701241 37.25587456 35.97921023 37.24936469 31.4453125 37.1953125 C30.54376434 37.1924826 29.64221619 37.18965271 28.71334839 37.18673706 C25.85042724 37.17559439 22.98782566 37.1505008 20.125 37.125 C18.17708787 37.11496255 16.22917081 37.10583804 14.28125 37.09765625 C9.52061291 37.07738096 4.76066172 37.03822119 0 37 C0 24.79 0 12.58 0 0 Z " fill="#000000" transform="translate(167,203)"/>
<path d="M0 0 C6.15720716 2.76300205 10.46748744 7.88404627 13.33203125 13.90625 C14.44709294 17.31338296 14.79547691 19.79007056 14.45703125 23.34375 C13.45703125 24.34375 13.45703125 24.34375 11.55247498 24.46400452 C10.71974564 24.46178391 9.8870163 24.45956329 9.02905273 24.45727539 C8.08815292 24.45719986 7.14725311 24.45712433 6.17784119 24.45704651 C5.15493484 24.45188522 4.1320285 24.44672394 3.078125 24.44140625 C2.03632584 24.4399913 0.99452667 24.43857635 -0.07884216 24.43711853 C-3.42107969 24.4315008 -6.76325132 24.4189453 -10.10546875 24.40625 C-12.36523341 24.40123728 -14.62499912 24.39667398 -16.88476562 24.39257812 C-22.43752266 24.38152561 -27.990241 24.36477024 -33.54296875 24.34375 C-33.72425302 15.37551032 -31.24229897 10.7695428 -25.5546875 4.140625 C-18.53853313 -2.12623133 -8.81936451 -2.27596503 0 0 Z " fill="#000000" transform="translate(335.54296875,237.65625)"/>
</svg>
