<?xml version="1.0" standalone="no"?>
<!DOCTYPE svg PUBLIC "-//W3C//DTD SVG 1.0//EN" "http://www.w3.org/TR/2001/REC-SVG-20010904/DTD/svg10.dtd">
<svg xmlns="http://www.w3.org/2000/svg" xmlns:xlink="http://www.w3.org/1999/xlink" id="body_1" width="512" height="512">

<g transform="matrix(1.3333334 0 0 1.3333334 0 0)">
	<path  d="M0 0L384 0L384 384L0 384z" stroke="none"  fill="#FFFFFF" fill-rule="evenodd" />
	<g transform="matrix(1 0 0 1 0 0)">
		<g transform="matrix(0.052734375 0 0 0.052734375 0 0)">
			<path transform="matrix(1 0 0 1 434.77734 118.75391)" d="M0 0C 20.92689 15.0555105 42.179234 36.11525 47.222656 62.246094C 51.20028 93.31476 37.484802 127.81338 24.222656 155.2461C 23.939747 155.83276 23.656837 156.41942 23.365356 157.02386C 9.464485 185.81667 -6.1054554 212.93745 -25.777344 238.2461C -26.720938 239.46233 -26.720938 239.46233 -27.683594 240.70312C -43.017117 260.15283 -59.844498 279.22598 -78.77734 295.2461C -79.67324 296.03113 -80.56914 296.81616 -81.49219 297.625C -114.85698 326.68536 -156.60986 353.99814 -202.67578 351.41016C -228.21658 349.41626 -248.67844 337.2719 -266.15234 318.8711C -275.21555 308.0732 -281.35574 295.53183 -280.77734 281.1836C -278.37576 261.94568 -263.58618 246.43933 -251.02344 232.72266C -249.50981 231.05373 -248.02306 229.36009 -246.5625 227.64453C -236.93127 216.43913 -225.08348 208.27461 -210.11328 207.02344C -197.60617 206.61827 -188.16035 211.0621 -179.08984 219.4961C -170.32016 228.75186 -161.77734 245.27614 -161.77734 258.2461C -138.11528 255.0477 -114.09625 235.88426 -96.77734 220.2461C -95.912384 219.50102 -95.047424 218.75594 -94.15625 217.98828C -73.97232 200.41788 -58.857567 178.2842 -47.277344 154.3086C -46.785084 153.2912 -46.292824 152.2738 -45.785645 151.22559C -39.947033 139.20674 -39.947033 139.20674 -37.777344 126.24609C -38.315125 126.10099 -38.852905 125.955894 -39.406982 125.8064C -56.77736 121.04914 -75.09206 114.86305 -85.77734 99.24609C -90.70439 90.21318 -90.02931 78.9064 -87.39087 69.17871C -79.337585 42.990314 -58.218025 11.812916 -34.10547 -1.5703125C -33.33719 -1.9608984 -32.568905 -2.3514843 -31.777344 -2.7539062C -30.77961 -3.2624414 -30.77961 -3.2624414 -29.761719 -3.78125C -19.357203 -8.370234 -9.239328 -5.834681 0 0zM-49.654297 27.676758C -53.390377 32.198204 -56.616108 37.03947 -59.839844 41.933594C -60.88918 43.52144 -60.88918 43.52144 -61.959717 45.141357C -74.798386 64.6485 -74.798386 64.6485 -77.77734 87.24609C -75.64983 94.46545 -70.48271 98.66229 -64.77734 103.24609C -61.718494 101.92624 -60.102123 100.72845 -58.253906 97.96484C -57.797337 97.29662 -57.340767 96.62841 -56.87036 95.93994C -56.385914 95.21597 -55.90147 94.492004 -55.402344 93.74609C -37.666805 67.93334 -17.194199 43.153477 5.2226562 21.246094C -0.32285994 14.095297 -7.903334 6.518501 -17.234375 5.015625C -30.603289 6.2272468 -41.377773 18.29129 -49.654297 27.676758zM12.222656 29.246094C 11.638711 29.93832 11.638711 29.93832 11.042969 30.644531C 7.628875 34.62502 4.100157 38.394043 0.34765625 42.058594C -3.8805707 46.242245 -7.6578155 50.624638 -11.3671875 55.26953C -13.585867 58.009617 -15.861078 60.681698 -18.171875 63.343506C -24.327398 70.43502 -30.162117 77.716545 -35.777344 85.24609C -36.353714 86.01776 -36.930088 86.78942 -37.523926 87.58447C -39.42539 90.13505 -41.32137 92.68958 -43.214844 95.24609C -43.818607 96.05973 -44.422375 96.873375 -45.044434 97.71167C -47.80883 101.46402 -50.488243 105.17658 -52.777344 109.24609C -51.94332 109.50004 -51.1093 109.75398 -50.25 110.015625C -47.916054 110.72945 -45.584103 111.449814 -43.253906 112.17578C -41.1937 112.81005 -39.127686 113.42666 -37.05078 114.00391C -32.173077 115.42317 -29.509016 116.693306 -26.777344 121.24609C -24.469515 128.16957 -26.32268 133.93117 -28.714844 140.4961C -29.028408 141.36798 -29.341972 142.23987 -29.66504 143.13818C -37.301105 163.84811 -48.010353 182.98819 -61.777344 200.2461C -62.92203 201.69629 -62.92203 201.69629 -64.08984 203.17578C -68.37915 208.52292 -72.82024 213.51546 -77.77734 218.2461C -78.5611 219.02985 -79.34484 219.8136 -80.15234 220.6211C -81.01859 221.48735 -81.88484 222.35359 -82.77734 223.2461C -83.38836 223.8919 -83.999374 224.53773 -84.62891 225.20312C -101.66657 242.89131 -124.37963 256.72418 -146.83984 266.3711C -147.50548 266.66653 -148.17113 266.96198 -148.85693 267.26636C -153.81607 269.2952 -158.43712 269.85086 -163.77734 269.2461C -168.32448 267.26907 -170.86197 264.47006 -172.74463 259.896C -173.01581 259.0499 -173.287 258.20377 -173.5664 257.33203C -173.86804 256.4065 -174.1697 255.48094 -174.48047 254.52734C -174.78468 253.56828 -175.08891 252.60922 -175.40234 251.6211C -176.01839 249.71187 -176.63551 247.803 -177.2539 245.89453C -177.52284 245.05067 -177.79176 244.20683 -178.06885 243.3374C -178.73235 241.22227 -178.73235 241.22227 -179.77734 239.2461C -194.43127 245.47743 -209.16534 264.4995 -218.84375 276.8125C -220.71867 279.17224 -222.68295 281.3961 -224.71484 283.6211C -229.7477 289.23083 -234.26125 295.2209 -238.77734 301.2461C -239.2783 301.9114 -239.77927 302.57672 -240.29541 303.2622C -241.8375 305.31464 -243.37135 307.3729 -244.90234 309.4336C -245.38808 310.0815 -245.87381 310.72943 -246.37427 311.39697C -248.92174 314.4938 -248.92174 314.4938 -249.77734 318.2461C -236.35841 329.76498 -219.74721 335.87122 -202.14453 334.53027C -153.96611 328.7465 -104.063286 294.09372 -69.45703 261.73828C -67.00274 259.45572 -64.49902 257.25146 -61.964844 255.0586C -58.58227 252.0633 -55.599922 248.91788 -52.691406 245.46484C -51.31144 243.8652 -49.882877 242.30705 -48.42578 240.77734C -26.737593 218.00154 -10.530959 190.60977 3.1435547 162.45752C 4.294969 160.0979 5.4660373 157.74855 6.6367188 155.39844C 12.560431 143.38422 17.916006 131.15637 23.097656 118.80859C 23.416306 118.055176 23.734957 117.30176 24.063263 116.52551C 32.370792 96.83475 40.795254 76.552505 33.222656 55.246094C 29.04054 45.416336 23.024256 37.451393 15.222656 30.246094C 14.2326565 29.916094 13.242657 29.586094 12.222656 29.246094zM-246.77734 245.2461C -247.58945 246.17035 -248.40157 247.0946 -249.23828 248.04688C -264.07452 265.2331 -264.07452 265.2331 -269.125 286.60156C -268.01068 295.07794 -264.2844 301.83957 -258.77734 308.2461C -255.37099 304.96436 -252.4385 301.62766 -249.65234 297.8086C -231.74564 273.6375 -211.87901 248.49226 -187.77734 230.2461C -189.18607 226.88121 -190.7739 225.189 -193.71484 223.0586C -194.74931 222.29483 -194.74931 222.29483 -195.80469 221.51562C -215.40941 208.89873 -235.46841 232.03902 -246.77734 245.2461z" stroke="none"  fill="#000000" fill-rule="nonzero" />
			<path transform="matrix(1 0 0 1 270.4314 71.1582)" d="M0 0C 24.401743 19.983957 36.92074 49.120434 40.04126 80.18164C 42.42863 108.786705 33.785725 135.66412 15.5686035 157.8418C 9.132149 165.17564 1.7308363 171.49501 -6.4313965 176.8418C -7.0913963 176.8418 -7.7513967 176.8418 -8.4313965 176.8418C -8.517764 177.93492 -8.604131 179.02805 -8.693115 180.1543C -9.534467 189.76657 -10.901547 199.19313 -12.8063965 208.6543C -13.003221 209.6733 -13.200044 210.6923 -13.402832 211.74219C -14.714345 217.9991 -15.982285 223.57524 -21.618896 227.2793C -30.32577 229.02068 -41.963722 226.12016 -49.556396 221.7793C -54.79313 218.1928 -59.074245 213.41762 -63.431396 208.8418C -64.0914 208.1818 -64.751396 207.52179 -65.4314 206.8418C -68.27102 207.17885 -68.27102 207.17885 -71.5564 208.07227C -72.810974 208.37962 -74.06556 208.68698 -75.358154 209.00366C -76.022865 209.17148 -76.687584 209.33928 -77.37244 209.51218C -80.81688 210.37727 -84.273094 211.19272 -87.72827 212.01367C -88.40702 212.17572 -89.08578 212.33778 -89.785095 212.50475C -122.85055 220.38586 -157.45778 219.2447 -187.4314 201.8418C -191.62408 199.05531 -195.55049 196.04591 -199.4314 192.8418C -200.35695 192.08125 -201.28249 191.32071 -202.23608 190.53711C -223.4076 172.24445 -237.2364 145.62657 -240.4314 117.8418C -240.70787 113.39956 -240.76582 108.97935 -240.7439 104.5293C -240.73898 103.343765 -240.73407 102.158226 -240.729 100.93677C -240.31775 70.15227 -226.13191 45.655235 -205.4314 23.841797C -204.85004 23.184376 -204.26866 22.526953 -203.66968 21.84961C -198.23921 15.913029 -191.29694 11.905547 -184.4314 7.841797C -183.49554 7.282344 -182.55968 6.722891 -181.59546 6.1464844C -175.8331 2.9928744 -169.93564 0.95732147 -163.64624 -0.8183594C -162.75223 -1.0718415 -161.85822 -1.3253235 -160.9371 -1.5864868C -148.05936 -5.1701593 -135.0473 -8.2408905 -122.045654 -11.336914C -118.28921 -12.231691 -114.53554 -13.137611 -110.782455 -14.046391C -107.833916 -14.758638 -104.88372 -15.4638405 -101.933044 -16.167168C -100.54932 -16.498047 -99.166145 -16.831223 -97.78361 -17.167C -63.0663 -25.58294 -28.807354 -22.83388 0 0zM-84.630615 -8.091797C -85.60264 -7.873381 -86.57466 -7.654966 -87.57614 -7.4299316C -90.86426 -6.685295 -94.14811 -5.9238396 -97.4314 -5.158203C -99.24123 -4.7376614 -99.24123 -4.7376614 -101.087616 -4.3086243C -109.04667 -2.4530802 -116.996475 -0.56101274 -124.94165 1.3530273C -128.3939 2.184211 -131.84863 3.0046613 -135.30399 3.8229294C -138.02354 4.46906 -140.74113 5.1231885 -143.4583 5.779373C -145.33604 6.230761 -147.2158 6.673836 -149.09561 7.116577C -165.23148 11.043691 -179.66394 17.11073 -192.4314 27.841797C -193.17133 28.436054 -193.91124 29.030312 -194.67358 29.642578C -208.69943 41.363144 -217.72797 58.34007 -222.4314 75.8418C -222.76784 77.069626 -222.76784 77.069626 -223.11108 78.322266C -228.81961 103.54145 -221.68402 134.0633 -208.4314 155.8418C -194.36008 176.93465 -173.8195 191.19673 -148.97192 196.31885C -128.01393 200.1702 -108.99871 195.21039 -88.65015 190.21289C -87.70839 189.98308 -86.766624 189.75327 -85.796326 189.51648C -81.03792 188.35489 -76.28466 187.17735 -71.53784 185.96924C -69.76813 185.53166 -67.998276 185.09462 -66.22827 184.6582C -65.00787 184.33836 -65.00787 184.33836 -63.762817 184.01207C -60.298794 183.17245 -58.055683 182.68921 -54.549805 183.54614C -51.266773 185.55411 -49.164623 188.4473 -46.868896 191.4668C -46.3573 192.12108 -45.845703 192.77536 -45.318604 193.44946C -42.51177 197.05917 -39.77309 200.7176 -37.05249 204.39258C -36.508587 205.1259 -35.964684 205.8592 -35.404297 206.61475C -34.350655 208.04204 -33.304077 209.47456 -32.265137 210.9126C -31.03392 212.59094 -29.738451 214.22182 -28.431396 215.8418C -27.771397 215.8418 -27.111397 215.8418 -26.431396 215.8418C -25.64821 212.2819 -24.882893 208.71835 -24.118896 205.1543C -23.880178 204.07245 -23.64146 202.9906 -23.395508 201.87598C -22.261927 196.56966 -21.306778 191.41649 -20.993896 185.99414C -20.106524 171.88779 -20.106524 171.88779 -15.075928 167.25586C -11.695588 164.61458 -8.089427 162.36804 -4.43042 160.13623C 12.696689 149.04587 22.0107 128.36986 27.025635 109.4043C 32.48683 83.63059 26.228737 54.318954 12.63501 31.955078C 9.553593 27.312565 6.270772 23.004963 2.5686035 18.841797C 1.9163378 18.09543 1.2640723 17.349062 0.592041 16.580078C -15.170547 -0.3337094 -37.92334 -9.798405 -60.868668 -10.668274C -69.02641 -10.82379 -76.69489 -9.930309 -84.630615 -8.091797z" stroke="none"  fill="#000000" fill-rule="nonzero" />
			<path transform="matrix(1 0 0 1 242 142)" d="M0 0C 2 2 2 2 2.6875 4.6875C 1.7391174 9.25698 -0.35377792 10.455303 -4.0742188 13.09375C -9.950323 16.92224 -15.904138 20.535446 -22 24C -22.687876 24.395903 -23.375751 24.791807 -24.084473 25.199707C -47.245956 38.4082 -72.773964 46.52739 -98.02818 54.72505C -102.77438 56.26692 -107.5102 57.83661 -112.23929 59.430206C -115.366425 60.48252 -118.497154 61.523838 -121.6286 62.563232C -123.11253 63.058186 -124.59504 63.557457 -126.07599 64.06128C -128.12743 64.75792 -130.1838 65.43746 -132.24219 66.11328C -133.40605 66.50298 -134.56992 66.89268 -135.76904 67.29419C -139.29549 68.06455 -141.54845 68.02861 -145 67C -147 64 -147 64 -147.1875 61.0625C -146 58 -146 58 -144.38962 56.979874C -137.56195 54.08986 -130.58192 51.828884 -123.50781 49.621094C -122.19506 49.205524 -120.88255 48.789173 -119.57028 48.372086C -114.06087 46.622116 -108.54822 44.882584 -103.03174 43.15503C -78.66175 35.515 -54.5295 27.206617 -32 15C -31.083235 14.50355 -31.083235 14.50355 -30.14795 13.99707C -23.140652 10.174243 -16.41762 6.09132 -9.988281 1.3476562C -6.3816953 -1.0968862 -4.0859413 -1.152445 0 0z" stroke="none"  fill="#000000" fill-rule="nonzero" />
			<path transform="matrix(1 0 0 1 220 97)" d="M0 0C 1.3993502 2.7987003 1.2526541 4.904988 1 8C -1.3222824 11.060319 -4.339572 12.23753 -7.8007812 13.75C -8.989619 14.270298 -10.178457 14.790596 -11.40332 15.32666C -12.705937 15.885473 -14.009011 16.443224 -15.3125 17C -15.97826 17.286232 -16.64402 17.572464 -17.329956 17.86737C -47.535397 30.824495 -78.88743 41.423973 -110.5625 50.1875C -111.59601 50.47915 -112.62951 50.7708 -113.694336 51.07129C -119.621796 52.65523 -124.859665 53.57048 -131 53C -133.15503 49.767464 -133.46857 48.74849 -133 45C -130.50314 41.492233 -127.19574 41.03704 -123.16016 40.046875C -121.71204 39.679974 -120.26414 39.312256 -118.81641 38.943848C -118.04442 38.75075 -117.27243 38.55765 -116.47705 38.358704C -82.25432 29.731218 -48.345284 18.183992 -16.319336 3.293457C -15.697152 3.0109158 -15.074967 2.7283742 -14.433929 2.437271C -12.686053 1.6431427 -10.945085 0.83386004 -9.20459 0.02368164C -5.6189117 -1.1217357 -3.5863678 -1.0652087 0 0z" stroke="none"  fill="#000000" fill-rule="nonzero" />
			<path transform="matrix(1 0 0 1 364 42)" d="M0 0C 1.6601562 1.1601562 1.6601562 1.1601562 3 3C 4.5688725 18.762264 -1.7009237 37.243893 -6.125 52.1875C -6.3662963 53.006214 -6.6075926 53.824932 -6.856201 54.668457C -8.117742 58.75283 -9.335819 62.58715 -12 66C -15.5625 66.4375 -15.5625 66.4375 -19 66C -21 64 -21 64 -21.324219 61.04297C -21.16924 55.89693 -19.37658 51.172817 -17.8125 46.3125C -14.527788 35.68868 -12.364056 25.063578 -10.598877 14.091064C -10.415427 12.962732 -10.231977 11.834399 -10.042969 10.671875C -9.888523 9.672529 -9.734077 8.673183 -9.574951 7.6435547C -9.021945 5.1008997 -8.368536 3.205547 -7 1C -4.4513283 -0.27433583 -2.8259456 -0.27570203 0 0z" stroke="none"  fill="#000000" fill-rule="nonzero" />
			<path transform="matrix(1 0 0 1 413 69)" d="M0 0C 1.8125 1.125 1.8125 1.125 3 3C 3.625 5.75 3.625 5.75 3 9C -0.91244394 14.384453 -6.8287835 18.342325 -11.96875 22.472656C -15.2989235 25.249231 -18.463106 28.160639 -21.625 31.125C -35.086407 43.64563 -35.086407 43.64563 -40.375 44.625C -43 44 -43 44 -44.9375 42.875C -46 41 -46 41 -45.933594 38.246094C -44.72108 34.0302 -42.351288 31.949759 -39.125 29.1875C -38.53783 28.66543 -37.950665 28.14336 -37.345703 27.605469C -32.95212 23.729618 -28.414984 20.034803 -23.84375 16.371094C -19.866816 13.0551605 -16.092896 9.535731 -12.326172 5.984375C -5.255535 -0.6569419 -5.255535 -0.6569419 0 0z" stroke="none"  fill="#000000" fill-rule="nonzero" />
			<path transform="matrix(1 0 0 1 319 70)" d="M0 0C 2.0578048 5.2970448 3.8112302 10.551198 5.2617188 16.042969C 5.457238 16.774456 5.6527576 17.505943 5.8542023 18.259598C 6.2620645 19.79092 6.6678214 21.322803 7.071533 22.855225C 7.689212 25.193981 8.317886 27.529602 8.947266 29.865234C 9.344418 31.361801 9.740925 32.85854 10.136719 34.35547C 10.324172 35.048275 10.511624 35.74108 10.704758 36.45488C 11.638307 40.03846 12.32421 43.29299 12 47C 10.875 48.8125 10.875 48.8125 9 50C 6 50.4375 6 50.4375 3 50C -0.50354695 46.578503 -1.3020657 42.098053 -2.4804688 37.507812C -2.6981843 36.684254 -2.9159 35.86069 -3.140213 35.012177C -3.5974882 33.273434 -4.050247 31.533499 -4.4987793 29.79248C -5.184094 27.138193 -5.886823 24.48897 -6.591797 21.839844C -7.034905 20.146109 -7.476996 18.452106 -7.9179688 16.757812C -8.1272955 15.970125 -8.336622 15.182437 -8.552292 14.37088C -11.164453 4.123413 -11.164453 4.123413 -8.9375 0.0625C -5.8753033 -1.6167691 -3.3062906 -0.6862112 0 0z" stroke="none"  fill="#000000" fill-rule="nonzero" />
			<path transform="matrix(1 0 0 1 202 211)" d="M0 0C 1.9375 1.0625 1.9375 1.0625 3 3C 3.1875 6.328125 3.1875 6.328125 2 10C -1.0582398 12.178489 -4.4337573 13.384613 -7.9375 14.6875C -8.8508005 15.051661 -9.764102 15.41582 -10.705078 15.791016C -12.543995 16.521116 -14.388329 17.23772 -16.237793 17.940674C -19.790775 19.303268 -23.300697 20.764748 -26.810791 22.233887C -30.130606 23.395655 -32.519352 23.507595 -36 23C -38.315674 19.52649 -38.595875 18.086006 -38 14C -32.459633 10.069491 -25.810041 7.8729677 -19.5625 5.3125C -18.347559 4.801387 -17.132618 4.2902737 -15.880859 3.7636719C -14.70459 3.280918 -13.52832 2.7981641 -12.316406 2.3007812C -11.248499 1.8590356 -10.180591 1.4172901 -9.080322 0.9621582C -5.8478627 -0.04752109 -3.364738 -0.25942862 0 0z" stroke="none"  fill="#000000" fill-rule="nonzero" />
		</g>
	</g>
</g>
</svg>
