<?xml version="1.0" encoding="UTF-8"?>
<svg xmlns="http://www.w3.org/2000/svg" xmlns:xlink="http://www.w3.org/1999/xlink" width="26px" height="26px" viewBox="0 0 26 26" version="1.1">
<g id="surface1">
<path style=" stroke:none;fill-rule:nonzero;fill:rgb(0%,0%,0%);fill-opacity:1;" d="M 6.507812 4.257812 C 7.097656 4.226562 7.632812 4.4375 8.074219 4.824219 C 8.367188 5.15625 8.617188 5.519531 8.867188 5.882812 C 8.9375 5.988281 9.007812 6.089844 9.082031 6.191406 C 9.132812 6.269531 9.132812 6.269531 9.1875 6.347656 C 9.320312 6.539062 9.453125 6.726562 9.585938 6.917969 C 10.617188 8.378906 10.617188 8.378906 10.511719 9.394531 C 10.46875 9.597656 10.40625 9.769531 10.308594 9.953125 C 10.285156 9.996094 10.265625 10.035156 10.242188 10.082031 C 9.929688 10.59375 9.378906 10.898438 8.886719 11.222656 C 8.96875 11.472656 9.113281 11.65625 9.269531 11.863281 C 9.296875 11.898438 9.324219 11.9375 9.355469 11.972656 C 9.582031 12.269531 9.8125 12.5625 10.054688 12.847656 C 10.078125 12.875 10.101562 12.90625 10.128906 12.933594 C 10.519531 13.398438 10.519531 13.398438 10.941406 13.835938 C 11.027344 13.921875 11.101562 14.007812 11.179688 14.101562 C 11.519531 14.492188 11.890625 14.859375 12.285156 15.191406 C 12.390625 15.285156 12.496094 15.382812 12.601562 15.480469 C 12.921875 15.78125 13.261719 16.058594 13.609375 16.324219 C 13.722656 16.410156 13.832031 16.496094 13.941406 16.582031 C 14.019531 16.644531 14.097656 16.703125 14.175781 16.765625 C 14.210938 16.792969 14.246094 16.820312 14.285156 16.851562 C 14.320312 16.878906 14.355469 16.90625 14.390625 16.933594 C 14.421875 16.957031 14.453125 16.980469 14.484375 17.003906 C 14.582031 17.066406 14.664062 17.089844 14.777344 17.113281 C 14.792969 17.089844 14.808594 17.066406 14.828125 17.039062 C 15.683594 15.789062 15.683594 15.789062 16.496094 15.507812 C 17.40625 15.355469 18.007812 15.652344 18.734375 16.167969 C 18.777344 16.199219 18.816406 16.226562 18.863281 16.257812 C 18.992188 16.351562 19.121094 16.441406 19.25 16.53125 C 19.460938 16.679688 19.671875 16.828125 19.882812 16.976562 C 20.007812 17.0625 20.128906 17.144531 20.25 17.230469 C 21.511719 18.109375 21.511719 18.109375 21.710938 18.953125 C 21.828125 19.648438 21.617188 20.234375 21.238281 20.816406 C 20.613281 21.6875 19.777344 22.183594 18.738281 22.394531 C 15.902344 22.835938 13.046875 21.351562 10.828125 19.734375 C 10.527344 19.515625 10.238281 19.285156 9.953125 19.042969 C 9.902344 19 9.847656 18.957031 9.796875 18.914062 C 8.917969 18.179688 8.011719 17.394531 7.316406 16.484375 C 7.222656 16.363281 7.121094 16.25 7.019531 16.136719 C 6.8125 15.90625 6.625 15.667969 6.441406 15.421875 C 6.390625 15.355469 6.390625 15.355469 6.339844 15.289062 C 5.792969 14.546875 5.300781 13.769531 4.875 12.949219 C 4.851562 12.902344 4.828125 12.855469 4.800781 12.808594 C 3.808594 10.882812 3.132812 8.628906 3.816406 6.492188 C 4.171875 5.558594 4.839844 4.882812 5.734375 4.449219 C 5.992188 4.339844 6.230469 4.28125 6.507812 4.257812 Z M 5.003906 6.109375 C 4.328125 7.121094 4.296875 8.347656 4.519531 9.507812 C 4.742188 10.589844 5.167969 11.621094 5.6875 12.59375 C 5.707031 12.628906 5.726562 12.667969 5.746094 12.707031 C 6.371094 13.875 7.140625 14.957031 8.023438 15.945312 C 8.0625 15.988281 8.101562 16.035156 8.140625 16.078125 C 8.253906 16.203125 8.367188 16.328125 8.480469 16.453125 C 8.527344 16.503906 8.574219 16.558594 8.621094 16.609375 C 8.953125 16.980469 9.304688 17.320312 9.675781 17.652344 C 9.742188 17.714844 9.8125 17.78125 9.878906 17.84375 C 10.195312 18.136719 10.53125 18.402344 10.871094 18.664062 C 10.9375 18.714844 11 18.761719 11.0625 18.8125 C 13.085938 20.386719 15.742188 21.835938 18.390625 21.570312 C 19.222656 21.453125 19.972656 21.070312 20.480469 20.398438 C 20.71875 20.027344 20.898438 19.640625 20.871094 19.195312 C 20.753906 18.660156 20.332031 18.335938 19.898438 18.046875 C 19.804688 17.984375 19.714844 17.921875 19.625 17.859375 C 19.578125 17.828125 19.535156 17.796875 19.488281 17.765625 C 19.308594 17.644531 19.128906 17.519531 18.953125 17.394531 C 18.605469 17.148438 18.257812 16.90625 17.902344 16.667969 C 17.875 16.648438 17.84375 16.628906 17.8125 16.605469 C 17.460938 16.371094 17.175781 16.296875 16.757812 16.351562 C 16.226562 16.523438 15.960938 16.921875 15.664062 17.367188 C 15.59375 17.46875 15.523438 17.570312 15.453125 17.675781 C 15.410156 17.738281 15.367188 17.808594 15.328125 17.875 C 15.246094 18.007812 15.183594 18.105469 15.039062 18.171875 C 14.796875 18.21875 14.640625 18.160156 14.433594 18.03125 C 14.402344 18.007812 14.371094 17.984375 14.335938 17.960938 C 14.300781 17.9375 14.265625 17.914062 14.230469 17.890625 C 13.890625 17.664062 13.570312 17.417969 13.253906 17.164062 C 13.207031 17.125 13.160156 17.089844 13.113281 17.050781 C 12.972656 16.9375 12.832031 16.820312 12.695312 16.707031 C 12.644531 16.664062 12.59375 16.621094 12.539062 16.578125 C 11.882812 16.03125 11.269531 15.4375 10.664062 14.835938 C 10.640625 14.808594 10.613281 14.785156 10.589844 14.757812 C 10.296875 14.46875 10.015625 14.175781 9.75 13.863281 C 9.703125 13.808594 9.652344 13.753906 9.605469 13.699219 C 9.078125 13.09375 8.589844 12.460938 8.136719 11.800781 C 8.113281 11.761719 8.085938 11.726562 8.058594 11.6875 C 7.910156 11.464844 7.824219 11.292969 7.820312 11.019531 C 7.886719 10.84375 7.972656 10.765625 8.125 10.664062 C 8.167969 10.636719 8.210938 10.609375 8.25 10.582031 C 8.292969 10.554688 8.335938 10.523438 8.382812 10.496094 C 9.160156 10.023438 9.160156 10.023438 9.648438 9.292969 C 9.726562 8.5625 9.371094 8.125 8.964844 7.5625 C 8.726562 7.234375 8.496094 6.898438 8.265625 6.566406 C 8.097656 6.324219 7.929688 6.082031 7.757812 5.839844 C 7.722656 5.796875 7.691406 5.75 7.660156 5.707031 C 7.386719 5.351562 7.078125 5.171875 6.640625 5.101562 C 5.988281 5.191406 5.398438 5.597656 5.003906 6.109375 Z M 5.003906 6.109375 "/>
<path style=" stroke:none;fill-rule:nonzero;fill:rgb(0%,0%,0%);fill-opacity:1;" d="M 15.757812 4.109375 C 17.164062 4.644531 18.363281 5.414062 19.449219 6.449219 C 19.492188 6.488281 19.535156 6.53125 19.582031 6.570312 C 20.59375 7.546875 21.332031 8.804688 21.835938 10.105469 C 21.851562 10.140625 21.863281 10.179688 21.878906 10.21875 C 22.222656 11.125 22.550781 12.273438 22.445312 13.253906 C 22.371094 13.414062 22.371094 13.414062 22.242188 13.507812 C 22.082031 13.542969 21.941406 13.554688 21.785156 13.507812 C 21.609375 13.324219 21.554688 13.195312 21.527344 12.945312 C 21.519531 12.855469 21.519531 12.855469 21.507812 12.761719 C 21.5 12.699219 21.492188 12.632812 21.488281 12.566406 C 21.214844 10.359375 20.144531 8.152344 18.40625 6.714844 C 18.316406 6.644531 18.222656 6.570312 18.128906 6.5 C 18.082031 6.460938 18.03125 6.421875 17.980469 6.378906 C 16.589844 5.257812 14.804688 4.582031 13.023438 4.460938 C 12.789062 4.441406 12.652344 4.386719 12.492188 4.214844 C 12.445312 4.058594 12.457031 3.917969 12.492188 3.757812 C 12.984375 3.085938 15.132812 3.878906 15.757812 4.109375 Z M 15.757812 4.109375 "/>
<path style=" stroke:none;fill-rule:nonzero;fill:rgb(0%,0%,0%);fill-opacity:1;" d="M 13.363281 6.019531 C 15.007812 6.253906 16.46875 6.984375 17.671875 8.125 C 17.714844 8.167969 17.761719 8.207031 17.808594 8.25 C 19.164062 9.546875 19.976562 11.460938 20.03125 13.328125 C 20 13.496094 19.941406 13.554688 19.804688 13.660156 C 19.464844 13.707031 19.464844 13.707031 19.261719 13.5625 C 19.097656 13.34375 19.089844 13.152344 19.070312 12.886719 C 19.011719 12.375 18.910156 11.910156 18.738281 11.425781 C 18.726562 11.390625 18.714844 11.355469 18.699219 11.316406 C 18.421875 10.546875 18.007812 9.863281 17.46875 9.242188 C 17.433594 9.199219 17.398438 9.160156 17.363281 9.117188 C 16.203125 7.769531 14.460938 7 12.703125 6.871094 C 12.59375 6.855469 12.59375 6.855469 12.433594 6.78125 C 12.3125 6.617188 12.3125 6.507812 12.3125 6.308594 C 12.433594 5.824219 12.988281 5.96875 13.363281 6.019531 Z M 13.363281 6.019531 "/>
<path style=" stroke:none;fill-rule:nonzero;fill:rgb(0%,0%,0%);fill-opacity:1;" d="M 13 8.429688 C 14.191406 8.609375 15.195312 9.109375 16.046875 9.953125 C 16.082031 9.984375 16.121094 10.019531 16.15625 10.050781 C 16.984375 10.816406 17.496094 12.042969 17.582031 13.15625 C 17.582031 13.207031 17.585938 13.257812 17.585938 13.3125 C 17.589844 13.386719 17.589844 13.386719 17.59375 13.46875 C 17.566406 13.648438 17.511719 13.703125 17.367188 13.8125 C 17.265625 13.835938 17.265625 13.835938 17.164062 13.835938 C 17.128906 13.835938 17.097656 13.835938 17.0625 13.835938 C 16.925781 13.804688 16.859375 13.753906 16.757812 13.660156 C 16.71875 13.539062 16.71875 13.539062 16.695312 13.394531 C 16.6875 13.34375 16.675781 13.289062 16.667969 13.238281 C 16.652344 13.152344 16.652344 13.152344 16.640625 13.066406 C 16.417969 11.847656 15.832031 10.792969 14.800781 10.078125 C 14.085938 9.601562 13.3125 9.371094 12.460938 9.277344 C 12.304688 9.230469 12.265625 9.179688 12.1875 9.039062 C 12.164062 8.9375 12.164062 8.9375 12.164062 8.835938 C 12.164062 8.800781 12.164062 8.769531 12.164062 8.734375 C 12.265625 8.324219 12.671875 8.394531 13 8.429688 Z M 13 8.429688 "/>
</g>
</svg>
