<?xml version="1.0" encoding="UTF-8"?>
<svg xmlns="http://www.w3.org/2000/svg" xmlns:xlink="http://www.w3.org/1999/xlink" width="26px" height="26px" viewBox="0 0 26 26" version="1.1">
<g id="surface1">
<path style=" stroke:none;fill-rule:nonzero;fill:rgb(0%,0%,0%);fill-opacity:1;" d="M 9.6875 1.253906 C 9.769531 1.253906 9.847656 1.253906 9.929688 1.253906 C 10.144531 1.253906 10.363281 1.253906 10.578125 1.253906 C 10.757812 1.253906 10.941406 1.253906 11.121094 1.253906 C 11.546875 1.253906 11.976562 1.253906 12.402344 1.253906 C 12.84375 1.253906 13.28125 1.253906 13.722656 1.253906 C 14.101562 1.25 14.480469 1.25 14.859375 1.25 C 15.085938 1.25 15.308594 1.25 15.535156 1.25 C 15.746094 1.25 15.960938 1.25 16.171875 1.25 C 16.25 1.25 16.328125 1.25 16.40625 1.25 C 17.1875 1.246094 17.855469 1.335938 18.449219 1.882812 C 18.9375 2.402344 19.113281 2.980469 19.105469 3.675781 C 19.101562 3.742188 19.101562 3.742188 19.101562 3.808594 C 19.101562 3.945312 19.101562 4.082031 19.101562 4.21875 C 19.097656 4.3125 19.097656 4.40625 19.097656 4.496094 C 19.097656 4.726562 19.097656 4.953125 19.09375 5.179688 C 19.125 5.179688 19.152344 5.179688 19.183594 5.179688 C 19.914062 5.175781 20.644531 5.171875 21.375 5.167969 C 21.726562 5.167969 22.082031 5.167969 22.433594 5.164062 C 22.773438 5.164062 23.113281 5.160156 23.457031 5.160156 C 23.585938 5.160156 23.714844 5.160156 23.84375 5.160156 C 24.027344 5.15625 24.210938 5.15625 24.390625 5.15625 C 24.445312 5.15625 24.5 5.15625 24.554688 5.15625 C 24.972656 5.15625 25.257812 5.265625 25.605469 5.492188 C 26.070312 5.976562 26.035156 6.511719 26.03125 7.144531 C 26.03125 7.246094 26.035156 7.347656 26.035156 7.449219 C 26.035156 7.722656 26.035156 7.996094 26.035156 8.269531 C 26.035156 8.558594 26.035156 8.847656 26.035156 9.132812 C 26.035156 9.617188 26.035156 10.097656 26.03125 10.582031 C 26.03125 11.136719 26.03125 11.695312 26.035156 12.253906 C 26.035156 12.730469 26.035156 13.210938 26.035156 13.691406 C 26.035156 13.976562 26.035156 14.261719 26.035156 14.546875 C 26.035156 14.816406 26.035156 15.085938 26.035156 15.351562 C 26.03125 15.453125 26.03125 15.550781 26.035156 15.648438 C 26.039062 16.699219 26.039062 16.699219 25.652344 17.109375 C 25.484375 17.273438 25.367188 17.324219 25.136719 17.367188 C 25.136719 17.398438 25.136719 17.433594 25.136719 17.464844 C 25.140625 18.261719 25.144531 19.054688 25.148438 19.847656 C 25.148438 20.234375 25.148438 20.617188 25.152344 21 C 25.152344 21.335938 25.15625 21.671875 25.15625 22.007812 C 25.15625 22.183594 25.15625 22.359375 25.15625 22.539062 C 25.160156 22.734375 25.160156 22.933594 25.160156 23.132812 C 25.160156 23.21875 25.160156 23.21875 25.160156 23.308594 C 25.160156 23.757812 25.054688 24.101562 24.730469 24.425781 C 24.378906 24.65625 24.121094 24.738281 23.699219 24.738281 C 23.664062 24.738281 23.625 24.738281 23.585938 24.738281 C 23.460938 24.738281 23.335938 24.738281 23.207031 24.738281 C 23.117188 24.738281 23.027344 24.738281 22.933594 24.738281 C 22.683594 24.738281 22.433594 24.738281 22.183594 24.738281 C 21.910156 24.738281 21.640625 24.738281 21.371094 24.742188 C 20.71875 24.742188 20.0625 24.742188 19.410156 24.742188 C 19.101562 24.742188 18.796875 24.742188 18.488281 24.742188 C 17.464844 24.742188 16.441406 24.746094 15.417969 24.746094 C 15.152344 24.746094 14.890625 24.746094 14.625 24.746094 C 14.558594 24.746094 14.492188 24.746094 14.421875 24.746094 C 13.355469 24.746094 12.285156 24.746094 11.21875 24.75 C 10.121094 24.75 9.023438 24.75 7.925781 24.75 C 7.308594 24.75 6.695312 24.753906 6.078125 24.753906 C 5.554688 24.753906 5.027344 24.753906 4.503906 24.753906 C 4.234375 24.753906 3.96875 24.753906 3.699219 24.753906 C 3.457031 24.757812 3.210938 24.757812 2.964844 24.753906 C 2.875 24.753906 2.789062 24.753906 2.699219 24.757812 C 2.167969 24.757812 1.742188 24.726562 1.277344 24.4375 C 1.015625 24.167969 0.855469 23.882812 0.855469 23.503906 C 0.855469 23.449219 0.855469 23.394531 0.855469 23.339844 C 0.855469 23.28125 0.855469 23.222656 0.859375 23.160156 C 0.859375 23.097656 0.859375 23.035156 0.859375 22.972656 C 0.859375 22.800781 0.859375 22.628906 0.859375 22.457031 C 0.859375 22.277344 0.859375 22.101562 0.859375 21.921875 C 0.859375 21.582031 0.859375 21.242188 0.859375 20.90625 C 0.859375 20.519531 0.859375 20.132812 0.859375 19.746094 C 0.859375 18.953125 0.863281 18.160156 0.863281 17.367188 C 0.824219 17.359375 0.785156 17.351562 0.742188 17.34375 C 0.492188 17.289062 0.335938 17.117188 0.183594 16.917969 C -0.078125 16.476562 -0.0351562 16 -0.03125 15.503906 C -0.03125 15.402344 -0.0351562 15.300781 -0.0351562 15.199219 C -0.0351562 14.925781 -0.0351562 14.652344 -0.0351562 14.378906 C -0.0351562 14.089844 -0.0351562 13.800781 -0.0351562 13.515625 C -0.0351562 13.03125 -0.0351562 12.550781 -0.03125 12.066406 C -0.03125 11.511719 -0.03125 10.953125 -0.0351562 10.394531 C -0.0351562 9.917969 -0.0351562 9.4375 -0.0351562 8.957031 C -0.0351562 8.671875 -0.0351562 8.386719 -0.0351562 8.101562 C -0.0351562 7.832031 -0.0351562 7.5625 -0.0351562 7.296875 C -0.03125 7.195312 -0.03125 7.097656 -0.0351562 7 C -0.0390625 5.957031 -0.0390625 5.957031 0.339844 5.539062 C 0.703125 5.1875 1.121094 5.15625 1.601562 5.164062 C 1.6875 5.164062 1.6875 5.164062 1.777344 5.164062 C 1.964844 5.164062 2.15625 5.164062 2.34375 5.164062 C 2.476562 5.164062 2.605469 5.164062 2.738281 5.164062 C 3.046875 5.164062 3.359375 5.167969 3.667969 5.167969 C 4.023438 5.171875 4.375 5.171875 4.726562 5.171875 C 5.453125 5.171875 6.179688 5.175781 6.90625 5.179688 C 6.90625 5.09375 6.90625 5.09375 6.902344 5.007812 C 6.902344 4.792969 6.898438 4.582031 6.898438 4.367188 C 6.898438 4.273438 6.894531 4.183594 6.894531 4.089844 C 6.882812 3.257812 6.929688 2.558594 7.519531 1.914062 C 8.15625 1.3125 8.847656 1.253906 9.6875 1.253906 Z M 8.09375 2.636719 C 7.753906 3.136719 7.796875 3.699219 7.808594 4.273438 C 7.808594 4.363281 7.808594 4.449219 7.808594 4.539062 C 7.8125 4.753906 7.816406 4.964844 7.820312 5.179688 C 8.089844 5.179688 8.355469 5.179688 8.632812 5.179688 C 8.636719 5.050781 8.636719 4.921875 8.640625 4.785156 C 8.644531 4.660156 8.644531 4.535156 8.648438 4.410156 C 8.652344 4.324219 8.652344 4.234375 8.652344 4.148438 C 8.65625 4.023438 8.660156 3.898438 8.664062 3.769531 C 8.664062 3.714844 8.664062 3.714844 8.664062 3.652344 C 8.675781 3.285156 8.675781 3.285156 8.785156 3.148438 C 8.984375 3.050781 9.148438 3.035156 9.367188 3.035156 C 9.46875 3.035156 9.46875 3.035156 9.570312 3.03125 C 9.644531 3.035156 9.71875 3.035156 9.792969 3.035156 C 9.867188 3.035156 9.945312 3.035156 10.023438 3.03125 C 10.234375 3.03125 10.445312 3.03125 10.65625 3.035156 C 10.875 3.035156 11.097656 3.035156 11.316406 3.03125 C 11.6875 3.03125 12.058594 3.03125 12.429688 3.035156 C 12.855469 3.035156 13.285156 3.035156 13.714844 3.035156 C 14.082031 3.03125 14.449219 3.03125 14.816406 3.03125 C 15.035156 3.035156 15.253906 3.035156 15.476562 3.03125 C 15.679688 3.03125 15.886719 3.03125 16.09375 3.035156 C 16.167969 3.035156 16.246094 3.035156 16.320312 3.035156 C 16.425781 3.03125 16.527344 3.035156 16.632812 3.035156 C 16.6875 3.035156 16.746094 3.035156 16.808594 3.035156 C 16.964844 3.046875 17.074219 3.078125 17.214844 3.148438 C 17.355469 3.328125 17.335938 3.554688 17.335938 3.769531 C 17.339844 3.832031 17.339844 3.832031 17.339844 3.894531 C 17.34375 4.023438 17.347656 4.148438 17.347656 4.277344 C 17.351562 4.367188 17.351562 4.453125 17.355469 4.539062 C 17.359375 4.753906 17.363281 4.964844 17.367188 5.179688 C 17.636719 5.179688 17.902344 5.179688 18.179688 5.179688 C 18.183594 4.921875 18.1875 4.664062 18.191406 4.40625 C 18.191406 4.320312 18.191406 4.234375 18.195312 4.144531 C 18.214844 3.285156 18.214844 3.285156 17.820312 2.542969 C 17.371094 2.15625 16.824219 2.152344 16.261719 2.15625 C 16.183594 2.15625 16.105469 2.15625 16.023438 2.15625 C 15.8125 2.15625 15.597656 2.15625 15.382812 2.15625 C 15.160156 2.15625 14.933594 2.15625 14.710938 2.15625 C 14.332031 2.15625 13.957031 2.15625 13.578125 2.15625 C 13.144531 2.160156 12.710938 2.15625 12.277344 2.15625 C 11.902344 2.15625 11.527344 2.15625 11.152344 2.15625 C 10.929688 2.15625 10.707031 2.15625 10.484375 2.15625 C 10.273438 2.15625 10.066406 2.15625 9.855469 2.15625 C 9.777344 2.15625 9.703125 2.15625 9.625 2.15625 C 9.0625 2.152344 8.492188 2.1875 8.09375 2.636719 Z M 9.546875 3.910156 C 9.546875 4.328125 9.546875 4.746094 9.546875 5.179688 C 11.824219 5.179688 14.105469 5.179688 16.453125 5.179688 C 16.453125 4.761719 16.453125 4.339844 16.453125 3.910156 C 14.175781 3.910156 11.894531 3.910156 9.546875 3.910156 Z M 0.914062 6.347656 C 0.890625 6.492188 0.878906 6.609375 0.882812 6.753906 C 0.882812 6.796875 0.882812 6.835938 0.882812 6.878906 C 0.878906 7.015625 0.882812 7.152344 0.882812 7.285156 C 0.882812 7.382812 0.882812 7.484375 0.882812 7.582031 C 0.882812 7.84375 0.882812 8.109375 0.882812 8.375 C 0.882812 8.652344 0.882812 8.933594 0.882812 9.210938 C 0.882812 9.675781 0.886719 10.140625 0.886719 10.609375 C 0.886719 11.148438 0.890625 11.6875 0.886719 12.226562 C 0.886719 12.746094 0.890625 13.261719 0.890625 13.78125 C 0.890625 14.003906 0.890625 14.222656 0.890625 14.445312 C 0.890625 14.703125 0.890625 14.964844 0.890625 15.222656 C 0.890625 15.320312 0.894531 15.414062 0.890625 15.511719 C 0.890625 15.640625 0.894531 15.769531 0.894531 15.898438 C 0.894531 15.9375 0.894531 15.976562 0.894531 16.015625 C 0.894531 16.167969 0.90625 16.285156 0.972656 16.421875 C 1.105469 16.539062 1.222656 16.554688 1.398438 16.585938 C 1.449219 16.59375 1.449219 16.59375 1.5 16.601562 C 1.609375 16.621094 1.71875 16.640625 1.828125 16.65625 C 1.863281 16.660156 1.898438 16.667969 1.9375 16.671875 C 2.210938 16.714844 2.484375 16.753906 2.761719 16.789062 C 2.851562 16.800781 2.941406 16.816406 3.035156 16.828125 C 3.277344 16.863281 3.523438 16.894531 3.765625 16.929688 C 4.023438 16.964844 4.28125 17 4.535156 17.035156 C 4.964844 17.09375 5.394531 17.152344 5.824219 17.210938 C 6.324219 17.277344 6.820312 17.347656 7.316406 17.414062 C 7.847656 17.488281 8.378906 17.558594 8.90625 17.632812 C 9.0625 17.652344 9.214844 17.675781 9.367188 17.695312 C 9.605469 17.726562 9.84375 17.761719 10.082031 17.792969 C 10.171875 17.804688 10.257812 17.816406 10.347656 17.828125 C 10.46875 17.847656 10.585938 17.863281 10.707031 17.878906 C 10.742188 17.882812 10.777344 17.886719 10.8125 17.894531 C 10.949219 17.910156 11.082031 17.925781 11.222656 17.925781 C 11.230469 17.832031 11.230469 17.832031 11.234375 17.734375 C 11.320312 16.6875 11.320312 16.6875 11.683594 16.359375 C 12.089844 16.0625 12.503906 16.03125 12.992188 16.03125 C 13.039062 16.03125 13.089844 16.03125 13.136719 16.027344 C 13.5625 16.027344 14.003906 16.097656 14.34375 16.371094 C 14.703125 16.746094 14.722656 17.21875 14.761719 17.710938 C 14.765625 17.75 14.765625 17.789062 14.769531 17.832031 C 14.773438 17.863281 14.773438 17.894531 14.777344 17.925781 C 15.855469 17.800781 16.933594 17.65625 18.011719 17.507812 C 18.101562 17.496094 18.195312 17.484375 18.289062 17.46875 C 18.722656 17.410156 19.15625 17.351562 19.59375 17.292969 C 20.089844 17.222656 20.589844 17.15625 21.089844 17.085938 C 21.476562 17.035156 21.867188 16.980469 22.253906 16.929688 C 22.484375 16.894531 22.714844 16.863281 22.949219 16.832031 C 23.164062 16.804688 23.378906 16.773438 23.597656 16.746094 C 23.675781 16.734375 23.753906 16.722656 23.832031 16.710938 C 24.421875 16.632812 24.421875 16.632812 24.984375 16.453125 C 25.109375 16.265625 25.101562 16.125 25.101562 15.90625 C 25.101562 15.867188 25.101562 15.824219 25.101562 15.785156 C 25.101562 15.648438 25.101562 15.511719 25.101562 15.375 C 25.101562 15.277344 25.101562 15.179688 25.101562 15.082031 C 25.105469 14.816406 25.105469 14.550781 25.105469 14.285156 C 25.105469 14.117188 25.105469 13.953125 25.105469 13.785156 C 25.105469 13.207031 25.105469 12.628906 25.109375 12.050781 C 25.109375 11.511719 25.109375 10.972656 25.113281 10.433594 C 25.113281 9.96875 25.113281 9.507812 25.113281 9.042969 C 25.113281 8.765625 25.113281 8.488281 25.117188 8.214844 C 25.117188 7.953125 25.117188 7.691406 25.117188 7.433594 C 25.117188 7.335938 25.117188 7.242188 25.117188 7.144531 C 25.117188 7.015625 25.117188 6.886719 25.117188 6.753906 C 25.117188 6.699219 25.117188 6.699219 25.121094 6.640625 C 25.117188 6.457031 25.09375 6.359375 24.980469 6.210938 C 24.796875 6.066406 24.660156 6.058594 24.433594 6.0625 C 24.390625 6.0625 24.351562 6.0625 24.308594 6.0625 C 24.175781 6.058594 24.039062 6.0625 23.90625 6.0625 C 23.808594 6.0625 23.710938 6.0625 23.613281 6.058594 C 23.34375 6.058594 23.074219 6.058594 22.804688 6.0625 C 22.515625 6.0625 22.226562 6.058594 21.9375 6.058594 C 21.367188 6.058594 20.800781 6.058594 20.234375 6.058594 C 19.773438 6.058594 19.3125 6.058594 18.851562 6.058594 C 18.785156 6.058594 18.71875 6.058594 18.652344 6.058594 C 18.519531 6.058594 18.386719 6.058594 18.25 6.058594 C 17.039062 6.058594 15.824219 6.058594 14.609375 6.0625 C 13.5 6.0625 12.390625 6.0625 11.285156 6.0625 C 10.039062 6.058594 8.792969 6.058594 7.546875 6.058594 C 7.414062 6.058594 7.28125 6.058594 7.148438 6.058594 C 7.085938 6.058594 7.019531 6.058594 6.953125 6.058594 C 6.492188 6.058594 6.03125 6.058594 5.570312 6.058594 C 5.007812 6.058594 4.445312 6.058594 3.886719 6.058594 C 3.597656 6.0625 3.3125 6.0625 3.027344 6.058594 C 2.765625 6.058594 2.5 6.058594 2.238281 6.0625 C 2.144531 6.0625 2.050781 6.0625 1.953125 6.0625 C 1.824219 6.058594 1.695312 6.0625 1.566406 6.0625 C 1.53125 6.0625 1.492188 6.0625 1.457031 6.058594 C 1.191406 6.066406 1.074219 6.136719 0.914062 6.347656 Z M 12.238281 17.0625 C 12.148438 17.238281 12.125 17.386719 12.121094 17.582031 C 12.121094 17.632812 12.121094 17.6875 12.121094 17.738281 C 12.121094 17.796875 12.121094 17.851562 12.121094 17.90625 C 12.121094 17.964844 12.121094 18.023438 12.121094 18.082031 C 12.121094 18.203125 12.121094 18.324219 12.121094 18.445312 C 12.121094 18.632812 12.121094 18.816406 12.117188 19.003906 C 12.117188 19.121094 12.117188 19.242188 12.117188 19.359375 C 12.117188 19.414062 12.117188 19.46875 12.117188 19.527344 C 12.117188 19.808594 12.125 20.019531 12.289062 20.261719 C 12.503906 20.398438 12.75 20.378906 12.996094 20.378906 C 13.058594 20.378906 13.058594 20.378906 13.117188 20.382812 C 13.367188 20.382812 13.550781 20.359375 13.761719 20.210938 C 13.851562 20.035156 13.875 19.886719 13.878906 19.691406 C 13.878906 19.640625 13.878906 19.585938 13.878906 19.535156 C 13.878906 19.476562 13.878906 19.421875 13.878906 19.367188 C 13.878906 19.277344 13.878906 19.277344 13.878906 19.191406 C 13.878906 19.070312 13.878906 18.949219 13.878906 18.828125 C 13.878906 18.640625 13.878906 18.457031 13.882812 18.269531 C 13.882812 18.152344 13.882812 18.03125 13.882812 17.914062 C 13.882812 17.859375 13.882812 17.804688 13.882812 17.746094 C 13.882812 17.464844 13.875 17.253906 13.710938 17.011719 C 13.496094 16.875 13.25 16.894531 13.003906 16.894531 C 12.941406 16.894531 12.941406 16.894531 12.882812 16.890625 C 12.632812 16.890625 12.449219 16.914062 12.238281 17.0625 Z M 1.777344 17.570312 C 1.773438 18.347656 1.769531 19.125 1.765625 19.902344 C 1.765625 20.265625 1.765625 20.625 1.761719 20.988281 C 1.761719 21.335938 1.757812 21.683594 1.757812 22.03125 C 1.757812 22.164062 1.757812 22.296875 1.757812 22.429688 C 1.753906 22.617188 1.753906 22.804688 1.753906 22.988281 C 1.753906 23.042969 1.753906 23.101562 1.753906 23.15625 C 1.746094 23.445312 1.746094 23.445312 1.875 23.695312 C 2.070312 23.824219 2.195312 23.824219 2.433594 23.824219 C 2.488281 23.824219 2.488281 23.824219 2.546875 23.824219 C 2.671875 23.824219 2.796875 23.824219 2.921875 23.824219 C 3.011719 23.824219 3.101562 23.824219 3.191406 23.824219 C 3.441406 23.824219 3.6875 23.824219 3.9375 23.824219 C 4.203125 23.824219 4.472656 23.824219 4.738281 23.824219 C 5.324219 23.824219 5.910156 23.828125 6.492188 23.828125 C 6.859375 23.828125 7.222656 23.828125 7.589844 23.828125 C 8.597656 23.828125 9.609375 23.828125 10.617188 23.828125 C 10.714844 23.828125 10.714844 23.828125 10.8125 23.828125 C 10.910156 23.828125 10.910156 23.828125 11.011719 23.828125 C 11.140625 23.828125 11.273438 23.828125 11.40625 23.828125 C 11.503906 23.828125 11.503906 23.828125 11.601562 23.828125 C 12.660156 23.828125 13.714844 23.828125 14.773438 23.832031 C 15.855469 23.832031 16.941406 23.832031 18.023438 23.832031 C 18.632812 23.832031 19.242188 23.832031 19.851562 23.835938 C 20.367188 23.835938 20.886719 23.835938 21.40625 23.835938 C 21.671875 23.835938 21.933594 23.835938 22.199219 23.835938 C 22.441406 23.835938 22.683594 23.835938 22.925781 23.835938 C 23.011719 23.835938 23.101562 23.835938 23.1875 23.835938 C 23.308594 23.835938 23.425781 23.835938 23.546875 23.835938 C 23.613281 23.835938 23.679688 23.835938 23.746094 23.835938 C 23.929688 23.816406 24.027344 23.773438 24.171875 23.664062 C 24.234375 23.539062 24.230469 23.460938 24.230469 23.324219 C 24.230469 23.273438 24.230469 23.222656 24.230469 23.167969 C 24.230469 23.113281 24.230469 23.058594 24.226562 23 C 24.226562 22.914062 24.226562 22.914062 24.226562 22.824219 C 24.226562 22.628906 24.226562 22.4375 24.226562 22.242188 C 24.226562 22.109375 24.226562 21.972656 24.226562 21.839844 C 24.226562 21.523438 24.226562 21.203125 24.226562 20.886719 C 24.226562 20.523438 24.226562 20.164062 24.226562 19.800781 C 24.226562 19.058594 24.222656 18.3125 24.222656 17.570312 C 23.699219 17.601562 23.183594 17.660156 22.660156 17.734375 C 22.578125 17.746094 22.496094 17.757812 22.414062 17.765625 C 22.191406 17.796875 21.96875 17.828125 21.746094 17.859375 C 21.515625 17.894531 21.28125 17.925781 21.046875 17.957031 C 20.65625 18.011719 20.265625 18.066406 19.875 18.121094 C 19.320312 18.199219 18.769531 18.273438 18.21875 18.351562 C 17.789062 18.410156 17.359375 18.46875 16.929688 18.53125 C 16.886719 18.535156 16.839844 18.542969 16.792969 18.550781 C 16.527344 18.585938 16.265625 18.625 16 18.660156 C 15.921875 18.671875 15.839844 18.683594 15.761719 18.691406 C 15.652344 18.707031 15.542969 18.722656 15.433594 18.738281 C 15.371094 18.746094 15.3125 18.757812 15.25 18.765625 C 15.089844 18.789062 14.933594 18.8125 14.777344 18.839844 C 14.777344 18.871094 14.773438 18.90625 14.773438 18.941406 C 14.769531 19.089844 14.765625 19.242188 14.757812 19.394531 C 14.757812 19.445312 14.753906 19.5 14.753906 19.550781 C 14.734375 20.035156 14.699219 20.492188 14.371094 20.871094 C 13.976562 21.210938 13.5 21.242188 13 21.238281 C 12.9375 21.238281 12.9375 21.238281 12.871094 21.242188 C 12.414062 21.238281 11.984375 21.175781 11.628906 20.871094 C 11.269531 20.453125 11.257812 19.925781 11.242188 19.394531 C 11.238281 19.339844 11.238281 19.289062 11.234375 19.234375 C 11.230469 19.101562 11.226562 18.972656 11.222656 18.839844 C 9.003906 18.523438 6.785156 18.210938 4.566406 17.90625 C 4.351562 17.878906 4.136719 17.847656 3.921875 17.816406 C 3.667969 17.78125 3.410156 17.746094 3.15625 17.710938 C 3.0625 17.699219 2.96875 17.6875 2.875 17.675781 C 2.746094 17.65625 2.621094 17.640625 2.492188 17.621094 C 2.453125 17.617188 2.417969 17.609375 2.378906 17.605469 C 2.175781 17.578125 1.980469 17.566406 1.777344 17.570312 Z M 1.777344 17.570312 "/>
</g>
</svg>
