<?xml version="1.0" encoding="UTF-8"?>
<svg xmlns="http://www.w3.org/2000/svg" xmlns:xlink="http://www.w3.org/1999/xlink" width="26px" height="26px" viewBox="0 0 26 26" version="1.1">
<g id="surface1">
<path style=" stroke:none;fill-rule:nonzero;fill:rgb(0%,0%,0%);fill-opacity:1;" d="M 15.765625 2.09375 C 15.859375 2.175781 15.953125 2.253906 16.046875 2.335938 C 16.128906 2.40625 16.210938 2.476562 16.292969 2.542969 C 16.347656 2.589844 16.40625 2.640625 16.460938 2.6875 C 16.632812 2.832031 16.808594 2.976562 16.984375 3.121094 C 17.230469 3.320312 17.472656 3.527344 17.710938 3.734375 C 17.9375 3.929688 18.164062 4.117188 18.394531 4.300781 C 18.582031 4.457031 18.765625 4.613281 18.949219 4.769531 C 19.121094 4.914062 19.296875 5.058594 19.472656 5.203125 C 19.71875 5.402344 19.960938 5.609375 20.203125 5.816406 C 20.378906 5.972656 20.5625 6.121094 20.742188 6.273438 C 20.957031 6.445312 21.167969 6.625 21.378906 6.804688 C 21.632812 7.023438 21.890625 7.238281 22.152344 7.449219 C 22.339844 7.605469 22.523438 7.761719 22.707031 7.917969 C 22.878906 8.0625 23.054688 8.207031 23.230469 8.351562 C 23.476562 8.550781 23.71875 8.757812 23.957031 8.964844 C 24.140625 9.125 24.328125 9.277344 24.515625 9.429688 C 25.207031 9.996094 25.839844 10.546875 26 11.476562 C 26.085938 12.378906 25.90625 13.105469 25.332031 13.820312 C 24.855469 14.339844 24.25 14.582031 23.5625 14.675781 C 23.5625 14.738281 23.5625 14.738281 23.5625 14.800781 C 23.558594 15.792969 23.558594 16.789062 23.554688 17.78125 C 23.550781 18.261719 23.550781 18.746094 23.546875 19.226562 C 23.546875 19.644531 23.546875 20.0625 23.542969 20.484375 C 23.542969 20.707031 23.542969 20.925781 23.542969 21.148438 C 23.542969 21.359375 23.542969 21.566406 23.539062 21.777344 C 23.539062 21.851562 23.539062 21.929688 23.539062 22.003906 C 23.542969 22.851562 23.308594 23.53125 22.726562 24.152344 C 22.109375 24.730469 21.402344 24.890625 20.585938 24.886719 C 20.527344 24.886719 20.46875 24.886719 20.40625 24.886719 C 20.214844 24.886719 20.019531 24.886719 19.824219 24.886719 C 19.6875 24.886719 19.554688 24.886719 19.417969 24.886719 C 19.101562 24.886719 18.78125 24.886719 18.460938 24.886719 C 18.097656 24.886719 17.734375 24.886719 17.371094 24.886719 C 16.625 24.886719 15.878906 24.882812 15.132812 24.882812 C 15.132812 24.832031 15.132812 24.832031 15.132812 24.78125 C 15.128906 23.957031 15.125 23.132812 15.117188 22.308594 C 15.117188 21.910156 15.113281 21.511719 15.113281 21.113281 C 15.109375 20.765625 15.109375 20.421875 15.105469 20.074219 C 15.105469 19.890625 15.101562 19.707031 15.101562 19.523438 C 15.101562 19.316406 15.101562 19.109375 15.097656 18.90625 C 15.097656 18.84375 15.097656 18.785156 15.097656 18.722656 C 15.089844 18.007812 14.964844 17.324219 14.460938 16.785156 C 13.96875 16.359375 13.433594 16.210938 12.792969 16.230469 C 12.261719 16.277344 11.777344 16.53125 11.414062 16.921875 C 10.972656 17.476562 10.902344 18.070312 10.902344 18.753906 C 10.902344 18.820312 10.902344 18.886719 10.898438 18.957031 C 10.898438 19.136719 10.898438 19.316406 10.898438 19.5 C 10.898438 19.6875 10.894531 19.878906 10.894531 20.066406 C 10.890625 20.425781 10.890625 20.785156 10.886719 21.140625 C 10.886719 21.550781 10.882812 21.957031 10.882812 22.367188 C 10.875 23.203125 10.871094 24.042969 10.867188 24.882812 C 10.101562 24.886719 9.332031 24.890625 8.566406 24.894531 C 8.210938 24.894531 7.851562 24.894531 7.496094 24.898438 C 7.152344 24.902344 6.808594 24.902344 6.464844 24.902344 C 6.332031 24.902344 6.203125 24.902344 6.070312 24.902344 C 4.9375 24.914062 4.027344 24.855469 3.164062 24.042969 C 2.582031 23.425781 2.457031 22.703125 2.464844 21.882812 C 2.464844 21.804688 2.464844 21.722656 2.464844 21.644531 C 2.464844 21.429688 2.464844 21.214844 2.46875 21 C 2.46875 20.777344 2.46875 20.554688 2.46875 20.328125 C 2.46875 19.902344 2.472656 19.480469 2.472656 19.054688 C 2.476562 18.570312 2.476562 18.089844 2.476562 17.605469 C 2.480469 16.613281 2.484375 15.617188 2.488281 14.625 C 2.433594 14.625 2.375 14.625 2.320312 14.625 C 1.71875 14.621094 1.140625 14.277344 0.714844 13.875 C 0.0898438 13.191406 -0.0390625 12.441406 -0.0078125 11.554688 C 0.0429688 10.8125 0.539062 10.226562 1.066406 9.75 C 1.203125 9.636719 1.339844 9.523438 1.476562 9.414062 C 1.636719 9.28125 1.796875 9.148438 1.957031 9.015625 C 2.15625 8.84375 2.355469 8.675781 2.5625 8.507812 C 2.777344 8.332031 2.988281 8.152344 3.199219 7.972656 C 3.453125 7.753906 3.710938 7.539062 3.972656 7.328125 C 4.128906 7.195312 4.289062 7.0625 4.445312 6.929688 C 4.644531 6.761719 4.84375 6.59375 5.050781 6.425781 C 5.296875 6.226562 5.539062 6.019531 5.78125 5.8125 C 6.003906 5.621094 6.230469 5.433594 6.457031 5.246094 C 6.625 5.109375 6.792969 4.96875 6.957031 4.824219 C 7.210938 4.605469 7.46875 4.390625 7.730469 4.179688 C 7.886719 4.046875 8.046875 3.914062 8.203125 3.78125 C 8.402344 3.613281 8.601562 3.445312 8.808594 3.277344 C 8.988281 3.128906 9.167969 2.980469 9.347656 2.828125 C 11.21875 1.207031 13.609375 0.347656 15.765625 2.09375 Z M 10.664062 3.148438 C 10.609375 3.195312 10.550781 3.246094 10.496094 3.292969 C 10.371094 3.398438 10.25 3.503906 10.128906 3.609375 C 9.933594 3.777344 9.734375 3.9375 9.535156 4.097656 C 9.265625 4.320312 9 4.546875 8.734375 4.773438 C 8.378906 5.074219 8.019531 5.375 7.660156 5.671875 C 7.472656 5.824219 7.285156 5.984375 7.101562 6.140625 C 6.929688 6.285156 6.753906 6.429688 6.578125 6.574219 C 6.332031 6.773438 6.089844 6.980469 5.847656 7.1875 C 5.625 7.378906 5.398438 7.566406 5.171875 7.753906 C 5.003906 7.890625 4.835938 8.03125 4.671875 8.175781 C 4.417969 8.394531 4.160156 8.609375 3.898438 8.820312 C 3.742188 8.953125 3.582031 9.085938 3.429688 9.21875 C 3.226562 9.386719 3.027344 9.554688 2.820312 9.722656 C 2.542969 9.949219 2.265625 10.183594 1.992188 10.421875 C 1.898438 10.503906 1.800781 10.585938 1.703125 10.667969 C 1.363281 10.945312 1.09375 11.300781 1.050781 11.75 C 1.042969 12.308594 1.121094 12.742188 1.511719 13.160156 C 1.863281 13.453125 2.28125 13.617188 2.734375 13.613281 C 2.804688 13.613281 2.804688 13.613281 2.871094 13.613281 C 2.917969 13.613281 2.964844 13.613281 3.011719 13.613281 C 3.058594 13.613281 3.105469 13.613281 3.15625 13.613281 C 3.273438 13.609375 3.386719 13.609375 3.503906 13.609375 C 3.503906 13.675781 3.503906 13.675781 3.503906 13.742188 C 3.5 14.808594 3.5 15.871094 3.5 16.9375 C 3.5 17.453125 3.496094 17.96875 3.496094 18.484375 C 3.496094 18.933594 3.496094 19.382812 3.496094 19.828125 C 3.496094 20.066406 3.492188 20.304688 3.492188 20.542969 C 3.492188 20.765625 3.492188 20.992188 3.492188 21.214844 C 3.492188 21.296875 3.492188 21.378906 3.492188 21.460938 C 3.488281 22.160156 3.496094 22.804688 3.996094 23.351562 C 4.417969 23.738281 4.84375 23.824219 5.402344 23.820312 C 5.449219 23.820312 5.496094 23.820312 5.546875 23.820312 C 5.703125 23.820312 5.859375 23.820312 6.015625 23.820312 C 6.125 23.820312 6.234375 23.820312 6.34375 23.820312 C 6.628906 23.820312 6.917969 23.820312 7.203125 23.820312 C 7.496094 23.820312 7.789062 23.820312 8.082031 23.820312 C 8.652344 23.816406 9.226562 23.816406 9.800781 23.816406 C 9.800781 23.773438 9.800781 23.773438 9.800781 23.726562 C 9.804688 23.007812 9.808594 22.289062 9.8125 21.570312 C 9.816406 21.222656 9.816406 20.875 9.820312 20.523438 C 9.820312 20.1875 9.820312 19.851562 9.824219 19.515625 C 9.824219 19.390625 9.824219 19.261719 9.824219 19.132812 C 9.832031 17.523438 9.832031 17.523438 10.179688 16.851562 C 10.199219 16.820312 10.214844 16.785156 10.234375 16.75 C 10.636719 16.015625 11.273438 15.539062 12.0625 15.269531 C 12.894531 15.035156 13.828125 15.136719 14.582031 15.546875 C 15.394531 16.054688 15.871094 16.75 16.097656 17.671875 C 16.152344 18.015625 16.15625 18.355469 16.160156 18.703125 C 16.160156 18.757812 16.160156 18.8125 16.160156 18.871094 C 16.160156 19.054688 16.164062 19.234375 16.164062 19.417969 C 16.164062 19.542969 16.167969 19.671875 16.167969 19.796875 C 16.171875 20.097656 16.171875 20.394531 16.175781 20.695312 C 16.175781 21.070312 16.179688 21.441406 16.183594 21.816406 C 16.1875 22.484375 16.195312 23.148438 16.199219 23.816406 C 16.824219 23.820312 17.453125 23.824219 18.078125 23.824219 C 18.371094 23.824219 18.660156 23.824219 18.953125 23.828125 C 19.234375 23.828125 19.515625 23.832031 19.796875 23.832031 C 19.902344 23.832031 20.011719 23.832031 20.117188 23.832031 C 20.269531 23.832031 20.417969 23.832031 20.570312 23.832031 C 20.613281 23.835938 20.65625 23.835938 20.703125 23.835938 C 21.230469 23.832031 21.660156 23.683594 22.039062 23.308594 C 22.328125 22.953125 22.457031 22.632812 22.457031 22.171875 C 22.457031 22.132812 22.457031 22.097656 22.457031 22.058594 C 22.457031 21.9375 22.457031 21.8125 22.457031 21.691406 C 22.457031 21.605469 22.457031 21.515625 22.457031 21.425781 C 22.457031 21.1875 22.457031 20.949219 22.457031 20.710938 C 22.453125 20.460938 22.453125 20.210938 22.453125 19.960938 C 22.453125 19.488281 22.453125 19.015625 22.453125 18.542969 C 22.453125 18.007812 22.449219 17.46875 22.449219 16.929688 C 22.449219 15.824219 22.449219 14.714844 22.445312 13.609375 C 22.476562 13.609375 22.503906 13.609375 22.535156 13.613281 C 22.671875 13.613281 22.808594 13.617188 22.945312 13.617188 C 22.992188 13.621094 23.039062 13.621094 23.089844 13.621094 C 23.617188 13.628906 24.070312 13.496094 24.476562 13.152344 C 24.8125 12.796875 24.941406 12.453125 24.960938 11.972656 C 24.949219 11.449219 24.773438 11.09375 24.398438 10.734375 C 24.257812 10.605469 24.117188 10.480469 23.96875 10.359375 C 23.921875 10.320312 23.875 10.28125 23.824219 10.238281 C 23.734375 10.164062 23.644531 10.089844 23.554688 10.019531 C 23.394531 9.890625 23.238281 9.757812 23.078125 9.625 C 22.878906 9.453125 22.679688 9.285156 22.472656 9.117188 C 22.226562 8.917969 21.984375 8.710938 21.742188 8.503906 C 21.566406 8.347656 21.382812 8.199219 21.203125 8.046875 C 20.957031 7.847656 20.714844 7.644531 20.472656 7.4375 C 20.296875 7.28125 20.113281 7.132812 19.929688 6.984375 C 19.71875 6.808594 19.507812 6.628906 19.296875 6.449219 C 19.042969 6.230469 18.785156 6.015625 18.523438 5.804688 C 18.226562 5.558594 17.933594 5.308594 17.636719 5.058594 C 17.355469 4.816406 17.074219 4.578125 16.785156 4.34375 C 16.570312 4.167969 16.359375 3.988281 16.148438 3.808594 C 14.453125 2.351562 12.582031 1.449219 10.664062 3.148438 Z M 10.664062 3.148438 "/>
</g>
</svg>
