<svg width="38" height="38" viewBox="0 0 38 38" fill="none" xmlns="http://www.w3.org/2000/svg">
<path d="M12.3463 6.87327C12.374 6.84565 12.4043 6.81527 12.432 6.78764C13.5921 5.61097 13.5921 5.61098 14.2108 5.24085C14.2494 5.21875 14.2826 5.19665 14.3213 5.17456C15.4095 4.51717 16.5807 4.08075 17.8375 3.91226C17.8955 3.90398 17.9479 3.89569 18.0087 3.89016C20.3372 3.60014 22.6574 4.2741 24.5274 5.68003C24.6958 5.80985 24.8505 5.95348 25.0024 6.1054C25.0301 6.13302 25.0577 6.16064 25.0853 6.18826C26.5161 7.5859 27.5823 9.22109 27.8916 11.2374C27.8999 11.301 27.911 11.3617 27.922 11.428C28.0436 12.2235 28.0739 13.0273 27.9634 13.8228C27.9524 13.9112 27.9524 13.9112 27.9414 13.9996C27.748 15.585 27.0851 17.0435 26.1322 18.3113C26.1045 18.3499 26.0742 18.3859 26.0465 18.4245C24.8367 19.9492 23.1214 20.9243 21.1935 21.1563C19.3042 21.322 17.448 20.8193 15.9675 19.604C14.6113 18.4577 13.6363 16.8473 13.4429 15.063C13.4346 14.9498 13.4291 14.8337 13.4208 14.7205C13.4153 14.6653 13.4125 14.6073 13.4098 14.5492C13.291 12.845 13.8489 11.0386 14.9648 9.72932C16.0669 8.52779 17.2795 7.76268 18.9313 7.68534C20.2902 7.65219 21.5636 8.16871 22.5469 9.09679C23.5551 10.0829 24.0688 11.2595 24.1572 12.6738C24.16 12.7152 24.1628 12.7566 24.1683 12.8008C24.2125 14.0659 23.6352 15.3226 22.8065 16.2452C22.163 16.9219 21.4227 17.2699 20.4836 17.3141C20.4311 17.3114 20.3731 17.3086 20.3151 17.3059C20.2764 17.3059 20.2405 17.3086 20.2018 17.3086C19.9035 17.3031 19.6494 17.2368 19.3677 17.1374C19.3373 17.1236 19.3042 17.1125 19.271 17.1015C18.5363 16.8197 17.8899 16.1955 17.5419 15.4884C17.1939 14.6266 17.1884 13.7979 17.5226 12.9279C17.7435 12.4307 18.0722 11.9142 18.575 11.6601C18.923 11.5275 19.2158 11.5496 19.561 11.6683C19.8704 11.8341 20.0914 12.0661 20.2129 12.3975C20.3151 12.7539 20.3013 13.0605 20.1356 13.3919C20.0472 13.519 19.9533 13.6405 19.8566 13.7648C19.735 13.9637 19.6909 14.1128 19.735 14.3448C19.829 14.5382 19.9229 14.6708 20.0996 14.7923C20.3427 14.8697 20.5057 14.8724 20.746 14.7923C21.2818 14.3946 21.5746 13.7869 21.6796 13.1406C21.7735 12.4169 21.5636 11.754 21.141 11.1656C20.6272 10.5745 20.0223 10.2403 19.2406 10.1381C18.5446 10.105 17.8292 10.3563 17.3071 10.8176C16.4509 11.6186 15.9123 12.7262 15.8432 13.8946C15.8073 14.9801 16.1084 16.1817 16.8459 17.0075C17.8237 18.0516 18.8954 18.6924 20.3648 18.7422C21.5774 18.7615 22.7596 18.2809 23.6297 17.444C24.7594 16.3032 25.4085 14.8752 25.5576 13.2842C25.5632 13.2345 25.5687 13.1848 25.5714 13.1323C25.6736 11.9528 25.3284 10.7292 24.7787 9.69341C24.7483 9.63541 24.7483 9.63541 24.7179 9.5774C23.9224 8.10795 22.511 7.039 20.9283 6.5501C20.5112 6.4258 20.1024 6.34294 19.6688 6.31808C19.6135 6.31256 19.561 6.3098 19.5058 6.30427C17.9093 6.19379 16.1995 6.67163 14.9648 7.71848C13.2496 9.25147 12.1392 11.2844 11.99 13.6046C11.9513 14.3504 11.9734 15.0685 12.1281 15.7977C12.1336 15.8364 12.1447 15.8751 12.153 15.9165C12.5286 17.6456 13.4125 19.1151 14.6665 20.3525C14.708 20.3939 14.7522 20.4381 14.7936 20.4796C14.9013 20.5818 15.0035 20.684 15.1085 20.7889C14.951 20.7585 14.8737 20.7309 14.7411 20.6536C14.7024 20.6315 14.6693 20.6094 14.6334 20.59C14.5947 20.5679 14.556 20.5458 14.5174 20.5237C14.4594 20.4878 14.4594 20.4878 14.4014 20.4519C14.1113 20.2779 13.8324 20.0984 13.5644 19.8912C13.512 19.8498 13.512 19.8498 13.4567 19.8056C11.6282 18.3251 10.4101 16.1679 10.1532 13.8228C10.1477 13.7676 10.1477 13.7676 10.1421 13.7123C9.88803 11.3148 10.6228 8.61894 12.3463 6.87327Z" fill="black"/>
<path d="M17.993 22.6441C18.1201 22.6662 18.2444 22.6965 18.3714 22.7242C18.6918 22.8015 19.0095 22.8485 19.3437 22.8678C19.4652 22.8954 19.4652 22.8954 19.526 22.9728C19.5785 23.0915 19.5868 23.1716 19.584 23.3015C19.5868 23.3484 19.5868 23.3926 19.5868 23.4423C19.5868 23.492 19.5868 23.5418 19.5868 23.5915C19.5868 23.6467 19.5868 23.702 19.5868 23.7572C19.5895 23.9367 19.5868 24.1163 19.5868 24.2986C19.5868 24.4256 19.584 24.5555 19.5868 24.6853C19.5868 25.0002 19.5868 25.315 19.5868 25.6299C19.5868 25.9945 19.5868 26.3591 19.584 26.7265C19.5868 27.3811 19.5868 28.033 19.584 28.6876C19.584 29.3229 19.584 29.9582 19.584 30.588C19.5868 31.2813 19.5868 31.9718 19.584 32.6596C19.584 32.7369 19.584 32.8087 19.584 32.8805C19.584 32.9192 19.5813 32.9551 19.584 32.991C19.5813 33.2479 19.584 33.5048 19.584 33.7589C19.584 34.1014 19.584 34.4439 19.5813 34.7892C19.5813 34.9162 19.5813 35.0433 19.584 35.1676C19.584 35.3388 19.5813 35.5129 19.5813 35.6841C19.5813 35.7338 19.584 35.7863 19.584 35.836C19.5813 36.1979 19.573 36.4658 19.305 36.7337C19.1144 36.9133 18.9791 36.9989 18.7112 37.0072C18.4847 36.9685 18.3604 36.905 18.1947 36.7448C18.1588 36.7144 18.1228 36.6785 18.0842 36.6453C17.866 36.3056 17.9102 35.8305 17.9129 35.4355C17.9102 35.383 17.9102 35.3278 17.9102 35.2725C17.9102 35.0902 17.9102 34.9079 17.9102 34.7256C17.9129 34.5958 17.9129 34.4632 17.9102 34.3334C17.9129 34.0158 17.9102 33.6981 17.9129 33.3805C17.9102 33.1236 17.9102 32.864 17.9129 32.6071C17.9129 32.5518 17.9129 32.5518 17.9102 32.4938C17.9129 32.4193 17.9102 32.3447 17.9129 32.2701C17.9102 31.5713 17.9129 30.8725 17.9129 30.1709C17.9102 29.5715 17.9129 28.9721 17.9129 28.37C17.9102 27.6712 17.9102 26.9751 17.9129 26.2763C17.9102 26.2017 17.9129 26.1271 17.9102 26.0525C17.9129 26.0166 17.9102 25.9807 17.9102 25.9421C17.9129 25.6852 17.9129 25.4255 17.9102 25.1687C17.9102 24.8206 17.9129 24.4754 17.9129 24.1273C17.9129 24.0003 17.9129 23.8732 17.9129 23.7462C17.9102 23.5721 17.9129 23.3981 17.9129 23.2269C17.9102 23.1744 17.9129 23.1219 17.9102 23.0694C17.9102 23.0252 17.9129 22.9783 17.9102 22.9313C17.9102 22.8706 17.9102 22.8706 17.9102 22.8098C17.9212 22.7159 17.9212 22.7159 17.993 22.6441Z" fill="black"/>
</svg>
