<svg width="16" height="16" viewBox="0 0 16 16" fill="none" xmlns="http://www.w3.org/2000/svg">
<path fill-rule="evenodd" clip-rule="evenodd" d="M4.6631 1H11.3381C13.3757 1.01541 15.0151 2.67943 15.0001 4.717V9.23C15.0073 10.2087 14.6254 11.1501 13.9384 11.8472C13.2515 12.5442 12.3158 12.9399 11.3371 12.947H4.6631L1.0001 15V4.717C0.992913 3.73834 1.3748 2.79692 2.06175 2.09984C2.74871 1.40276 3.68444 1.00713 4.6631 1Z" stroke="black" stroke-width="1.5" stroke-linecap="round" stroke-linejoin="round"/>
<path fill-rule="evenodd" clip-rule="evenodd" d="M3.00012 7C3.00012 6.44772 3.44784 6 4.00012 6C4.55241 6 5.00012 6.44772 5.00012 7C5.00012 7.55228 4.55241 8 4.00012 8C3.73491 8 3.48055 7.89464 3.29302 7.70711C3.10548 7.51957 3.00012 7.26522 3.00012 7Z" stroke="black" stroke-linecap="round" stroke-linejoin="round"/>
<path fill-rule="evenodd" clip-rule="evenodd" d="M7.00012 7C7.00012 6.44772 7.44784 6 8.00012 6C8.55241 6 9.00012 6.44772 9.00012 7C9.00012 7.55228 8.55241 8 8.00012 8C7.44784 8 7.00012 7.55228 7.00012 7Z" stroke="black" stroke-linecap="round" stroke-linejoin="round"/>
<path fill-rule="evenodd" clip-rule="evenodd" d="M11.0001 7C11.0001 6.44772 11.4478 6 12.0001 6C12.5524 6 13.0001 6.44772 13.0001 7C13.0001 7.55228 12.5524 8 12.0001 8C11.4478 8 11.0001 7.55228 11.0001 7Z" stroke="black" stroke-linecap="round" stroke-linejoin="round"/>
</svg>
