<?xml version="1.0" encoding="UTF-8"?>
<svg xmlns="http://www.w3.org/2000/svg" xmlns:xlink="http://www.w3.org/1999/xlink" width="26px" height="26px" viewBox="0 0 26 26" version="1.1">
<g id="surface1">
<path style=" stroke:none;fill-rule:nonzero;fill:rgb(0%,0%,0%);fill-opacity:1;" d="M 13.667969 5.464844 C 14.09375 5.78125 14.285156 6.25 14.5 6.722656 C 14.558594 6.851562 14.621094 6.980469 14.679688 7.109375 C 14.863281 7.5 15.042969 7.890625 15.214844 8.285156 C 15.242188 8.347656 15.269531 8.40625 15.296875 8.46875 C 15.34375 8.582031 15.390625 8.695312 15.4375 8.804688 C 15.460938 8.855469 15.484375 8.90625 15.503906 8.957031 C 15.523438 8.996094 15.539062 9.039062 15.558594 9.082031 C 15.75 9.335938 16.039062 9.355469 16.332031 9.394531 C 16.433594 9.40625 16.53125 9.417969 16.632812 9.429688 C 16.738281 9.441406 16.847656 9.453125 16.953125 9.46875 C 17.183594 9.496094 17.410156 9.519531 17.640625 9.546875 C 17.90625 9.578125 18.171875 9.609375 18.433594 9.640625 C 18.539062 9.652344 18.644531 9.664062 18.75 9.675781 C 19.320312 9.742188 19.765625 9.820312 20.160156 10.257812 C 20.375 10.53125 20.398438 10.816406 20.386719 11.160156 C 20.300781 11.769531 19.835938 12.128906 19.394531 12.507812 C 19.269531 12.621094 19.152344 12.738281 19.03125 12.859375 C 18.90625 12.984375 18.769531 13.101562 18.636719 13.214844 C 18.539062 13.300781 18.449219 13.390625 18.359375 13.484375 C 18.234375 13.605469 18.109375 13.722656 17.976562 13.839844 C 17.941406 13.867188 17.910156 13.898438 17.875 13.925781 C 17.808594 13.988281 17.738281 14.046875 17.667969 14.105469 C 17.636719 14.132812 17.605469 14.164062 17.570312 14.195312 C 17.539062 14.21875 17.511719 14.246094 17.480469 14.269531 C 17.285156 14.578125 17.484375 15.085938 17.550781 15.414062 C 17.566406 15.480469 17.578125 15.546875 17.59375 15.613281 C 17.648438 15.898438 17.707031 16.179688 17.765625 16.460938 C 17.804688 16.636719 17.839844 16.8125 17.875 16.984375 C 17.894531 17.082031 17.914062 17.179688 17.933594 17.273438 C 18.171875 18.457031 18.171875 18.457031 17.894531 18.90625 C 17.636719 19.222656 17.378906 19.40625 16.96875 19.472656 C 16.441406 19.5 16.078125 19.292969 15.640625 19.042969 C 15.550781 18.992188 15.460938 18.941406 15.371094 18.890625 C 15.175781 18.78125 14.980469 18.671875 14.785156 18.558594 C 14.402344 18.34375 14.019531 18.136719 13.632812 17.929688 C 13.582031 17.902344 13.535156 17.875 13.484375 17.847656 C 13.441406 17.824219 13.398438 17.800781 13.351562 17.777344 C 13.253906 17.722656 13.253906 17.722656 13.203125 17.671875 C 12.839844 17.621094 12.597656 17.785156 12.289062 17.960938 C 12.234375 17.992188 12.183594 18.019531 12.128906 18.050781 C 11.960938 18.144531 11.796875 18.238281 11.628906 18.332031 C 11.523438 18.390625 11.421875 18.449219 11.316406 18.507812 C 11.167969 18.59375 11.019531 18.675781 10.871094 18.761719 C 9.542969 19.511719 9.542969 19.511719 8.886719 19.449219 C 8.507812 19.339844 8.269531 19.128906 8.074219 18.789062 C 7.835938 18.304688 8 17.710938 8.105469 17.210938 C 8.121094 17.140625 8.132812 17.074219 8.148438 17.007812 C 8.191406 16.792969 8.234375 16.582031 8.277344 16.371094 C 8.328125 16.125 8.378906 15.878906 8.429688 15.632812 C 8.449219 15.53125 8.46875 15.433594 8.488281 15.335938 C 8.625 14.789062 8.625 14.789062 8.519531 14.253906 C 8.488281 14.226562 8.460938 14.199219 8.429688 14.171875 C 8.398438 14.140625 8.363281 14.109375 8.332031 14.078125 C 8.296875 14.046875 8.261719 14.015625 8.226562 13.984375 C 8.195312 13.953125 8.160156 13.921875 8.125 13.890625 C 7.929688 13.703125 7.722656 13.523438 7.515625 13.34375 C 7.300781 13.15625 7.097656 12.957031 6.890625 12.761719 C 6.710938 12.589844 6.53125 12.421875 6.34375 12.257812 C 5.679688 11.667969 5.679688 11.667969 5.617188 11.175781 C 5.601562 10.78125 5.664062 10.460938 5.925781 10.15625 C 6.328125 9.773438 6.816406 9.722656 7.351562 9.664062 C 7.460938 9.652344 7.566406 9.640625 7.675781 9.625 C 7.941406 9.59375 8.207031 9.5625 8.476562 9.535156 C 8.703125 9.507812 8.929688 9.480469 9.15625 9.453125 C 9.261719 9.441406 9.367188 9.429688 9.472656 9.417969 C 9.9375 9.375 9.9375 9.375 10.359375 9.191406 C 10.453125 9.070312 10.511719 8.941406 10.570312 8.804688 C 10.589844 8.765625 10.605469 8.726562 10.625 8.6875 C 10.683594 8.558594 10.742188 8.433594 10.796875 8.304688 C 10.835938 8.21875 10.878906 8.132812 10.917969 8.042969 C 11.089844 7.675781 11.253906 7.304688 11.421875 6.933594 C 11.464844 6.832031 11.511719 6.734375 11.554688 6.636719 C 11.609375 6.515625 11.664062 6.398438 11.714844 6.277344 C 11.890625 5.890625 12.082031 5.617188 12.445312 5.386719 C 12.808594 5.253906 13.335938 5.246094 13.667969 5.464844 Z M 12.695312 6.296875 C 12.601562 6.4375 12.601562 6.4375 12.519531 6.617188 C 12.503906 6.652344 12.488281 6.6875 12.472656 6.722656 C 12.410156 6.851562 12.347656 6.980469 12.289062 7.109375 C 12.25 7.195312 12.207031 7.285156 12.167969 7.371094 C 12.089844 7.53125 12.015625 7.695312 11.941406 7.855469 C 11.917969 7.90625 11.917969 7.90625 11.894531 7.953125 C 11.738281 8.289062 11.582031 8.621094 11.433594 8.957031 C 11.410156 9.003906 11.390625 9.050781 11.367188 9.101562 C 11.328125 9.191406 11.289062 9.277344 11.25 9.367188 C 11.097656 9.699219 10.878906 9.972656 10.527344 10.105469 C 10.347656 10.160156 10.183594 10.183594 9.996094 10.207031 C 9.945312 10.210938 9.945312 10.210938 9.890625 10.21875 C 9.816406 10.226562 9.742188 10.238281 9.667969 10.246094 C 9.546875 10.257812 9.429688 10.273438 9.308594 10.289062 C 8.972656 10.328125 8.632812 10.367188 8.296875 10.410156 C 8.089844 10.433594 7.882812 10.457031 7.675781 10.484375 C 7.597656 10.492188 7.519531 10.5 7.4375 10.511719 C 7.328125 10.523438 7.21875 10.535156 7.109375 10.550781 C 7.046875 10.558594 6.984375 10.566406 6.917969 10.570312 C 6.730469 10.617188 6.636719 10.679688 6.5 10.816406 C 6.453125 10.988281 6.453125 10.988281 6.5 11.171875 C 6.59375 11.308594 6.707031 11.414062 6.832031 11.527344 C 6.863281 11.558594 6.894531 11.589844 6.929688 11.621094 C 7.125 11.808594 7.324219 11.988281 7.53125 12.160156 C 7.652344 12.269531 7.765625 12.382812 7.878906 12.5 C 7.96875 12.589844 8.0625 12.675781 8.160156 12.757812 C 8.382812 12.953125 8.605469 13.148438 8.824219 13.347656 C 8.878906 13.398438 8.878906 13.398438 8.9375 13.449219 C 9.222656 13.714844 9.421875 13.960938 9.457031 14.359375 C 9.460938 14.792969 9.398438 15.195312 9.3125 15.621094 C 9.296875 15.6875 9.285156 15.757812 9.269531 15.824219 C 9.234375 16.003906 9.199219 16.183594 9.164062 16.363281 C 9.105469 16.648438 9.046875 16.9375 8.988281 17.226562 C 8.96875 17.324219 8.949219 17.425781 8.929688 17.523438 C 8.917969 17.585938 8.90625 17.644531 8.890625 17.707031 C 8.882812 17.761719 8.871094 17.816406 8.859375 17.871094 C 8.804688 18.203125 8.804688 18.203125 8.917969 18.507812 C 9.074219 18.609375 9.160156 18.601562 9.34375 18.585938 C 9.488281 18.53125 9.488281 18.53125 9.628906 18.449219 C 9.683594 18.417969 9.738281 18.390625 9.792969 18.359375 C 9.851562 18.328125 9.90625 18.296875 9.964844 18.261719 C 10.023438 18.230469 10.085938 18.195312 10.144531 18.164062 C 10.316406 18.066406 10.492188 17.972656 10.664062 17.875 C 10.75 17.828125 10.835938 17.78125 10.921875 17.734375 C 11.222656 17.566406 11.523438 17.402344 11.816406 17.226562 C 12.769531 16.671875 12.769531 16.671875 13.375 16.816406 C 13.648438 16.90625 13.890625 17.050781 14.140625 17.191406 C 14.199219 17.222656 14.257812 17.253906 14.316406 17.285156 C 14.488281 17.378906 14.65625 17.476562 14.828125 17.570312 C 14.914062 17.617188 15 17.664062 15.085938 17.710938 C 15.386719 17.878906 15.691406 18.046875 15.992188 18.222656 C 16.03125 18.246094 16.074219 18.269531 16.117188 18.292969 C 16.195312 18.339844 16.273438 18.386719 16.351562 18.429688 C 16.5625 18.550781 16.710938 18.621094 16.960938 18.585938 C 17.097656 18.5 17.097656 18.5 17.164062 18.332031 C 17.167969 17.925781 17.070312 17.519531 16.984375 17.125 C 16.960938 17 16.933594 16.875 16.910156 16.75 C 16.871094 16.558594 16.832031 16.363281 16.789062 16.171875 C 16.402344 14.3125 16.402344 14.3125 16.683594 13.855469 C 16.929688 13.546875 17.226562 13.289062 17.523438 13.035156 C 17.652344 12.921875 17.769531 12.804688 17.886719 12.683594 C 18.011719 12.558594 18.148438 12.441406 18.28125 12.328125 C 18.378906 12.242188 18.46875 12.152344 18.5625 12.0625 C 18.683594 11.9375 18.808594 11.820312 18.941406 11.707031 C 19.007812 11.644531 19.078125 11.585938 19.144531 11.527344 C 19.179688 11.496094 19.214844 11.46875 19.25 11.4375 C 19.445312 11.257812 19.445312 11.257812 19.53125 11.011719 C 19.496094 10.851562 19.457031 10.78125 19.347656 10.664062 C 19.246094 10.621094 19.246094 10.621094 19.132812 10.605469 C 19.0625 10.59375 19.0625 10.59375 18.992188 10.582031 C 18.726562 10.546875 18.460938 10.511719 18.195312 10.484375 C 18.089844 10.46875 17.984375 10.457031 17.878906 10.445312 C 17.582031 10.410156 17.28125 10.375 16.980469 10.339844 C 16.796875 10.320312 16.613281 10.296875 16.429688 10.273438 C 16.359375 10.265625 16.289062 10.257812 16.21875 10.25 C 15.699219 10.191406 15.28125 10.121094 14.929688 9.699219 C 14.84375 9.554688 14.84375 9.554688 14.757812 9.378906 C 14.742188 9.34375 14.726562 9.3125 14.707031 9.277344 C 14.644531 9.148438 14.585938 9.015625 14.523438 8.886719 C 14.496094 8.828125 14.46875 8.765625 14.4375 8.707031 C 14.339844 8.5 14.242188 8.292969 14.144531 8.082031 C 14.128906 8.046875 14.113281 8.011719 14.09375 7.976562 C 13.933594 7.632812 13.773438 7.292969 13.621094 6.949219 C 13.597656 6.902344 13.578125 6.859375 13.558594 6.8125 C 13.523438 6.730469 13.484375 6.652344 13.449219 6.570312 C 13.351562 6.355469 13.269531 6.238281 13.050781 6.144531 C 12.894531 6.144531 12.820312 6.207031 12.695312 6.296875 Z M 12.695312 6.296875 "/>
<path style=" stroke:none;fill-rule:nonzero;fill:rgb(0%,0%,0%);fill-opacity:1;" d="M 6.042969 7.515625 C 6.285156 7.742188 6.476562 8.019531 6.671875 8.285156 C 6.695312 8.316406 6.714844 8.347656 6.738281 8.378906 C 6.859375 8.546875 6.941406 8.679688 6.957031 8.886719 C 6.917969 9.054688 6.875 9.125 6.746094 9.234375 C 6.554688 9.3125 6.445312 9.289062 6.246094 9.242188 C 6.121094 9.128906 6.121094 9.128906 6.015625 8.984375 C 5.976562 8.933594 5.9375 8.882812 5.898438 8.832031 C 5.863281 8.785156 5.828125 8.734375 5.789062 8.683594 C 5.757812 8.644531 5.726562 8.601562 5.691406 8.558594 C 5.484375 8.292969 5.484375 8.292969 5.484375 8.175781 C 5.402344 8.191406 5.316406 8.210938 5.230469 8.226562 C 5.113281 8.648438 5.007812 9.070312 4.902344 9.496094 C 4.882812 9.585938 4.859375 9.671875 4.839844 9.761719 C 4.804688 9.898438 4.773438 10.035156 4.742188 10.171875 C 4.707031 10.304688 4.675781 10.4375 4.644531 10.570312 C 4.632812 10.613281 4.625 10.652344 4.613281 10.695312 C 4.523438 11.070312 4.351562 11.375 4.011719 11.578125 C 3.808594 11.664062 3.605469 11.730469 3.394531 11.796875 C 3.335938 11.816406 3.277344 11.835938 3.214844 11.855469 C 3.027344 11.917969 2.839844 11.980469 2.648438 12.042969 C 2.460938 12.101562 2.269531 12.164062 2.082031 12.226562 C 1.964844 12.265625 1.847656 12.304688 1.730469 12.34375 C 1.675781 12.359375 1.621094 12.378906 1.566406 12.394531 C 1.5 12.417969 1.5 12.417969 1.425781 12.441406 C 1.375 12.464844 1.375 12.464844 1.320312 12.492188 C 1.304688 12.542969 1.285156 12.59375 1.269531 12.644531 C 1.402344 12.792969 1.550781 12.882812 1.71875 12.984375 C 1.75 13 1.777344 13.019531 1.808594 13.035156 C 1.871094 13.074219 1.933594 13.109375 1.996094 13.148438 C 2.09375 13.207031 2.1875 13.265625 2.285156 13.324219 C 2.558594 13.488281 2.832031 13.652344 3.105469 13.816406 C 3.921875 14.304688 3.921875 14.304688 4.0625 14.726562 C 4.074219 14.867188 4.082031 15.003906 4.085938 15.140625 C 4.089844 15.1875 4.09375 15.230469 4.09375 15.277344 C 4.128906 16.125 4.144531 16.976562 4.164062 17.824219 C 4.347656 17.769531 4.496094 17.71875 4.640625 17.589844 C 4.667969 17.5625 4.699219 17.535156 4.730469 17.511719 C 4.761719 17.480469 4.792969 17.453125 4.824219 17.425781 C 4.890625 17.363281 4.960938 17.304688 5.027344 17.246094 C 5.078125 17.199219 5.078125 17.199219 5.128906 17.152344 C 5.371094 16.9375 5.613281 16.730469 5.859375 16.523438 C 5.914062 16.476562 5.96875 16.429688 6.019531 16.382812 C 6.417969 16.042969 6.703125 15.8125 7.246094 15.828125 C 7.402344 15.847656 7.496094 15.894531 7.617188 15.996094 C 7.742188 16.183594 7.742188 16.28125 7.71875 16.503906 C 7.613281 16.660156 7.546875 16.699219 7.367188 16.742188 C 7.277344 16.75 7.183594 16.761719 7.09375 16.765625 C 6.902344 16.824219 6.777344 16.945312 6.628906 17.078125 C 6.566406 17.132812 6.503906 17.191406 6.441406 17.246094 C 6.390625 17.289062 6.390625 17.289062 6.34375 17.332031 C 6.191406 17.464844 6.039062 17.59375 5.886719 17.726562 C 5.828125 17.777344 5.769531 17.828125 5.710938 17.875 C 5.683594 17.902344 5.652344 17.925781 5.625 17.953125 C 5.53125 18.027344 5.441406 18.109375 5.351562 18.1875 C 5.292969 18.238281 5.234375 18.289062 5.175781 18.339844 C 5.148438 18.363281 5.125 18.386719 5.097656 18.410156 C 4.785156 18.679688 4.527344 18.714844 4.125 18.707031 C 3.820312 18.671875 3.640625 18.523438 3.433594 18.304688 C 3.25 18.027344 3.234375 17.792969 3.230469 17.464844 C 3.230469 17.417969 3.230469 17.375 3.226562 17.328125 C 3.226562 17.183594 3.222656 17.042969 3.222656 16.898438 C 3.21875 16.804688 3.21875 16.707031 3.214844 16.613281 C 3.214844 16.566406 3.214844 16.523438 3.214844 16.472656 C 3.210938 16.335938 3.207031 16.195312 3.203125 16.058594 C 3.199219 15.886719 3.203125 15.71875 3.210938 15.546875 C 3.222656 15.140625 3.222656 15.140625 3.027344 14.792969 C 2.855469 14.667969 2.683594 14.574219 2.496094 14.480469 C 2.429688 14.445312 2.363281 14.410156 2.300781 14.375 C 2.171875 14.304688 2.039062 14.234375 1.910156 14.164062 C 1.65625 14.03125 1.414062 13.882812 1.175781 13.730469 C 1.117188 13.695312 1.117188 13.695312 1.058594 13.660156 C 0.777344 13.484375 0.535156 13.28125 0.402344 12.972656 C 0.339844 12.625 0.339844 12.335938 0.523438 12.027344 C 0.949219 11.464844 1.878906 11.320312 2.519531 11.109375 C 2.667969 11.058594 2.8125 11.011719 2.960938 10.964844 C 3.050781 10.933594 3.144531 10.902344 3.234375 10.875 C 3.273438 10.859375 3.316406 10.847656 3.355469 10.832031 C 3.394531 10.820312 3.429688 10.808594 3.464844 10.796875 C 3.558594 10.765625 3.558594 10.765625 3.65625 10.714844 C 3.695312 10.613281 3.695312 10.613281 3.722656 10.488281 C 3.734375 10.441406 3.746094 10.390625 3.757812 10.339844 C 3.769531 10.289062 3.78125 10.234375 3.792969 10.179688 C 3.808594 10.128906 3.820312 10.074219 3.832031 10.019531 C 3.875 9.84375 3.917969 9.671875 3.957031 9.496094 C 4 9.324219 4.039062 9.152344 4.082031 8.980469 C 4.105469 8.871094 4.132812 8.765625 4.15625 8.65625 C 4.390625 7.675781 4.390625 7.675781 4.703125 7.457031 C 5.136719 7.191406 5.636719 7.191406 6.042969 7.515625 Z M 6.042969 7.515625 "/>
<path style=" stroke:none;fill-rule:nonzero;fill:rgb(0%,0%,0%);fill-opacity:1;" d="M 21.378906 7.511719 C 21.667969 7.808594 21.746094 8.222656 21.835938 8.613281 C 21.855469 8.695312 21.855469 8.695312 21.875 8.78125 C 21.917969 8.957031 21.957031 9.132812 21.996094 9.308594 C 22.039062 9.484375 22.082031 9.664062 22.121094 9.839844 C 22.148438 9.949219 22.175781 10.058594 22.199219 10.167969 C 22.210938 10.21875 22.222656 10.265625 22.234375 10.320312 C 22.25 10.382812 22.25 10.382812 22.265625 10.449219 C 22.292969 10.570312 22.292969 10.570312 22.34375 10.714844 C 22.488281 10.777344 22.632812 10.828125 22.78125 10.875 C 22.847656 10.898438 22.847656 10.898438 22.917969 10.921875 C 23.058594 10.96875 23.203125 11.015625 23.347656 11.0625 C 25.300781 11.710938 25.300781 11.710938 25.566406 12.160156 C 25.648438 12.53125 25.675781 12.808594 25.492188 13.152344 C 25.289062 13.441406 25.050781 13.609375 24.742188 13.785156 C 24.699219 13.808594 24.65625 13.835938 24.613281 13.863281 C 24.378906 14 24.144531 14.132812 23.90625 14.257812 C 23.78125 14.324219 23.660156 14.390625 23.542969 14.457031 C 23.453125 14.507812 23.363281 14.550781 23.273438 14.597656 C 23.101562 14.695312 22.980469 14.777344 22.851562 14.929688 C 22.785156 15.179688 22.785156 15.410156 22.796875 15.667969 C 22.804688 15.886719 22.796875 16.109375 22.792969 16.328125 C 22.789062 16.421875 22.789062 16.515625 22.789062 16.605469 C 22.789062 16.675781 22.789062 16.675781 22.785156 16.746094 C 22.785156 16.839844 22.785156 16.9375 22.785156 17.03125 C 22.785156 17.171875 22.78125 17.308594 22.777344 17.449219 C 22.777344 17.492188 22.78125 17.535156 22.78125 17.578125 C 22.773438 17.894531 22.699219 18.171875 22.472656 18.410156 C 22.222656 18.625 22.042969 18.703125 21.714844 18.703125 C 21.660156 18.703125 21.605469 18.703125 21.546875 18.707031 C 21.195312 18.667969 20.972656 18.460938 20.71875 18.234375 C 20.652344 18.175781 20.582031 18.113281 20.515625 18.054688 C 20.480469 18.023438 20.449219 17.996094 20.414062 17.964844 C 20.171875 17.753906 19.929688 17.546875 19.6875 17.339844 C 19.601562 17.265625 19.515625 17.191406 19.429688 17.117188 C 19.375 17.070312 19.320312 17.023438 19.265625 16.976562 C 19.21875 16.9375 19.167969 16.894531 19.121094 16.851562 C 19.003906 16.75 19.003906 16.75 18.882812 16.742188 C 18.789062 16.707031 18.789062 16.707031 18.714844 16.550781 C 18.691406 16.484375 18.671875 16.421875 18.648438 16.355469 C 18.636719 16.320312 18.628906 16.289062 18.617188 16.253906 C 18.535156 16.015625 18.535156 16.015625 18.535156 15.894531 C 18.757812 15.78125 19.035156 15.8125 19.269531 15.878906 C 19.601562 16.03125 19.851562 16.265625 20.109375 16.511719 C 20.25 16.644531 20.394531 16.769531 20.546875 16.890625 C 20.777344 17.074219 20.996094 17.269531 21.210938 17.464844 C 21.488281 17.714844 21.488281 17.714844 21.835938 17.824219 C 21.835938 17.742188 21.835938 17.742188 21.839844 17.65625 C 21.851562 17.160156 21.863281 16.667969 21.875 16.175781 C 21.882812 15.929688 21.890625 15.683594 21.890625 15.433594 C 21.894531 15.34375 21.898438 15.25 21.898438 15.15625 C 21.898438 15.117188 21.898438 15.078125 21.898438 15.039062 C 21.910156 14.699219 22.054688 14.464844 22.285156 14.222656 C 22.71875 13.898438 23.195312 13.636719 23.664062 13.367188 C 23.828125 13.273438 23.988281 13.179688 24.148438 13.085938 C 24.203125 13.054688 24.253906 13.027344 24.308594 12.996094 C 24.355469 12.964844 24.40625 12.9375 24.453125 12.910156 C 24.496094 12.882812 24.542969 12.859375 24.585938 12.832031 C 24.695312 12.753906 24.695312 12.753906 24.683594 12.613281 C 24.683594 12.574219 24.683594 12.535156 24.679688 12.492188 C 24.648438 12.480469 24.613281 12.472656 24.582031 12.460938 C 24.238281 12.347656 23.894531 12.234375 23.550781 12.121094 C 23.425781 12.078125 23.296875 12.035156 23.167969 11.996094 C 22.984375 11.933594 22.800781 11.875 22.617188 11.8125 C 22.558594 11.792969 22.503906 11.777344 22.445312 11.757812 C 22.054688 11.625 21.710938 11.476562 21.515625 11.09375 C 21.460938 10.953125 21.417969 10.8125 21.378906 10.664062 C 21.367188 10.617188 21.355469 10.574219 21.339844 10.527344 C 21.304688 10.386719 21.273438 10.246094 21.242188 10.105469 C 21.21875 10 21.195312 9.894531 21.171875 9.792969 C 21.132812 9.628906 21.097656 9.46875 21.058594 9.308594 C 21.023438 9.148438 20.988281 8.992188 20.949219 8.835938 C 20.9375 8.785156 20.929688 8.738281 20.917969 8.6875 C 20.90625 8.640625 20.898438 8.597656 20.886719 8.550781 C 20.871094 8.492188 20.871094 8.492188 20.859375 8.429688 C 20.8125 8.3125 20.769531 8.253906 20.667969 8.175781 C 20.617188 8.175781 20.566406 8.175781 20.515625 8.175781 C 20.5 8.207031 20.488281 8.234375 20.472656 8.265625 C 20.375 8.453125 20.242188 8.621094 20.117188 8.792969 C 20.074219 8.847656 20.074219 8.847656 20.035156 8.902344 C 20.007812 8.9375 19.980469 8.972656 19.953125 9.011719 C 19.929688 9.042969 19.90625 9.074219 19.882812 9.109375 C 19.792969 9.203125 19.722656 9.246094 19.601562 9.292969 C 19.429688 9.285156 19.296875 9.273438 19.152344 9.183594 C 19.066406 9.046875 19.050781 8.945312 19.042969 8.785156 C 19.15625 8.507812 19.335938 8.28125 19.515625 8.046875 C 19.542969 8.007812 19.574219 7.96875 19.601562 7.929688 C 20.082031 7.300781 20.667969 7.050781 21.378906 7.511719 Z M 21.378906 7.511719 "/>
</g>
</svg>
