<?xml version="1.0" encoding="UTF-8"?>
<svg xmlns="http://www.w3.org/2000/svg" xmlns:xlink="http://www.w3.org/1999/xlink" width="22px" height="22px" viewBox="0 0 22 22" version="1.1">
<g id="surface1">
<path style=" stroke:none;fill-rule:nonzero;fill:rgb(0%,0%,0%);fill-opacity:1;" d="M 10.691406 0.0898438 C 10.59375 0.140625 10.492188 0.242188 10.441406 0.34375 C 10.359375 0.5 10.355469 0.59375 10.355469 1.683594 C 10.355469 2.746094 10.363281 2.875 10.4375 3.007812 C 10.5625 3.242188 10.710938 3.328125 11 3.328125 C 11.289062 3.328125 11.4375 3.242188 11.5625 3.007812 C 11.636719 2.875 11.644531 2.746094 11.644531 1.683594 C 11.644531 0.59375 11.640625 0.5 11.558594 0.34375 C 11.398438 0.03125 11.011719 -0.0820312 10.691406 0.0898438 Z M 10.691406 0.0898438 "/>
<path style=" stroke:none;fill-rule:nonzero;fill:rgb(0%,0%,0%);fill-opacity:1;" d="M 3.417969 3.09375 C 3.367188 3.109375 3.273438 3.1875 3.207031 3.261719 C 3.035156 3.441406 3 3.792969 3.128906 4.003906 C 3.179688 4.082031 3.570312 4.5 4.003906 4.929688 C 4.644531 5.5625 4.820312 5.714844 4.964844 5.753906 C 5.449219 5.882812 5.882812 5.445312 5.753906 4.960938 C 5.714844 4.824219 5.558594 4.640625 4.972656 4.042969 C 4.066406 3.128906 3.960938 3.050781 3.699219 3.054688 C 3.59375 3.054688 3.464844 3.070312 3.417969 3.09375 Z M 3.417969 3.09375 "/>
<path style=" stroke:none;fill-rule:nonzero;fill:rgb(0%,0%,0%);fill-opacity:1;" d="M 17.933594 3.175781 C 17.84375 3.242188 17.4375 3.636719 17.027344 4.042969 C 16.429688 4.648438 16.285156 4.824219 16.246094 4.960938 C 16.117188 5.449219 16.554688 5.882812 17.039062 5.753906 C 17.175781 5.714844 17.363281 5.554688 17.996094 4.929688 C 18.429688 4.5 18.820312 4.082031 18.871094 4.003906 C 18.980469 3.828125 18.964844 3.46875 18.835938 3.296875 C 18.640625 3.023438 18.214844 2.96875 17.933594 3.175781 Z M 17.933594 3.175781 "/>
<path style=" stroke:none;fill-rule:nonzero;fill:rgb(0%,0%,0%);fill-opacity:1;" d="M 10.035156 5.605469 C 8.074219 5.972656 6.4375 7.390625 5.800781 9.28125 C 5.460938 10.289062 5.457031 11.65625 5.789062 12.671875 C 6.414062 14.601562 8.089844 16.054688 10.070312 16.390625 C 10.570312 16.476562 11.4375 16.472656 11.945312 16.386719 C 13.929688 16.046875 15.585938 14.601562 16.214844 12.652344 C 16.542969 11.648438 16.542969 10.351562 16.214844 9.34375 C 15.710938 7.777344 14.554688 6.539062 13.019531 5.914062 C 12.40625 5.660156 11.984375 5.582031 11.152344 5.558594 C 10.585938 5.550781 10.28125 5.5625 10.035156 5.605469 Z M 12.117188 6.960938 C 13.5625 7.386719 14.65625 8.5 15.046875 9.933594 C 15.132812 10.238281 15.148438 10.394531 15.148438 11 C 15.148438 11.605469 15.132812 11.761719 15.046875 12.066406 C 14.652344 13.507812 13.523438 14.648438 12.089844 15.042969 C 11.847656 15.109375 11.585938 15.140625 11.160156 15.15625 C 10.515625 15.179688 10.25 15.144531 9.695312 14.96875 C 8.390625 14.554688 7.363281 13.480469 6.957031 12.09375 C 6.867188 11.789062 6.855469 11.664062 6.855469 11 C 6.855469 10.34375 6.867188 10.203125 6.953125 9.910156 C 7.339844 8.570312 8.339844 7.496094 9.613281 7.050781 C 10.136719 6.867188 10.382812 6.832031 11.109375 6.847656 C 11.660156 6.863281 11.859375 6.882812 12.117188 6.960938 Z M 12.117188 6.960938 "/>
<path style=" stroke:none;fill-rule:nonzero;fill:rgb(0%,0%,0%);fill-opacity:1;" d="M 0.335938 10.445312 C 0.152344 10.539062 0 10.792969 0 11 C 0 11.214844 0.152344 11.460938 0.34375 11.558594 C 0.5 11.640625 0.59375 11.644531 1.683594 11.644531 C 2.972656 11.644531 3.046875 11.632812 3.246094 11.371094 C 3.363281 11.207031 3.363281 10.792969 3.246094 10.628906 C 3.046875 10.367188 2.976562 10.355469 1.675781 10.355469 C 0.585938 10.359375 0.480469 10.363281 0.335938 10.445312 Z M 0.335938 10.445312 "/>
<path style=" stroke:none;fill-rule:nonzero;fill:rgb(0%,0%,0%);fill-opacity:1;" d="M 18.992188 10.4375 C 18.757812 10.5625 18.671875 10.710938 18.671875 11 C 18.671875 11.289062 18.757812 11.4375 18.992188 11.5625 C 19.125 11.636719 19.253906 11.644531 20.316406 11.644531 C 21.40625 11.644531 21.5 11.640625 21.65625 11.558594 C 21.851562 11.460938 22 11.214844 22 11 C 22 10.785156 21.851562 10.539062 21.65625 10.441406 C 21.5 10.359375 21.40625 10.355469 20.316406 10.355469 C 19.253906 10.355469 19.125 10.363281 18.992188 10.4375 Z M 18.992188 10.4375 "/>
<path style=" stroke:none;fill-rule:nonzero;fill:rgb(0%,0%,0%);fill-opacity:1;" d="M 4.925781 16.261719 C 4.800781 16.304688 4.542969 16.535156 3.988281 17.089844 C 3.5625 17.507812 3.179688 17.917969 3.128906 17.996094 C 3.058594 18.105469 3.046875 18.183594 3.058594 18.375 C 3.078125 18.574219 3.101562 18.636719 3.234375 18.765625 C 3.363281 18.898438 3.425781 18.921875 3.625 18.941406 C 3.8125 18.953125 3.894531 18.941406 4.003906 18.871094 C 4.082031 18.820312 4.5 18.429688 4.929688 17.996094 C 5.566406 17.351562 5.714844 17.179688 5.753906 17.03125 C 5.886719 16.53125 5.414062 16.085938 4.925781 16.261719 Z M 4.925781 16.261719 "/>
<path style=" stroke:none;fill-rule:nonzero;fill:rgb(0%,0%,0%);fill-opacity:1;" d="M 16.660156 16.257812 C 16.441406 16.339844 16.34375 16.429688 16.265625 16.648438 C 16.203125 16.800781 16.199219 16.859375 16.242188 17.019531 C 16.285156 17.179688 16.40625 17.320312 17.027344 17.957031 C 17.4375 18.363281 17.84375 18.753906 17.933594 18.824219 C 18.214844 19.03125 18.640625 18.976562 18.835938 18.703125 C 18.929688 18.578125 18.976562 18.28125 18.933594 18.101562 C 18.898438 17.972656 17.375 16.40625 17.1875 16.304688 C 17.007812 16.214844 16.832031 16.199219 16.660156 16.257812 Z M 16.660156 16.257812 "/>
<path style=" stroke:none;fill-rule:nonzero;fill:rgb(0%,0%,0%);fill-opacity:1;" d="M 10.714844 18.707031 C 10.644531 18.738281 10.535156 18.832031 10.480469 18.910156 C 10.378906 19.054688 10.378906 19.070312 10.363281 20.269531 C 10.351562 21.417969 10.355469 21.488281 10.441406 21.652344 C 10.539062 21.847656 10.785156 22 11 22 C 11.214844 22 11.460938 21.847656 11.558594 21.65625 C 11.640625 21.5 11.644531 21.40625 11.644531 20.316406 C 11.644531 19.253906 11.636719 19.125 11.5625 18.992188 C 11.519531 18.910156 11.433594 18.808594 11.375 18.761719 C 11.230469 18.65625 10.894531 18.625 10.714844 18.707031 Z M 10.714844 18.707031 "/>
</g>
</svg>
