<?xml version="1.0" standalone="no"?>
<!DOCTYPE svg PUBLIC "-//W3C//DTD SVG 20010904//EN"
 "http://www.w3.org/TR/2001/REC-SVG-20010904/DTD/svg10.dtd">
<svg version="1.0" xmlns="http://www.w3.org/2000/svg"
 width="500.000000pt" height="150.000000pt" viewBox="0 0 500.000000 150.000000"
 preserveAspectRatio="xMidYMid meet">

<g transform="translate(0.000000,150.000000) scale(0.100000,-0.100000)"
fill="#000000" stroke="none">
<path d="M1494 988 c-15 -18 -43 -67 -61 -108 -60 -131 -65 -140 -93 -170 -16
-17 -37 -30 -49 -30 -28 0 -28 40 0 114 l22 56 46 2 c43 1 44 2 9 5 -42 5 -46
12 -22 49 28 42 7 38 -23 -5 -19 -27 -36 -41 -53 -42 -23 -1 -24 -1 -4 -7 l22
-7 -28 -59 c-30 -62 -29 -88 4 -115 14 -12 21 -12 44 0 44 22 45 22 38 11 -3
-6 -2 -13 3 -17 6 -3 18 9 27 27 38 75 122 153 142 133 4 -3 -6 -28 -21 -55
-31 -54 -34 -82 -12 -100 13 -11 21 -10 44 8 28 20 28 20 44 1 22 -25 48 -24
81 2 26 21 28 21 40 3 21 -28 59 -5 101 60 41 64 63 88 76 81 16 -10 10 -29
-26 -90 -20 -32 -33 -60 -31 -62 10 -10 29 11 72 78 42 67 67 89 81 75 4 -4
-7 -36 -25 -72 -35 -71 -36 -74 -22 -74 5 0 26 26 46 58 35 55 59 82 76 82 15
0 8 -28 -16 -75 -14 -25 -22 -53 -19 -61 7 -19 32 -18 56 3 18 17 19 17 28 0
6 -9 16 -17 23 -17 18 0 66 39 66 52 0 7 -10 2 -23 -10 -51 -48 -61 -19 -21
59 14 28 24 52 22 54 -2 2 -19 -19 -38 -46 -62 -88 -71 -99 -81 -99 -14 0 -11
20 12 67 26 53 22 78 -11 77 -14 -1 -33 -4 -42 -9 -13 -5 -18 -3 -18 8 0 23
-30 29 -57 12 -18 -13 -28 -14 -38 -5 -20 17 -50 -3 -81 -53 -34 -55 -64 -87
-81 -87 -20 0 -16 25 12 80 26 51 33 77 14 50 -8 -11 -12 -12 -16 -2 -2 7 -22
12 -45 12 -35 0 -46 -6 -82 -44 -22 -24 -51 -58 -64 -75 -13 -17 -30 -31 -38
-31 -19 0 -18 3 12 71 15 32 24 65 21 74 -10 24 -43 18 -82 -16 -52 -46 -43
-19 18 53 72 86 87 109 87 135 0 34 -33 29 -66 -9z m56 11 c0 -23 -77 -135
-86 -126 -7 6 35 100 53 120 18 19 33 22 33 6z m175 -190 c4 -5 -9 -35 -29
-65 -48 -72 -106 -95 -106 -43 0 29 26 74 56 98 29 23 69 28 79 10z"/>
<path d="M829 987 c-19 -12 -54 -56 -79 -96 -44 -72 -45 -73 -81 -68 -117 16
-156 110 -64 154 34 16 39 16 83 1 55 -20 70 -15 19 7 -56 23 -110 19 -146
-11 -75 -62 -3 -164 117 -164 29 0 28 -7 -6 -61 -51 -79 -113 -119 -166 -105
-37 9 -56 34 -56 71 0 62 63 89 145 61 11 -3 0 3 -24 15 -38 18 -49 20 -82 10
-69 -21 -90 -86 -45 -138 22 -25 31 -28 83 -28 50 0 66 5 98 29 20 16 54 55
74 87 27 43 44 59 66 64 51 12 119 54 143 88 27 41 29 83 3 97 -29 15 -44 13
-82 -13z m89 -22 c3 -26 -30 -79 -63 -101 -27 -18 -98 -44 -103 -39 -8 8 63
128 87 146 31 25 75 22 79 -6z"/>
<path d="M2298 969 c-42 -44 -82 -117 -103 -187 -12 -38 -12 -50 0 -79 20 -46
56 -45 102 3 19 20 32 38 29 41 -2 3 -20 -13 -40 -34 -29 -32 -38 -36 -53 -27
-35 22 -27 51 36 124 65 76 116 163 107 186 -10 25 -38 15 -78 -27z m61 -6
c-13 -34 -89 -141 -119 -168 l-23 -20 8 25 c23 76 114 208 136 195 4 -3 4 -18
-2 -32z"/>
<path d="M2989 933 c-86 -102 -162 -203 -157 -208 2 -2 34 35 71 83 37 48 78
101 93 117 l25 30 -17 -40 c-40 -93 -74 -203 -74 -243 0 -78 80 -129 136 -87
17 13 15 13 -18 3 -31 -9 -41 -8 -62 6 -51 33 -44 90 31 285 24 63 42 118 41
123 -2 5 -33 -26 -69 -69z"/>
<path d="M2853 943 c-22 -32 -56 -86 -76 -120 -45 -74 -119 -159 -158 -178
-44 -23 -96 -19 -124 10 -34 33 -32 70 5 107 28 28 35 30 83 26 29 -3 61 -9
72 -12 13 -5 11 -2 -5 8 -32 20 -113 20 -150 1 -78 -40 -64 -149 21 -170 41
-10 106 13 151 53 23 20 73 84 111 142 38 58 67 98 64 89 -30 -93 -46 -153
-52 -195 l-6 -49 20 25 c11 14 19 30 17 36 -3 6 14 71 35 144 22 73 38 134 35
137 -2 2 -22 -22 -43 -54z"/>
<path d="M2187 883 c-4 -3 -7 -13 -7 -21 0 -12 3 -12 15 -2 8 7 15 16 15 21 0
11 -14 12 -23 2z"/>
<path d="M3751 841 c-7 -12 -7 -28 1 -49 18 -46 -8 -107 -45 -107 -15 1 -26
-4 -24 -10 7 -19 57 -16 93 6 l35 21 15 -21 c19 -27 44 -27 78 0 26 21 28 21
40 3 21 -28 56 -6 107 68 74 105 110 85 44 -24 -53 -89 -17 -70 43 22 49 74
82 101 82 65 0 -9 -14 -42 -30 -75 -38 -75 -18 -82 25 -9 35 59 69 94 84 85 7
-5 2 -24 -14 -56 -30 -59 -32 -90 -7 -90 22 0 62 27 62 42 0 6 -11 1 -25 -12
-35 -33 -43 -17 -17 35 30 61 29 95 -1 95 -13 0 -28 -5 -35 -12 -8 -8 -16 -6
-30 12 -19 23 -20 23 -46 7 -20 -14 -31 -15 -46 -7 -28 15 -41 5 -97 -70 -46
-61 -83 -88 -83 -58 0 7 11 37 25 66 13 29 20 50 15 47 -5 -3 -11 -1 -15 5 -3
5 -24 10 -45 10 -41 0 -70 -23 -135 -105 l-30 -38 -1 49 c-1 59 -7 124 -11
124 -1 0 -7 -8 -12 -19z m226 -37 c6 -17 -59 -107 -86 -120 -70 -35 -65 60 6
116 28 21 74 24 80 4z"/>
<path d="M4515 814 c-10 -19 -37 -55 -60 -80 -67 -72 -104 -53 -64 33 13 26
25 53 28 58 10 23 -34 -23 -56 -58 -23 -36 -23 -40 -8 -63 18 -27 56 -32 75
-9 19 23 23 10 7 -22 -8 -16 -38 -43 -67 -62 -55 -36 -104 -99 -98 -128 2 -11
13 -19 29 -21 35 -4 76 38 119 120 23 44 45 71 72 88 22 14 49 39 61 55 17 25
12 22 -27 -13 -26 -24 -50 -42 -53 -39 -2 3 13 44 35 91 40 85 45 120 7 50z
m-136 -258 c-12 -25 -33 -55 -45 -67 -27 -26 -55 -20 -47 10 6 23 101 116 110
108 3 -3 -5 -26 -18 -51z"/>
<path d="M893 820 c-58 -35 -85 -128 -44 -150 57 -30 110 -1 179 99 44 64 69
79 58 35 -4 -15 -21 -48 -37 -72 -35 -52 -37 -56 -26 -60 5 -2 31 26 58 62 53
70 84 95 101 78 7 -7 0 -29 -22 -67 -17 -30 -29 -62 -26 -70 8 -23 50 -18 74
8 33 35 26 45 -8 12 -40 -38 -49 -25 -22 30 39 81 20 127 -39 93 -25 -15 -27
-15 -32 3 -5 19 -24 24 -43 11 -5 -4 -29 -34 -52 -67 -57 -83 -117 -116 -150
-83 -20 20 -14 37 16 44 70 17 118 68 92 99 -17 20 -39 19 -77 -5z m67 -6 c0
-20 -52 -70 -80 -77 -30 -8 -25 17 14 57 35 38 66 47 66 20z"/>
<path d="M3196 802 c-87 -139 -189 -173 -119 -41 37 71 38 73 24 64 -7 -4 -26
-25 -42 -47 -66 -92 -10 -153 74 -80 15 14 17 13 17 -6 0 -24 19 -28 51 -11
11 5 40 41 64 80 25 38 49 69 55 69 20 0 9 -39 -30 -98 -55 -86 -33 -87 30 -2
55 74 85 99 102 82 6 -6 -2 -31 -22 -70 -18 -33 -29 -65 -26 -71 12 -19 49
-12 78 16 22 21 28 23 28 10 0 -9 9 -21 20 -27 21 -11 48 -2 83 28 15 14 17
13 17 -6 0 -24 19 -28 51 -11 21 11 94 117 86 125 -3 3 -15 -12 -27 -33 -26
-43 -70 -93 -82 -93 -15 0 -8 25 23 83 37 70 33 99 -5 39 -62 -99 -127 -147
-142 -107 -3 8 8 40 25 71 17 32 29 59 27 62 -3 2 -26 -24 -53 -59 -58 -76
-80 -99 -93 -99 -16 0 -12 22 10 58 25 40 26 90 3 99 -9 4 -29 -1 -45 -10 -24
-14 -28 -14 -28 -1 0 21 -27 29 -46 13 -9 -8 -28 -32 -42 -54 -28 -45 -72 -95
-84 -95 -15 0 -8 25 23 83 37 70 33 99 -5 39z"/>
</g>
</svg>
