<?xml version="1.0" encoding="UTF-8"?>
<svg version="1.1" xmlns="http://www.w3.org/2000/svg" width="512" height="512">
<path d="M0 0 C1.60114678 -0.00543081 3.20228856 -0.01255882 4.80342102 -0.02124023 C9.12161159 -0.03936119 13.43941675 -0.0324533 17.75761342 -0.01972389 C22.29328847 -0.00953938 26.82893231 -0.01900446 31.36460876 -0.02526855 C38.9778328 -0.03252843 46.5909012 -0.02300021 54.20410156 -0.00390625 C62.98668255 0.01786714 71.76889211 0.01080108 80.55146414 -0.01121187 C88.1144445 -0.02940398 95.67731351 -0.03190585 103.2403087 -0.0214572 C107.74760454 -0.01524417 112.25472616 -0.01432612 116.76201057 -0.02760315 C121.00002875 -0.03921701 125.2375711 -0.03103576 129.47553825 -0.00802612 C131.02423185 -0.00276876 132.57296598 -0.00420146 134.12164307 -0.01307678 C146.93739116 -0.07971271 156.83138724 1.99544342 166.48022461 10.95507812 C173.33758293 18.35380684 177.97004307 25.61341466 177.98944569 35.88569069 C177.99390353 36.98127411 177.99836137 38.07685752 178.0029543 39.20564044 C178.00276994 40.40892564 178.00258558 41.61221084 178.00239563 42.85195923 C178.00607232 44.13055671 178.00974901 45.40915419 178.01353711 46.72649705 C178.02354845 50.27824927 178.02727251 53.82998459 178.02992642 57.38174891 C178.03383204 61.21149713 178.04341021 65.04123199 178.05213928 68.87097168 C178.07189642 78.12119081 178.08196896 87.37141103 178.09086707 96.62164599 C178.09525121 100.97871539 178.1006177 105.33578358 178.10585594 109.69285202 C178.12286749 124.17840892 178.13736141 138.66396506 178.14460468 153.14953041 C178.14651455 156.90811794 178.14843489 160.66670546 178.15039062 164.42529297 C178.15087437 165.3594609 178.15135811 166.29362882 178.1518565 167.25610487 C178.1601559 182.38727122 178.18549162 197.51835849 178.2179713 212.64949031 C178.25105186 228.18733733 178.26905435 243.72514418 178.27224892 259.2630266 C178.2744131 267.98574056 178.2831482 276.70833921 178.3087101 285.43101883 C178.33043072 292.86002814 178.33846083 300.28889412 178.32874332 307.71793158 C178.32420253 311.50655883 178.32607161 315.29489043 178.34550476 319.08347702 C178.36641826 323.19629038 178.35613866 327.30844981 178.3429718 331.42129517 C178.35394105 332.61119604 178.36491029 333.80109691 178.37621194 335.02705538 C178.29048946 346.12815936 175.04559041 354.92795341 167.41772461 363.14257812 C159.43429767 370.54185187 152.19133696 374.62540393 141.22215271 374.66474915 C140.22411412 374.67026418 140.22411412 374.67026418 139.20591313 374.67589062 C136.97759958 374.68689864 134.74933272 374.69076643 132.52099609 374.69458008 C130.92250929 374.70084706 129.32402393 374.70749407 127.72554016 374.7144928 C122.47580984 374.73551299 117.2260793 374.74589534 111.97631836 374.75585938 C110.16627551 374.75990811 108.35623281 374.76402507 106.54619026 374.76820946 C98.03898221 374.78725902 89.53178281 374.80148885 81.02455753 374.80982143 C71.22002773 374.81958424 61.41572427 374.84587973 51.61127418 374.88632232 C44.02382135 374.91654036 36.43643317 374.93129581 28.84892136 374.93460244 C24.32188719 374.93694702 19.79509488 374.94582961 15.26812553 374.97106361 C11.00399058 374.99444823 6.74025492 374.99853614 2.47607231 374.98830223 C0.91810778 374.98780923 -0.63987711 374.99405966 -2.19778061 375.00785828 C-14.90427348 375.11402854 -25.01874746 373.32261893 -34.85180664 364.83398438 C-44.98587716 354.59632881 -47.44285932 341.95560696 -47.54600561 327.92377472 C-47.53931344 326.80681969 -47.53262128 325.68986465 -47.52572632 324.5390625 C-47.53040629 323.31191277 -47.53508626 322.08476303 -47.53990805 320.82042694 C-47.54971174 317.45843276 -47.54630909 314.09695081 -47.5369494 310.73498917 C-47.53010433 307.09210818 -47.5406669 303.44926892 -47.54888916 299.80639648 C-47.56217102 292.68748468 -47.55937365 285.56866822 -47.55065124 278.44975281 C-47.54385313 272.65977196 -47.54296713 266.86981768 -47.54622269 261.07983398 C-47.54668239 260.25316459 -47.54714208 259.4264952 -47.54761571 258.57477522 C-47.54857497 256.89497693 -47.54954761 255.21517864 -47.55053349 253.53538036 C-47.55907113 237.81457289 -47.54927884 222.09381805 -47.53313239 206.37301922 C-47.51973069 192.90815835 -47.52205924 179.44337509 -47.53588867 165.97851562 C-47.55197329 150.31077041 -47.55824731 134.64307123 -47.54905188 118.97531891 C-47.54809632 117.3019867 -47.5471532 115.62865449 -47.54622269 113.95532227 C-47.54575986 113.13218898 -47.54529703 112.3090557 -47.54482018 111.46097898 C-47.54223893 105.68352871 -47.54658256 99.90610783 -47.55366135 94.12866211 C-47.56210865 87.07989601 -47.55972872 80.03123003 -47.54381911 72.98247528 C-47.53597959 69.39181515 -47.53277019 65.80132143 -47.54276657 62.21066284 C-47.55347285 58.30571406 -47.54061856 54.40103288 -47.52572632 50.49609375 C-47.53241848 49.37913872 -47.53911065 48.26218369 -47.54600561 47.11138153 C-47.44285932 33.07954929 -44.98587716 20.43882744 -34.85180664 10.20117188 C-24.34738529 1.13296711 -13.42096832 -0.07702469 0 0 Z M-26.39477539 23.64257812 C-32.42210976 31.38923001 -32.5815726 40.60097462 -32.52572632 50.04199219 C-32.53040629 51.26854649 -32.53508626 52.49510078 -32.53990805 53.75882339 C-32.54975394 57.13757479 -32.54627823 60.51582085 -32.5369494 63.89454079 C-32.53013201 67.54832257 -32.5406534 71.20206177 -32.54888916 74.85583496 C-32.56220012 82.00336345 -32.55936055 89.15079721 -32.55065124 96.29832935 C-32.54386469 102.10941658 -32.54296216 107.92047733 -32.54622269 113.73156738 C-32.54668239 114.55993363 -32.54714208 115.38829987 -32.54761571 116.24176812 C-32.54857493 117.92479548 -32.54954757 119.60782282 -32.55053349 121.29085016 C-32.55907966 137.0573004 -32.5492654 152.82369823 -32.53313239 168.59013987 C-32.51972991 182.10634344 -32.52205822 195.6224697 -32.53588867 209.13867188 C-32.55195816 224.85029751 -32.55825575 240.56187727 -32.54905188 256.27350998 C-32.54809628 257.95020293 -32.54715316 259.6268959 -32.54622269 261.30358887 C-32.54575986 262.12846495 -32.54529703 262.95334103 -32.54482018 263.80321336 C-32.5422344 269.60453792 -32.5465924 275.40583328 -32.55366135 281.20715332 C-32.56209176 288.28101717 -32.55976388 295.35478121 -32.54381911 302.42863369 C-32.53595708 306.03497241 -32.53280928 309.64114496 -32.54276657 313.2474823 C-32.55341316 317.16280269 -32.54066536 321.0778534 -32.52572632 324.99316406 C-32.53241848 326.12449894 -32.53911065 327.25583382 -32.54600561 328.42145157 C-32.47347603 338.23727651 -31.0516151 346.5837399 -24.10180664 353.82617188 C-15.12317557 361.58614644 -4.31415224 360.66755458 6.90942383 360.6628418 C8.33425992 360.66583731 9.75909521 360.66924074 11.18392944 360.67301941 C15.03937253 360.681823 18.8947934 360.68419597 22.75024557 360.6848352 C25.16266324 360.68554769 27.57507533 360.68768576 29.98749161 360.69033241 C38.4139466 360.6995733 46.84038581 360.70366881 55.2668457 360.70288086 C63.1051872 360.70228018 70.94345986 360.71283325 78.78178394 360.72862452 C85.52596225 360.7417244 92.27011812 360.74706374 99.01430905 360.74642545 C103.03589943 360.74617121 107.05742856 360.74898139 111.0790062 360.7596035 C114.86294191 360.76932595 118.64675833 360.76933541 122.43069839 360.76208687 C123.81372503 360.76104621 125.19675926 360.76337285 126.57977295 360.76944733 C138.09025262 360.81670116 147.85336942 360.3577283 156.85522461 352.51757812 C162.80711284 345.28155874 163.7201585 338.74358987 163.61039734 329.60679626 C163.62337891 327.70465318 163.62337891 327.70465318 163.63662273 325.76408297 C163.6595953 322.26921958 163.64549251 318.77536803 163.62491357 315.28052652 C163.60921654 311.50198057 163.62822921 307.72358186 163.64271545 303.9450531 C163.66549543 296.55311635 163.65609331 289.16155868 163.63521459 281.76962965 C163.6189063 275.76066865 163.61473696 269.75181085 163.61918068 263.74283028 C163.62012669 262.45821741 163.62012669 262.45821741 163.62109182 261.14765276 C163.62243792 259.40768966 163.62381749 257.66772658 163.62523017 255.92776353 C163.63715603 239.62715888 163.61312846 223.32676167 163.57621209 207.02620424 C163.54531524 193.04856468 163.54295207 179.07116377 163.56201172 165.09350586 C163.58413801 148.84825736 163.59025559 132.60314253 163.5696891 116.35788733 C163.56752623 114.62476164 163.56537713 112.89163593 163.56324196 111.15851021 C163.56164241 109.87952336 163.56164241 109.87952336 163.56001055 108.5746984 C163.55354902 102.57451823 163.55829814 96.57440701 163.56726646 90.5742321 C163.57781637 83.25981878 163.57025548 75.94568505 163.53981068 68.63132327 C163.52471194 64.90148026 163.51747911 61.17207806 163.5320015 57.4422226 C163.54747576 53.39487193 163.52405184 49.34866521 163.49687195 45.30137634 C163.50734344 44.12821914 163.51781493 42.95506194 163.52860373 41.74635452 C163.42980237 33.84824906 161.9011569 27.85707496 156.41266268 21.97034687 C148.72896068 15.14586396 140.8431539 14.36724247 130.91772461 14.45507812 C129.89195312 14.4618457 129.89195312 14.4618457 128.84545898 14.46875 C127.18200857 14.48038252 125.51860411 14.49831118 123.85522461 14.51757812 C123.82944336 15.50757812 123.80366211 16.49757813 123.77709961 17.51757812 C123.44325756 26.30763932 122.99021918 33.48860905 116.41772461 39.89257812 C111.12148802 43.25116718 106.62351685 43.81871534 100.42822266 43.82397461 C99.59178223 43.83229813 98.7553418 43.84062164 97.89355469 43.84919739 C95.13463656 43.87324748 92.37595513 43.88206358 89.61694336 43.88867188 C87.69269237 43.89764231 85.76844209 43.90676423 83.8441925 43.91603088 C79.81180122 43.93251009 75.77949286 43.940219 71.74707031 43.94311523 C66.59217461 43.94849655 61.43806343 43.98617094 56.28338909 44.0318594 C52.3086923 44.06167303 48.33418341 44.06883974 44.35938454 44.06984138 C42.45964784 44.07403546 40.55991016 44.08643701 38.66028404 44.10735893 C35.99641405 44.13436183 33.33434933 44.12942191 30.67041016 44.11694336 C29.50506493 44.13919479 29.50506493 44.13919479 28.31617737 44.16189575 C22.41888772 44.08364243 18.43094687 42.21683939 13.85522461 38.51757812 C7.40757971 31.77659343 7.972873 23.33051245 7.85522461 14.51757812 C-10.95120165 14.00364837 -10.95120165 14.00364837 -26.39477539 23.64257812 Z M22.85522461 14.51757812 C22.85522461 18.47757813 22.85522461 22.43757813 22.85522461 26.51757812 C26.10189195 29.76424547 26.91223596 29.86935522 31.27206421 29.92416382 C32.00462433 29.91809113 32.73718445 29.91201843 33.49194336 29.90576172 C34.26784821 29.91101868 35.04375305 29.91627563 35.84317017 29.92169189 C38.40989263 29.93490397 40.97599575 29.92614979 43.54272461 29.91601562 C45.324871 29.91803602 47.10701659 29.92094717 48.88916016 29.92471313 C52.62499866 29.92913812 56.36062204 29.92269988 60.09643555 29.90869141 C64.88851545 29.89159936 69.68009131 29.90143962 74.47215271 29.9194088 C78.15242317 29.93024197 81.83257386 29.92680246 85.5128479 29.91902542 C87.279918 29.91702212 89.04699893 29.91948725 90.8140564 29.92646408 C93.28249985 29.93407098 95.75012356 29.92248565 98.21850586 29.90576172 C99.31734604 29.91487076 99.31734604 29.91487076 100.43838501 29.92416382 C104.79821326 29.86935522 105.60855727 29.76424547 108.85522461 26.51757812 C108.85522461 22.55757812 108.85522461 18.59757812 108.85522461 14.51757812 C80.47522461 14.51757812 52.09522461 14.51757812 22.85522461 14.51757812 Z " fill="#000000" transform="translate(187.144775390625,68.482421875)"/>
<path d="M0 0 C0.87183426 -0.00335861 1.74366852 -0.00671722 2.641922 -0.01017761 C5.52830423 -0.01968845 8.41462846 -0.02163074 11.30102539 -0.02270508 C13.30497766 -0.02591736 15.3089297 -0.02928141 17.31288147 -0.03279114 C21.5152338 -0.03878259 25.71756557 -0.040631 29.91992188 -0.04003906 C35.30815689 -0.03993739 40.69626027 -0.05359462 46.08446407 -0.07081127 C50.22368477 -0.08192196 54.36287354 -0.08395856 58.50210762 -0.08342934 C60.48885108 -0.08461067 62.47559533 -0.08904098 64.46232414 -0.0967617 C67.23929991 -0.10654356 70.0159885 -0.10369076 72.79296875 -0.09765625 C73.61544098 -0.10327576 74.43791321 -0.10889526 75.28530884 -0.11468506 C82.41852446 -0.07523526 82.41852446 -0.07523526 85.46118164 2.14526367 C87.01578469 5.25446977 87.18838857 8.77609395 86.46118164 12.14526367 C83.8949193 14.9285152 82.3352462 15.15741921 78.5144043 15.5262146 C76.88477984 15.5440298 75.25492335 15.54523444 73.62524414 15.53344727 C72.73375671 15.53870422 71.84226929 15.54396118 70.92376709 15.54937744 C67.97772691 15.5625783 65.0322273 15.55383899 62.08618164 15.54370117 C60.0388173 15.54572188 57.99145367 15.54863329 55.9440918 15.55239868 C51.65349473 15.55682215 47.36308505 15.55039014 43.07250977 15.53637695 C37.57098475 15.51928515 32.06989879 15.5291262 26.56838989 15.54709435 C22.34078662 15.55793149 18.11328755 15.55448614 13.88568115 15.54671097 C11.85707548 15.54470877 9.82846037 15.5471689 7.79986572 15.55414963 C4.96536168 15.56176286 2.13157008 15.55016157 -0.70288086 15.53344727 C-1.54248352 15.53951996 -2.38208618 15.54559265 -3.24713135 15.55184937 C-6.59942365 15.5152018 -9.06668848 15.40649169 -12.0324707 13.76553345 C-14.11198043 11.52875448 -14.46778145 10.19985087 -14.53881836 7.14526367 C-13.28881836 3.89526367 -13.28881836 3.89526367 -11.53881836 1.14526367 C-7.67658856 -0.14214626 -4.02502948 -0.00221237 0 0 Z " fill="#000000" transform="translate(216.538818359375,394.854736328125)"/>
</svg>
