<?xml version="1.0" encoding="UTF-8"?>
<svg version="1.1" xmlns="http://www.w3.org/2000/svg" width="512" height="512">
<path d="M0 0 C1.28469378 -0.00576172 1.28469378 -0.00576172 2.59534097 -0.01163983 C3.53151498 -0.01077335 4.46768898 -0.00990687 5.4322319 -0.00901413 C6.92959715 -0.01347081 6.92959715 -0.01347081 8.45721221 -0.01801753 C11.81191064 -0.02670929 15.16657339 -0.02821319 18.5212822 -0.02970505 C20.92265525 -0.03433288 23.32402756 -0.03935749 25.72539902 -0.04475021 C32.25648191 -0.05787947 38.78755738 -0.06435691 45.31865025 -0.06876087 C49.3979321 -0.07152484 53.47721159 -0.07576248 57.55649185 -0.08026505 C68.85433554 -0.09245667 80.15217734 -0.10275613 91.45002747 -0.10614014 C92.53439513 -0.10646949 92.53439513 -0.10646949 93.64066921 -0.10680549 C94.72760849 -0.10713291 94.72760849 -0.10713291 95.83650613 -0.10746694 C97.30483643 -0.1079104 98.77316674 -0.10835696 100.24149704 -0.10880661 C101.33400723 -0.10913875 101.33400723 -0.10913875 102.44858834 -0.10947761 C114.24760212 -0.11342477 126.0465541 -0.13087673 137.84554401 -0.15416613 C149.96396472 -0.17789264 162.08235444 -0.19034258 174.20079875 -0.19150805 C181.00300637 -0.1924241 187.80513347 -0.19815852 194.60731888 -0.21632767 C201.00619662 -0.23335951 207.40496239 -0.23497154 213.8038578 -0.22618866 C216.15161358 -0.22541743 218.49937752 -0.22977223 220.84711266 -0.23964691 C224.05413481 -0.25234402 227.26061389 -0.24650135 230.46763229 -0.23606491 C231.39488342 -0.24412132 232.32213454 -0.25217772 233.27748418 -0.26047826 C239.7112548 -0.21157081 245.52488944 0.59681173 250.72733688 4.74470901 C251.17335251 5.3054512 251.61936813 5.86619339 252.07889938 6.44392776 C252.77112595 7.27343948 252.77112595 7.27343948 253.47733688 8.11970901 C256.49791929 13.07384894 256.95655371 17.84095293 256.97132492 23.54996109 C256.97585603 24.27560987 256.98038715 25.00125864 256.98505557 25.74889678 C256.99766899 28.16919731 256.9960812 30.58927193 256.99442673 33.00960159 C257.0004139 34.74955915 257.00721989 36.48951406 257.01478195 38.22946548 C257.03243017 42.94858649 257.03713684 47.66763493 257.03841352 52.38678575 C257.03983638 55.33741206 257.04410853 58.28802 257.04940796 61.23864174 C257.06790453 71.53893452 257.07607906 81.83917557 257.07450485 92.13948441 C257.07330364 101.73026517 257.09440296 111.32082081 257.12599218 120.91154462 C257.152172 129.15463625 257.16287143 137.39765443 257.16159403 145.6407873 C257.16108489 150.5600636 257.16674167 155.47913979 257.18795013 160.39837456 C257.20736118 165.02696248 257.20743743 169.65516002 257.19291687 174.28376198 C257.19083121 175.97801536 257.19551517 177.67229337 257.20763779 179.36650467 C257.32176662 196.42806475 257.32176662 196.42806475 252.70389938 203.13142776 C250.20389938 205.56892776 250.20389938 205.56892776 247.70389938 207.13142776 C247.13612778 207.48707809 246.56835617 207.84272842 245.98337936 208.20915604 C242.84092097 209.48058661 240.11924537 209.41424323 236.7322197 209.45027542 C235.69258827 209.46534386 235.69258827 209.46534386 234.63195419 209.48071671 C232.34865243 209.5115254 230.06546781 209.5285771 227.78202438 209.54549026 C226.19589354 209.56420381 224.60977264 209.58377736 223.02366257 209.60417557 C218.8546141 209.65548323 214.68553336 209.69511619 210.51633835 209.73231888 C206.25976716 209.77236713 202.00333006 209.82345572 197.74686813 209.87361526 C189.39930351 209.97035837 181.05167248 210.05476824 172.70389938 210.13142776 C173.11962204 212.04955276 173.11962204 212.04955276 173.54374313 214.00642776 C173.9098064 215.714723 174.27568181 217.42305849 174.64139938 219.13142776 C174.82380173 219.97060745 175.00620407 220.80978714 175.19413376 221.67439651 C176.89920671 229.67273873 177.85988631 237.3832849 177.80155563 245.56892776 C177.79943321 246.71724075 177.79943321 246.71724075 177.79726791 247.88875198 C177.79172791 250.30301919 177.77918718 252.7171892 177.76639938 255.13142776 C177.76137661 256.781166 177.75681507 258.4309057 177.75272751 260.08064651 C177.74177824 264.09761031 177.72455604 268.11450263 177.70389938 272.13142776 C178.65152145 272.28289261 179.59914352 272.43435745 180.57548141 272.59041214 C188.15103171 273.90049638 192.74412774 277.74159518 197.84452438 283.32674026 C203.80735462 292.32109343 204.30300345 301.13507971 204.23514938 311.63142776 C204.23785109 313.11775846 204.24173913 314.60408742 204.24674606 316.09041214 C204.25260934 319.1901944 204.24418197 322.28951242 204.22538376 325.38924026 C204.20259536 329.33651572 204.21573571 333.28270285 204.23967361 337.22993851 C204.25421838 340.29459515 204.24948629 343.3589993 204.23916245 346.42366409 C204.23651902 347.87792977 204.23967968 349.33221937 204.24908066 350.78645706 C204.30652371 362.16596786 202.9610749 371.73317878 194.89139938 380.30720901 C186.0097415 387.71387729 176.44122629 389.3268397 165.26639938 389.19392776 C164.53485641 389.18941605 163.80331345 389.18490433 163.04960251 389.18025589 C161.2676652 389.16860924 159.48577076 389.15067968 157.70389938 389.13142776 C157.66651657 390.42693558 157.62913376 391.72244339 157.59061813 393.05720901 C156.71112701 418.55037069 153.97465927 443.50920307 134.70389938 462.13142776 C118.96027184 475.82731997 99.25400336 476.44595454 79.51639938 476.25642776 C77.68762825 476.2463769 75.85885176 476.23725478 74.03007126 476.22908401 C69.58787983 476.20723966 65.14594986 476.17282618 60.70389938 476.13142776 C60.57112595 476.89713089 60.43835251 477.66283401 60.30155563 478.45174026 C58.79708758 485.19726369 53.278897 490.36921532 47.70389938 494.13142776 C41.97106685 496.62746549 37.36414157 497.5896986 31.14530563 497.56502151 C30.35671661 497.57026337 29.56812759 497.57550522 28.75564194 497.58090591 C27.09932754 497.58728632 25.44296758 497.58604117 23.78666306 497.57747269 C21.27581951 497.5689597 18.76725359 497.59778172 16.25663376 497.62947464 C0.63912527 497.69801038 0.63912527 497.69801038 -6.29610062 493.13142776 C-6.94369339 492.70724564 -7.59128616 492.28306351 -8.25850296 491.84602737 C-13.99432803 487.80757143 -17.14291032 481.66708311 -19.29610062 475.13142776 C-20.68134969 465.4558331 -19.29796552 457.96969222 -13.82344437 449.98299026 C-9.27472262 444.1976184 -3.69962783 439.89811304 3.76011276 438.83967972 C8.69510958 438.42984743 13.62269795 438.41947945 18.57157516 438.4795723 C21.19918113 438.50637963 23.82251716 438.47973873 26.44999313 438.44783401 C37.21536496 438.42632561 44.9464345 439.39751219 53.51639938 446.44392776 C60.70389938 455.27428491 60.70389938 455.27428491 60.70389938 459.13142776 C65.89640312 459.06185098 71.0881544 458.97355991 76.28007126 458.86897659 C78.041053 458.83601446 79.80213311 458.80789628 81.56327438 458.78499222 C97.68600608 458.56971711 113.04373063 457.29023035 125.70389938 446.13142776 C134.05157749 435.73587853 136.76406128 423.91567499 138.30936813 410.93220901 C138.70389938 408.13142776 138.70389938 408.13142776 139.70389938 406.13142776 C138.71389938 406.46142776 137.72389938 406.79142776 136.70389938 407.13142776 C129.17897915 407.79150849 122.71798033 406.16829799 116.61796188 401.55330276 C111.2005739 396.47878744 108.60319897 391.30331867 108.3094902 383.87720108 C108.28569863 381.80605664 108.27826455 379.7346834 108.28397751 377.66341019 C108.27550797 376.5275296 108.26703842 375.39164902 108.25831223 374.22134781 C108.23496505 370.47641595 108.23391967 366.73189558 108.23514938 362.98689651 C108.22804589 360.37526664 108.22034661 357.76363832 108.21207809 355.15201187 C108.1974943 349.68051706 108.19688033 344.20913624 108.20292282 338.73762894 C108.20955693 332.43393771 108.1867173 326.13083261 108.14960909 319.8272602 C108.11508748 313.73981468 108.10858528 307.65264389 108.1126976 301.56510735 C108.11100843 298.98601729 108.10138561 296.40691936 108.08355331 293.8278904 C108.06131707 290.21400287 108.07109177 286.60151337 108.08866501 282.98762894 C108.07540176 281.93119186 108.06213852 280.87475479 108.04847336 279.78630447 C108.13749576 271.87190941 109.90598913 264.84674285 115.7229805 259.15625668 C119.63324786 255.9208421 122.62864526 254.77395638 127.70389938 254.13142776 C126.59884171 238.47919296 123.79576203 223.98269381 118.70389938 209.13142776 C110.09437221 208.76654471 110.09437221 208.76654471 102.27421188 211.73299026 C100.30051904 213.78594788 98.50649982 215.92780829 96.70389938 218.13142776 C95.47986495 219.2643107 94.22917489 220.3690527 92.95389938 221.44392776 C89.47311851 224.43822155 86.07964209 227.51984165 82.70389938 230.63142776 C78.79429073 234.2317779 74.84522931 237.77560849 70.82889938 241.25642776 C68.0856652 243.67692852 65.3950537 246.15343419 62.70389938 248.63142776 C58.79408343 252.23155533 54.84523471 255.77560382 50.82889938 259.25642776 C48.0856618 261.67693151 45.39520351 264.15359346 42.70389938 266.63142776 C27.10913229 280.97529078 27.10913229 280.97529078 22.32889938 281.50642776 C18.02013288 281.0606933 16.68292894 280.22163174 13.70389938 277.13142776 C13.1026268 274.06886673 13.1026268 274.06886673 13.13627243 270.4351387 C13.13517723 269.43939835 13.13517723 269.43939835 13.13405991 268.42354202 C13.13753405 266.23678766 13.17637977 264.05218327 13.21561813 261.86580276 C13.22494705 260.34695474 13.2320628 258.82809164 13.23705673 257.30922318 C13.25612085 253.31724162 13.30521503 249.32617395 13.36057663 245.33455276 C13.4117827 241.25915769 13.43457358 237.18361451 13.45975876 233.10799026 C13.51333571 225.11538401 13.59863978 217.12351966 13.70389938 209.13142776 C12.84224167 209.15499344 12.84224167 209.15499344 11.96317673 209.17903519 C9.33518629 209.24178289 6.70735402 209.28054282 4.07889938 209.31892776 C3.17526657 209.34406448 2.27163376 209.3692012 1.34061813 209.39509964 C-4.89772478 209.46340266 -9.38776984 208.81416475 -14.15938187 204.41267776 C-14.63762405 203.82486526 -15.11586624 203.23705276 -15.60860062 202.63142776 C-16.09973343 202.04361526 -16.59086624 201.45580276 -17.09688187 200.85017776 C-19.09340783 197.98870732 -19.42850739 195.41254173 -19.50142288 192.02717972 C-19.5213681 191.20655548 -19.54131332 190.38593124 -19.56186295 189.54043961 C-19.58693169 188.21842796 -19.58693169 188.21842796 -19.61250687 186.86970901 C-19.64367851 185.51101952 -19.64367851 185.51101952 -19.67547989 184.12488174 C-19.7408662 181.2313076 -19.79980966 178.3376427 -19.85860062 175.44392776 C-19.90179622 173.48232984 -19.94541084 171.52074109 -19.98945999 169.55916214 C-20.09653644 164.75001037 -20.19783476 159.94076731 -20.29610062 155.13142776 C-22.83549106 156.37050515 -25.37126892 157.61620161 -27.90547562 158.86580276 C-28.61623245 159.21175491 -29.32698929 159.55770706 -30.05928421 159.91414261 C-52.80312367 171.16855686 -68.68910909 191.60220646 -77.0465889 215.2554512 C-81.16141656 227.68061708 -83.32010562 240.08391574 -84.29610062 253.13142776 C-83.31770218 253.55101761 -83.31770218 253.55101761 -82.31953812 253.97908401 C-75.60436349 257.05934848 -70.56631827 260.19200247 -67.40325356 267.07403946 C-65.22219483 273.22127586 -64.86855254 278.80427868 -64.90791702 285.29158401 C-64.90266006 286.37084152 -64.89740311 287.45009903 -64.89198685 288.56206131 C-64.87885435 292.1061669 -64.88750128 295.64981813 -64.89766312 299.19392776 C-64.89564045 301.67057252 -64.89272741 304.14721669 -64.88896561 306.62385941 C-64.88455138 311.80515102 -64.89094446 316.98628709 -64.90498734 322.16756058 C-64.92207841 328.79503131 -64.91223243 335.42213751 -64.89426994 342.04959488 C-64.88340789 347.16095582 -64.88688961 352.27223093 -64.89465332 357.38359451 C-64.89664862 359.82673054 -64.89421971 362.26987446 -64.88721466 364.71300125 C-64.87956051 368.13263342 -64.89126054 371.55168255 -64.90791702 374.97127151 C-64.90184433 375.97205734 -64.89577164 376.97284317 -64.88951492 378.00395584 C-64.9674439 386.6793989 -66.50286338 394.12797328 -72.55000687 400.62752151 C-78.05376006 405.36789059 -84.79947415 407.53930256 -92.01875687 407.40486526 C-99.36253778 406.52310769 -104.91250895 403.21022664 -109.92110062 397.91267776 C-112.22506297 394.92799926 -113.29610062 392.94187512 -113.29610062 389.13142776 C-114.45625687 389.16623245 -115.61641312 389.20103714 -116.81172562 389.23689651 C-130.81766016 389.53131556 -142.13118684 388.77978601 -152.92110062 378.94392776 C-159.12223117 372.57816542 -161.39491193 364.67340601 -161.47310257 355.97688675 C-161.48593781 354.73136536 -161.49877304 353.48584396 -161.51199722 352.2025795 C-161.52016903 350.84423092 -161.52761191 349.4858778 -161.53438187 348.12752151 C-161.53845739 347.43883547 -161.54253292 346.75014942 -161.54673195 346.0405941 C-161.56756682 342.39045517 -161.5818758 338.74035346 -161.59126663 335.090168 C-161.60228473 331.34694605 -161.63663756 327.60432615 -161.67643833 323.86131573 C-161.70277831 320.96052435 -161.71097403 318.05987218 -161.71454811 315.15897179 C-161.71937477 313.78085229 -161.73087477 312.40273732 -161.74958611 311.0247364 C-161.8923157 299.8102452 -160.37582381 289.8557183 -153.13203812 280.92049026 C-147.92421463 275.84563249 -142.40970337 273.20715225 -135.29610062 272.13142776 C-135.31181107 271.27202591 -135.32752151 270.41262405 -135.34370804 269.52717972 C-136.12984727 219.83455619 -124.60026603 177.70483477 -89.29610062 141.13142776 C-88.76331497 140.57455276 -88.23052933 140.01767776 -87.68159866 139.44392776 C-74.10320099 125.51776017 -57.60507388 115.78163746 -40.04610062 107.75642776 C-39.35008743 107.43440384 -38.65407425 107.11237991 -37.93696976 106.78059769 C-33.70436218 104.91572372 -29.50857735 103.6186797 -25.01192093 102.52351761 C-23.93919937 102.26065964 -22.86647781 101.99780167 -21.76124954 101.7269783 C-20.9477504 101.53044662 -20.13425125 101.33391495 -19.29610062 101.13142776 C-19.30498306 100.05925003 -19.31386551 98.9870723 -19.32301712 97.88240433 C-19.4042315 87.76024848 -19.4641277 77.63815906 -19.5033493 67.51575089 C-19.52419171 62.31214657 -19.55244826 57.10880606 -19.59785843 51.90535355 C-19.64143545 46.88030288 -19.66526289 41.85550539 -19.67560959 36.8302803 C-19.68297969 34.91658419 -19.69737177 33.00290136 -19.71902084 31.08931351 C-19.74821261 28.40122808 -19.75205007 25.71417836 -19.75020218 23.02595901 C-19.76458328 22.24120697 -19.77896439 21.45645493 -19.79378128 20.64792252 C-19.74699522 14.32576365 -17.98116016 8.90481164 -13.51485062 4.29158401 C-12.94766312 3.92935745 -12.38047562 3.56713089 -11.79610062 3.19392776 C-11.22891312 2.81365433 -10.66172562 2.43338089 -10.07735062 2.04158401 C-6.78906452 0.3613852 -3.65724303 0.00617384 0 0 Z M-2.29610062 18.13142776 C-2.39314703 20.3716742 -2.41796717 22.6150483 -2.41635513 24.85739517 C-2.41720956 25.56878771 -2.41806398 26.28018024 -2.4189443 27.01313013 C-2.42060118 29.41464824 -2.41507436 31.81609765 -2.40962601 34.21760941 C-2.40934415 35.93202081 -2.40950183 37.64643233 -2.41006851 39.36084366 C-2.41035656 44.0300675 -2.40445866 48.69926588 -2.39749455 53.36848378 C-2.39126223 58.24254304 -2.39065731 63.11660281 -2.38946915 67.99066544 C-2.38635547 77.22712206 -2.3781416 86.46356692 -2.36811966 95.70001835 C-2.35695964 106.21253642 -2.35144835 116.72505504 -2.34642422 127.23757756 C-2.33595901 148.86886754 -2.31835887 170.50014691 -2.29610062 192.13142776 C-1.49913773 192.14601028 -0.70217484 192.1605928 0.11893845 192.17561722 C3.73108062 192.25010252 7.34229912 192.34676288 10.95389938 192.44392776 C12.8352861 192.47776566 12.8352861 192.47776566 14.75468063 192.51228714 C15.95995407 192.54773636 17.16522751 192.58318558 18.40702438 192.61970901 C19.51722946 192.6458931 20.62743454 192.67207718 21.7712822 192.69905472 C25.00481282 193.17579321 26.40041923 193.84648059 28.70389938 196.13142776 C29.71075325 199.15198938 29.85762624 201.26697391 29.90922165 204.42903519 C29.92916687 205.5099292 29.94911209 206.59082321 29.96966171 207.70447159 C29.98637421 208.87017181 30.0030867 210.03587204 30.02030563 211.23689651 C30.04108673 212.4312381 30.06186783 213.62557968 30.08327866 214.85611343 C30.14874214 218.67699219 30.20764448 222.49794052 30.26639938 226.31892776 C30.30958763 228.90682563 30.35320202 231.49471642 30.39725876 234.08259964 C30.5044203 240.43213516 30.60619279 246.7817401 30.70389938 253.13142776 C31.82867417 252.16750128 32.95342555 251.20354748 34.07816696 250.23958206 C34.70451538 249.7027832 35.3308638 249.16598434 35.97619247 248.61291885 C41.84753805 243.57829979 47.59113433 238.41817708 53.28080368 233.17952347 C56.66780326 230.06600501 60.10261368 227.01920871 63.57889938 224.00642776 C66.32213394 221.58592668 69.01272844 219.10940367 71.70389938 216.63142776 C75.62936548 213.01732319 79.58701724 209.45070521 83.62577438 205.96345901 C87.24518679 202.77266123 90.75932028 199.46331968 94.28593063 196.17049026 C97.93146296 193.09622876 100.72460614 193.00321078 105.33491135 192.97993851 C106.50715759 192.97159485 107.67940384 192.96325119 108.8871727 192.95465469 C110.17456848 192.95047028 111.46196426 192.94628586 112.78837204 192.94197464 C114.15663533 192.93403213 115.5248961 192.92564417 116.89315414 192.91684341 C119.83968118 192.89878798 122.78620266 192.88377205 125.73275757 192.87106705 C130.38759308 192.85085898 135.0423659 192.82320652 139.697155 192.79439163 C150.41561441 192.72918041 161.13412016 192.67371576 171.85263443 192.61840439 C181.68052981 192.56760156 191.50840236 192.51476614 201.33624113 192.45387888 C205.96815713 192.42546762 210.60006551 192.40189473 215.23202538 192.38195419 C218.10666219 192.3686061 220.9812637 192.3511922 223.8558712 192.33264351 C225.83445851 192.3211354 227.81307281 192.31461175 229.7916832 192.30820084 C230.95828979 192.29985718 232.12489639 192.29151352 233.32685471 192.28291702 C234.34707026 192.27776329 235.3672858 192.27260956 236.41841698 192.26729965 C238.66936398 192.38726221 238.66936398 192.38726221 239.70389938 191.13142776 C239.80312906 188.90614541 239.83022359 186.67764693 239.83088303 184.45015335 C239.83244302 183.74354993 239.83400301 183.03694652 239.83561027 182.30893087 C239.83962263 179.92357054 239.83642973 177.53827303 239.83329391 175.15291214 C239.83464785 173.44997495 239.83642774 171.74703805 239.83860397 170.04410172 C239.84317921 165.4058047 239.84138838 160.76752983 239.83822489 156.12923241 C239.83570175 151.28633563 239.83803869 146.44344082 239.83961105 141.60054398 C239.84143289 133.46614108 239.83902608 125.33174725 239.83427048 117.19734573 C239.82882783 107.77871204 239.83059048 98.36009998 239.83609688 88.94146681 C239.84062762 80.87015837 239.84127875 72.79885647 239.83865821 64.72754717 C239.83709522 59.90019024 239.83690227 55.0728435 239.8401947 50.24548721 C239.84307285 45.70821171 239.84109876 41.17096425 239.83530045 36.63369179 C239.83397254 34.96350209 239.83436747 33.29331005 239.83656311 31.62312126 C239.83927345 29.35294917 239.83589494 27.08286837 239.83088303 24.81270218 C239.830506 23.5391613 239.83012897 22.26562042 239.82974052 20.9534874 C240.02631281 18.22887291 240.02631281 18.22887291 238.70389938 17.13142776 C235.62166659 17.03116168 232.56176122 16.99705169 229.47904587 17.00444412 C228.49884444 17.00288413 227.51864302 17.00132414 226.50873852 16.99971688 C223.19747513 16.99570231 219.88625693 16.99889828 216.57499313 17.00203323 C214.21196592 17.0006794 211.84893892 16.99889956 209.48591232 16.99672318 C203.71782953 16.99262286 197.9497613 16.99324211 192.18167806 16.99613582 C187.49587729 16.99838971 182.81008017 16.99870243 178.12427902 16.997612 C177.45861654 16.99745877 176.79295405 16.99730553 176.10711998 16.99714766 C174.75504724 16.99682795 173.40297451 16.99650373 172.05090177 16.99617507 C159.35788006 16.99332017 146.66486556 16.99660745 133.97184503 17.00197543 C123.06904964 17.00644348 112.16626489 17.00566755 101.2634697 17.00105667 C88.61738694 16.99571108 75.97131051 16.99359486 63.32522678 16.99666893 C61.97799111 16.9969875 60.63075543 16.99730187 59.28351974 16.997612 C58.2890936 16.99784341 58.2890936 16.99784341 57.27457803 16.9980795 C52.59174571 16.9989447 47.90891737 16.99748171 43.22608566 16.99513245 C36.92906968 16.99225502 30.63207391 16.99422705 24.33506012 17.0000267 C22.01662225 17.00135499 19.69818269 17.00095903 17.37974548 16.99876404 C14.22939124 16.99605523 11.07910288 16.99943034 7.9287529 17.00444412 C6.53340395 17.00109804 6.53340395 17.00109804 5.10986614 16.99768436 C1.08727239 16.60313085 1.08727239 16.60313085 -2.29610062 18.13142776 Z M-74.29610062 151.13142776 C-75.00331253 151.79199173 -75.00331253 151.79199173 -75.72481155 152.46590042 C-94.65745174 170.17290775 -107.2985758 192.73660807 -114.04610062 217.69392776 C-114.24493851 218.4245845 -114.4437764 219.15524124 -114.64863968 219.90803909 C-117.79417287 232.21365628 -118.58265245 244.34324904 -118.42110062 257.00642776 C-118.41103087 258.38793155 -118.40191222 259.7694426 -118.39375687 261.15095901 C-118.37049102 264.47797508 -118.33780626 267.80460062 -118.29610062 271.13142776 C-116.64610062 271.13142776 -114.99610062 271.13142776 -113.29610062 271.13142776 C-113.06535843 270.61193558 -112.83461624 270.09244339 -112.59688187 269.55720901 C-110.41854553 264.89918546 -108.18397461 261.61005187 -104.29610062 258.13142776 C-101.71566873 255.55099588 -101.83395911 254.07417532 -101.40156937 250.47908401 C-101.17968948 248.73957474 -101.17968948 248.73957474 -100.95332718 246.96492386 C-100.79831741 245.72049515 -100.64330765 244.47606644 -100.48360062 243.19392776 C-96.47824553 213.57458994 -87.23800059 188.78929546 -67.29610062 166.13142776 C-66.77016312 165.5217012 -66.24422562 164.91197464 -65.70235062 164.28377151 C-53.24545377 150.84176292 -36.20166262 142.47101352 -19.29610062 136.13142776 C-19.29610062 130.52142776 -19.29610062 124.91142776 -19.29610062 119.13142776 C-38.16412097 119.13142776 -61.57277775 138.9066677 -74.29610062 151.13142776 Z M137.70389938 209.13142776 C137.97202438 210.32767776 138.24014938 211.52392776 138.51639938 212.75642776 C138.6981572 213.59302933 138.87991501 214.42963089 139.06718063 215.29158401 C139.49542375 217.20160086 139.95172953 219.10551953 140.43436813 221.00252151 C141.82745553 226.77994486 142.76667491 232.22709047 143.09452438 238.15877151 C143.15704391 239.2241011 143.21956345 240.28943069 143.28397751 241.387043 C143.39551775 243.51672449 143.47849518 245.64813277 143.53007126 247.78010941 C143.71380485 253.29500661 143.71380485 253.29500661 146.23929977 258.0108223 C148.07014419 259.56088441 148.07014419 259.56088441 150.00223923 260.89216995 C152.30128303 262.56648076 153.38155768 264.48674435 154.64139938 267.00642776 C155.04229782 267.78759964 155.44319626 268.56877151 155.85624313 269.37361526 C156.1359697 269.95369339 156.41569626 270.53377151 156.70389938 271.13142776 C158.02389938 271.13142776 159.34389938 271.13142776 160.70389938 271.13142776 C161.08866912 249.82702329 160.97479919 229.73581285 154.70389938 209.13142776 C149.09389938 209.13142776 143.48389938 209.13142776 137.70389938 209.13142776 Z M-97.29610062 275.13142776 C-98.04068194 278.65656615 -97.979331 282.12514456 -97.94307327 285.71736526 C-97.95183487 286.7829567 -97.96059647 287.84854813 -97.96962357 288.94643021 C-97.99162022 292.46684426 -97.97706262 295.98600106 -97.96016312 299.50642776 C-97.96353114 301.95353308 -97.96838364 304.40063677 -97.97465897 306.84773636 C-97.98203072 311.97566535 -97.97131428 317.10315878 -97.94795609 322.23103714 C-97.91946906 328.80543562 -97.93587128 335.37881356 -97.96581841 341.95317459 C-97.98388266 347.00609914 -97.97813715 352.05878158 -97.96517944 357.11171341 C-97.96184306 359.53582759 -97.96594059 361.95996373 -97.97757721 364.38405228 C-97.99027064 367.7717909 -97.97092721 371.15787495 -97.94307327 374.54549026 C-97.95319443 375.5482399 -97.96331558 376.55098953 -97.97374344 377.58412552 C-97.90248098 382.26046986 -97.80944102 384.4422166 -94.94707108 388.28523636 C-92.41486628 390.40141059 -92.41486628 390.40141059 -89.23360062 390.25642776 C-85.42955457 388.79955907 -84.3983542 387.63845504 -82.29610062 384.13142776 C-81.71497763 380.65815116 -81.77018464 377.22774053 -81.81026077 373.71321487 C-81.80646408 372.66552429 -81.80266739 371.61783371 -81.79875565 370.53839493 C-81.79135128 367.07821513 -81.81273061 363.61887658 -81.83516312 360.15877151 C-81.83754753 357.75411452 -81.83845287 355.34945564 -81.83794022 352.94479752 C-81.84106796 347.90687258 -81.85763286 342.86923228 -81.88447952 337.83137894 C-81.9184773 331.369257 -81.92610755 324.90744759 -81.92458916 318.4452467 C-81.92513261 313.48076766 -81.93609563 308.51635713 -81.95059204 303.55190086 C-81.95696202 301.16883297 -81.9608994 298.7857573 -81.96237946 296.40268135 C-81.96670921 293.075068 -81.98420314 289.747788 -82.00557327 286.42024612 C-82.0046669 285.43260269 -82.00376053 284.44495926 -82.00282669 283.42738724 C-82.01135666 282.52038574 -82.01988663 281.61338425 -82.02867508 280.67889786 C-82.03202677 279.89264998 -82.03537846 279.10640211 -82.03883171 278.29632854 C-82.3347699 275.80602831 -82.95205563 274.24461969 -84.29610062 272.13142776 C-90.0532603 268.29332131 -93.23858949 269.77984212 -97.29610062 275.13142776 Z M125.70389938 274.13142776 C124.93485774 277.64140665 125.02124149 281.11448966 125.05692673 284.69563675 C125.04816513 285.77083572 125.03940353 286.8460347 125.03037643 287.95381546 C125.00834924 291.51212661 125.02294925 295.06919746 125.03983688 298.62752151 C125.03646949 301.0984763 125.03161752 303.56942947 125.02534103 306.04037857 C125.01796494 311.22136058 125.02869878 316.40191181 125.05204391 321.58284378 C125.08051628 328.2256488 125.06414073 334.86744316 125.03418159 341.51021099 C125.01611637 346.61374912 125.02186356 351.71704755 125.03482056 356.82059288 C125.03815744 359.26982683 125.03405766 361.7190825 125.02242279 364.16829109 C125.00972945 367.59205522 125.0290735 371.01418212 125.05692673 374.43782425 C125.04680557 375.45149567 125.03668442 376.46516708 125.02625656 377.50955582 C125.09712878 382.20985205 125.1850957 384.43050437 128.04902267 388.29977798 C130.59503378 390.42719864 130.59503378 390.42719864 133.82889938 390.13142776 C136.68826439 389.13686602 137.94173324 388.54281302 139.70389938 386.13142776 C140.63375335 383.34186587 140.83715517 381.6330936 140.85779953 378.74890518 C140.86639999 377.85313766 140.87500046 376.95737015 140.88386154 376.03445816 C140.88812149 375.05414124 140.89238144 374.07382431 140.89677048 373.06380081 C140.90494797 372.02936844 140.91312546 370.99493607 140.92155075 369.92915726 C140.94639603 366.50049291 140.96291749 363.07186991 140.97733688 359.64314651 C140.98266056 358.47290247 140.98798424 357.30265842 140.99346924 356.09695244 C141.0201954 349.90443069 141.03957317 343.71192908 141.05399704 337.51936722 C141.07065517 331.12000279 141.11544495 324.72115231 141.16636848 318.32198238 C141.20000166 313.40376561 141.21157013 308.48567151 141.21722412 303.56735039 C141.223946 301.20821893 141.23919219 298.8490958 141.26311493 296.49007607 C141.29468731 293.18870187 141.29481469 289.88872346 141.28739548 286.58723831 C141.30380081 285.61299408 141.32020615 284.63874985 141.33710861 283.63498306 C141.29615463 279.1832454 141.15289416 276.08316287 138.32368088 272.51700211 C135.95924154 269.98548415 135.95924154 269.98548415 133.20389938 269.50642776 C129.65306277 270.39413692 128.19321641 271.39464475 125.70389938 274.13142776 Z M-139.94063187 292.63142776 C-143.50754725 297.2123492 -144.4188339 300.14584408 -144.47310257 305.86873245 C-144.48593781 307.04715714 -144.49877304 308.22558182 -144.51199722 309.43971634 C-144.51938416 310.71469986 -144.52677109 311.98968338 -144.53438187 313.30330276 C-144.54245361 314.6142189 -144.55052536 315.92513504 -144.55884171 317.27577591 C-144.57385683 320.05317937 -144.58369986 322.83055738 -144.59126663 325.60799026 C-144.60231321 329.15323086 -144.63669697 332.69784072 -144.67643833 336.24285889 C-144.70898711 339.63798079 -144.71339045 343.03303694 -144.72188187 346.42830276 C-144.73938995 347.69518936 -144.75689804 348.96207596 -144.77493668 350.26735306 C-144.75815798 357.09816131 -144.53750185 361.65129393 -140.29610062 367.13142776 C-131.77262286 373.87918099 -126.17166897 372.13142776 -114.29610062 372.13142776 C-114.29610062 344.41142776 -114.29610062 316.69142776 -114.29610062 288.13142776 C-128.77627482 286.79743722 -128.77627482 286.79743722 -139.94063187 292.63142776 Z M157.70389938 288.13142776 C157.70389938 315.85142776 157.70389938 343.57142776 157.70389938 372.13142776 C171.24815352 373.17267786 171.24815352 373.17267786 182.44608688 367.59627151 C185.81706567 363.05126218 186.82939571 360.9530791 186.88090134 355.32405472 C186.89373657 354.105513 186.90657181 352.88697128 186.91979599 351.63150406 C186.92796555 350.29424318 186.93540887 348.9569777 186.94218063 347.61970901 C186.94625616 346.94626135 186.95033169 346.27281368 186.95453072 345.57895851 C186.97539691 342.0112463 186.98969357 338.44357257 186.9990654 334.87581253 C187.01010322 331.20163722 187.04446993 327.52807202 187.0842371 323.85411167 C187.11047129 321.02038881 187.11876341 318.18680944 187.12234688 315.35297585 C187.12954902 313.34392401 187.15596384 311.33497051 187.18273544 309.32608414 C187.16633151 302.40523385 187.04933752 297.66442693 182.70389938 292.13142776 C175.72804424 285.81356112 166.7133041 288.13142776 157.70389938 288.13142776 Z M-0.79610062 460.81892776 C-2.74890009 465.13135995 -2.81955525 467.4203361 -2.29610062 472.13142776 C-0.5022678 476.37997916 1.61108585 478.11911894 5.70389938 480.13142776 C10.12487641 480.66977792 14.54719352 480.60454743 18.99613571 480.57747269 C21.13212687 480.5689647 23.26543777 480.59774496 25.40116501 480.62947464 C26.77160692 480.63108712 28.14205353 480.63050821 29.51249313 480.62752151 C30.74797897 480.62937454 31.98346481 480.63122757 33.25638962 480.63313675 C37.36394536 480.03537264 39.50128915 478.73144813 42.70389938 476.13142776 C45.07727966 472.27468481 46.07763421 469.43894796 45.26639938 465.00642776 C43.85707635 460.52617244 41.60806152 458.65765033 37.70389938 456.13142776 C32.32704972 454.73449842 26.91064535 454.90935564 21.39139938 454.88142776 C20.38399704 454.86080276 19.3765947 454.84017776 18.33866501 454.81892776 C10.96573269 454.78050206 4.49872584 455.12698933 -0.79610062 460.81892776 Z " fill="#000000" transform="translate(208.29610061645508,6.868572235107422)"/>
<path d="M0 0 C0.99085639 -0.00445668 0.99085639 -0.00445668 2.00173008 -0.0090034 C4.21951944 -0.01768856 6.4372548 -0.01919848 8.65505981 -0.02069092 C10.24342972 -0.02531918 11.83179852 -0.03034385 13.42016602 -0.03573608 C17.73836777 -0.04886031 22.05655397 -0.05530495 26.37477255 -0.05974674 C29.07190377 -0.06267711 31.76903074 -0.06678182 34.46615982 -0.07125092 C42.90288202 -0.0849252 51.3395945 -0.09459249 59.77632701 -0.09845281 C69.51919534 -0.10293514 79.26192348 -0.12049143 89.00474918 -0.1494534 C96.53349085 -0.17105787 104.06219304 -0.18115641 111.59096539 -0.18249393 C116.08871225 -0.18354274 120.58632733 -0.18946678 125.0840416 -0.20731354 C129.31444575 -0.22377317 133.54461875 -0.22596005 137.77504349 -0.21717453 C139.32745736 -0.21640305 140.87988356 -0.22076147 142.43226624 -0.23063278 C144.55228819 -0.24332279 146.67148775 -0.23749238 148.79150391 -0.22705078 C149.97764219 -0.22851734 151.16378048 -0.2299839 152.38586235 -0.2314949 C155.85684115 0.18005655 157.74080486 1.05960084 160.5227356 3.14044189 C162.08744792 6.26986655 162.21975517 9.75126413 161.5227356 13.14044189 C159.29492982 16.05323496 158.11302247 17.04376731 154.44923401 17.64380646 C153.23397537 17.64531456 152.01871674 17.64682266 150.76663208 17.64837646 C150.08816695 17.65461643 149.40970182 17.66085639 148.71067715 17.66728544 C146.43804066 17.68323605 144.16647371 17.67060424 141.89382935 17.65802002 C140.26427586 17.66344026 138.63472728 17.67056237 137.00518799 17.67926025 C132.57955556 17.69750832 128.15429578 17.69042005 123.72865677 17.67774391 C119.09937783 17.66762389 114.47013101 17.67700681 109.84085083 17.68328857 C102.06645981 17.6905679 94.29222074 17.68096983 86.51785278 17.66192627 C77.52683174 17.64015695 68.5361735 17.64720813 59.54516125 17.66923189 C51.82870215 17.6873778 44.11235233 17.68994819 36.39587879 17.67947721 C31.78583135 17.67323782 27.17595449 17.67241887 22.56591797 17.68562317 C18.23198317 17.69716932 13.89851658 17.68917882 9.56463242 17.66604614 C7.97311048 17.6607524 6.38154922 17.66228422 4.79004288 17.6710968 C2.61910788 17.68201046 0.4496779 17.66834205 -1.72116089 17.64837646 C-3.54404884 17.64611431 -3.54404884 17.64611431 -5.40376282 17.64380646 C-9.06745479 17.04378311 -10.24352329 16.04691555 -12.4772644 13.14044189 C-13.4059295 9.39653223 -12.98101093 6.07597116 -11.1647644 2.70294189 C-7.8418946 -0.3737894 -4.30373962 0.01080002 0 0 Z " fill="#000000" transform="translate(251.47726440429688,102.85955810546875)"/>
<path d="M0 0 C0.67846513 -0.00623996 1.35693026 -0.01247993 2.05595493 -0.01890898 C4.32859142 -0.03485958 6.60015837 -0.02222777 8.87280273 -0.00964355 C10.50235622 -0.0150638 12.1319048 -0.02218591 13.76144409 -0.03088379 C18.18707652 -0.04913186 22.6123363 -0.04204359 27.03797531 -0.02936745 C31.66725425 -0.01924743 36.29650107 -0.02863035 40.92578125 -0.03491211 C48.70017227 -0.04219143 56.47441134 -0.03259336 64.2487793 -0.0135498 C73.23980034 0.00821951 82.23045858 0.00116834 91.22147083 -0.02085543 C98.93792993 -0.03900133 106.65427975 -0.04157172 114.37075329 -0.03110075 C118.98080073 -0.02486135 123.59067759 -0.0240424 128.20071411 -0.0372467 C132.53464891 -0.04879285 136.8681155 -0.04080235 141.20199966 -0.01766968 C142.7935216 -0.01237594 144.38508286 -0.01390776 145.9765892 -0.02272034 C148.1475242 -0.03363399 150.31695418 -0.01996558 152.48779297 0 C154.31068092 0.00226215 154.31068092 0.00226215 156.1703949 0.00457001 C159.83456268 0.60467128 161.00816921 1.60284443 163.24389648 4.50793457 C163.97160881 7.24755745 163.82361225 9.74007596 163.24389648 12.50793457 C161.37374554 14.9391308 159.96251303 16.1486263 157.24389648 17.50793457 C155.12677139 17.60867121 153.00640028 17.64306178 150.8868866 17.64837646 C149.89731184 17.65283315 149.89731184 17.65283315 148.88774568 17.65737987 C146.66685031 17.66608366 144.44600875 17.66757653 142.22509766 17.66906738 C140.63687525 17.67369439 139.04865395 17.6787189 137.46043396 17.68411255 C133.1380409 17.69725039 128.81566338 17.70368427 124.49325347 17.70812321 C121.79395001 17.71105188 119.09465082 17.71515631 116.3953495 17.71962738 C107.95328452 17.73330635 99.51122927 17.74297088 91.06915396 17.74682927 C81.31778555 17.75131027 71.56655729 17.7688584 61.8152315 17.79782987 C54.28226374 17.81943501 46.74933544 17.82953294 39.21633703 17.83087039 C34.71522185 17.83191932 30.21423835 17.83784562 25.71315575 17.85569 C21.47866103 17.87215039 17.24439725 17.87433614 13.00988197 17.86555099 C11.4558564 17.86477951 9.90181851 17.86913803 8.3478241 17.87900925 C6.22555939 17.89169926 4.10411621 17.88586879 1.9818573 17.87542725 C0.79442019 17.87689381 -0.39301691 17.87836037 -1.61643696 17.87987137 C-5.0890985 17.46848672 -6.97308029 16.59000163 -9.75610352 14.50793457 C-11.32081584 11.37850992 -11.45312309 7.89711234 -10.75610352 4.50793457 C-7.54074389 0.30394276 -5.17193099 0.00641822 0 0 Z " fill="#000000" transform="translate(249.756103515625,58.4920654296875)"/>
<path d="M0 0 C1.12474228 -0.01583633 2.24948456 -0.03167267 3.40830994 -0.04798889 C4.61878494 -0.04302902 5.82925995 -0.03806915 7.07641602 -0.03295898 C8.94790062 -0.04225685 8.94790062 -0.04225685 10.85719299 -0.05174255 C13.49634714 -0.05884828 16.13397859 -0.05759797 18.77294922 -0.04296875 C22.14719192 -0.02579057 25.51973015 -0.04926316 28.89378262 -0.08445835 C32.12134706 -0.11175983 35.34876869 -0.10169386 38.57641602 -0.09545898 C39.78486679 -0.10871719 40.99331757 -0.1219754 42.23838806 -0.13563538 C51.5603162 -0.03205054 51.5603162 -0.03205054 54.65869141 2.88525391 C56.80276413 6.15946999 57.11314352 7.69173393 56.39282227 11.53344727 C54.59288452 14.23335388 53.30904927 16.07533377 50.39282227 17.53344727 C48.69368257 17.6391804 46.99046727 17.6822114 45.28808594 17.69458008 C44.22325485 17.70418762 43.15842377 17.71379517 42.06132507 17.72369385 C40.90614883 17.72794373 39.7509726 17.7321936 38.56079102 17.73657227 C37.37689285 17.74227234 36.19299469 17.74797241 34.97322083 17.75384521 C32.46392717 17.76330548 29.95462104 17.76983325 27.4453125 17.77368164 C23.60663134 17.78338079 19.76848689 17.81439277 15.92993164 17.84594727 C13.49438795 17.85247776 11.05884043 17.85772805 8.62329102 17.86157227 C7.47418747 17.87391907 6.32508392 17.88626587 5.14115906 17.89898682 C4.06687149 17.89598572 2.99258392 17.89298462 1.88574219 17.88989258 C0.94357346 17.89353821 0.00140472 17.89718384 -0.96931458 17.90093994 C-4.14042643 17.45915797 -6.02588082 16.39768472 -8.60717773 14.53344727 C-10.17189006 11.40402261 -10.30419731 7.92262503 -9.60717773 4.53344727 C-6.62178774 0.80019465 -4.73142109 0.02966522 0 0 Z " fill="#000000" transform="translate(248.607177734375,147.466552734375)"/>
<path d="M0 0 C2.89479637 1.73687782 3.01335881 3.05152682 3.875 6.375 C4.01384714 10.40156711 3.47120257 11.88811528 1 15 C-2.47216838 16.73608419 -6.21180127 16.59211632 -10 16 C-13.06862356 13.45528778 -13.84823663 11.91058019 -14.5 8 C-13.88087611 4.28525663 -12.6428646 2.6428646 -10 0 C-6.22941703 -1.25686099 -3.86146303 -0.82745636 0 0 Z " fill="#000000" transform="translate(183,329)"/>
<path d="M0 0 C1.516425 3.60150938 1.13048258 6.67737988 0 10.375 C-1.8092944 12.69089683 -3.02052494 13.23421303 -5.90234375 13.6484375 C-9.09077782 13.80281233 -11.4705626 13.59220509 -14.4375 12.375 C-16.84107664 9.2984219 -17.32384791 6.23858093 -17 2.375 C-15.35256373 -0.49275944 -14.12439981 -2.04341389 -11.1875 -3.5625 C-6.94637224 -3.68367508 -3.30189828 -2.68279236 0 0 Z " fill="#000000" transform="translate(255,331.625)"/>
<path d="M0 0 C2.375 1.5625 2.375 1.5625 4 4 C4.80168014 7.98385948 4.59608399 10.96333219 2.5625 14.5 C-1.25682396 16.73570183 -4.68518361 16.76004105 -9 16 C-11.5625 14.5 -11.5625 14.5 -13 12 C-13.54192526 9.21621553 -13.57657957 6.78014109 -13 4 C-9.343307 -0.91762162 -5.77832349 -1.5330246 0 0 Z " fill="#000000" transform="translate(286,329)"/>
<path d="M0 0 C2.375 1.5625 2.375 1.5625 4 4 C4.80168014 7.98385948 4.59608399 10.96333219 2.5625 14.5 C-1.25682396 16.73570183 -4.68518361 16.76004105 -9 16 C-11.5625 14.5 -11.5625 14.5 -13 12 C-13.54192526 9.21621553 -13.57657957 6.78014109 -13 4 C-9.343307 -0.91762162 -5.77832349 -1.5330246 0 0 Z " fill="#000000" transform="translate(217,329)"/>
</svg>
